<?xml version="1.0" standalone="no"?>
<!DOCTYPE svg PUBLIC "-//W3C//DTD SVG 1.1//EN" "http://www.w3.org/Graphics/SVG/1.1/DTD/svg11.dtd">
<svg xmlns="http://www.w3.org/2000/svg">
<defs >
<font id="Finlandica" horiz-adv-x="528" ><font-face
    font-family="Finlandica Medium"
    units-per-em="1000"
    panose-1="0 0 0 0 0 0 0 0 0 0"
    ascent="950"
    descent="-250"
    alphabetic="0" />
<glyph unicode=" " horiz-adv-x="276" />
<glyph unicode="!" horiz-adv-x="277" d="M92 218L138 700H265L175 218H92ZM47 0L63 115H176L160 0H47Z" />
<glyph unicode="&quot;" horiz-adv-x="405" d="M90 421L136 750H226L179 421H90ZM274 421L320 750H410L363 421H274Z" />
<glyph unicode="#" horiz-adv-x="750" d="M265 388L278 480L407 700H523L393 480H508L637 700H753L660 544L613 498Q606 491 606 486T617 480H729L716 388H265ZM25 0L117 156L165 202Q173 208 172 214T160 220H49L61 312H512L500 220L370 0H255L384 220H270L140 0H25Z" />
<glyph unicode="$" horiz-adv-x="536" d="M163 -150L190 45H288L260 -150H163ZM277 667L303 850H401L375 667H277ZM210 -10Q147 -10 95 9T7 56L44 148Q81 119 123 105T211 91Q254 91 286 109T337 156T355 218Q355 249 337 272T280 308L244 320Q203 333 168 356T112
416T91 503Q91 558 120 605T205 682T338 711Q389 711 434 696T515 658L483 569Q448 592 411 601T342 611Q292 611 261 595T214 554T199 504Q199 476 216 456T267 425L299 415Q379 390 420 342T463 218Q463 152 430 101T340 20T210 -10Z" />
<glyph unicode="%" horiz-adv-x="700" d="M54 0L384 454L535 700H672L346 251L191 0H54ZM501 -12Q468 -12 439 1T393 44T375 125Q375 185 394 233T448 309T534 337Q567 337 595 324T641 281T659 196Q659 135 640 88T585 15T501 -12ZM501 68Q531 68 548 86T573
133T581 197Q582 233 568 245T532 258Q502 258 485 239T461 189T453 125Q453 91 467 80T501 68ZM193 363Q159 363 130 375T84 418T67 500Q67 560 85 608T139 684T226 712Q258 712 286 699T333 656T351 571Q351 510 332 463T277 389T193 363ZM192 442Q223 442 240
460T265 508T273 572Q274 607 260 619T224 632Q194 632 177 613T152 564T145 500Q145 465 159 454T192 442Z" />
<glyph unicode="&amp;" horiz-adv-x="744" d="M271 -9Q233 -9 195 1T126 34T75 90T57 171Q57 232 90 274T175 334Q142 341 117 361T79 414T65 488Q66 549 98 599T191 680T335 711Q393 711 443 692T524 636T554 542Q554 527 551 511T543 476L437 461Q448 498 447
527Q446 558 429 576T386 603T329 611Q251 611 211 572T171 475Q171 438 188 417T233 387T295 378H404L390 282H287Q226 282 195 254T164 178Q165 138 196 114T281 90Q325 90 359 98T425 127L449 282H376L389 378H718L704 282H551L523 69Q490 46 452 28T369 1T271
-9Z" />
<glyph unicode="&apos;" horiz-adv-x="222" d="M90 421L136 750H226L179 421H90Z" />
<glyph unicode="(" horiz-adv-x="439" d="M257 -162Q161 -135 121 -72T81 90Q81 175 91 265T118 448T155 627Q173 694 206 742T287 822T395 864L424 769Q352 747 312 706T256 594Q237 506 222 421T197 256T187 97Q187 32 210 -10T301 -71L257 -162Z" />
<glyph unicode=")" horiz-adv-x="439" d="M71 -164L43 -69Q108 -51 152 -8T210 106Q230 199 246 288T271 460T281 614Q281 673 257 713T165 771L209 862Q306 835 347 774T387 614Q385 487 364 347T312 73Q287 -22 230 -81T71 -164Z" />
<glyph unicode="*" horiz-adv-x="518" d="M186 359L136 393L251 529H85L93 586H261L183 722L239 757L293 654L300 612Q301 604 307 604T317 612L336 655L418 757L468 722L352 586H520L511 529H342L420 393L365 359L312 460L304 501Q302 510 297 510T287 501L268
460L186 359Z" />
<glyph unicode="+" horiz-adv-x="588" d="M225 106L253 302H57L71 398H267L294 594H390L362 398H558L545 302H349L321 106H225Z" />
<glyph unicode="," horiz-adv-x="290" d="M-65 -198L-51 -142Q15 -134 57 -95T109 3L39 0L56 118H189L175 18Q165 -50 132 -96T47 -167T-65 -198Z" />
<glyph unicode="-" horiz-adv-x="338" d="M44 212L58 308H296L282 212H44Z" />
<glyph unicode="." horiz-adv-x="278" d="M47 0L63 120H177L160 0H47Z" />
<glyph unicode="/" horiz-adv-x="485" d="M-10 0L400 700H519L111 0H-10Z" />
<glyph unicode="0" horiz-adv-x="612" d="M266 262L290 438H372L347 262H266ZM281 -12Q206 -12 157 20T83 105T58 214Q58 262 64 317T81 428T108 530Q132 610 193 661T358 712Q434 712 483 680T557 595T582 486Q582 439 576 384T558 274T532 170Q508 90 447 39T281
-12ZM289 90Q336 90 372 115T427 196Q437 223 445 260T459 336T468 414T472 481Q472 542 441 576T350 610Q303 610 267 586T212 504Q203 478 195 441T181 363T172 284T168 219Q168 158 199 124T289 90Z" />
<glyph unicode="1" horiz-adv-x="354" d="M94 0L178 596H80L90 668L308 712L207 0H94Z" />
<glyph unicode="2" horiz-adv-x="546" d="M26 0L36 73Q47 148 82 201T186 293L285 352Q325 375 353 397T397 446T413 509Q413 563 377 588T284 613Q239 613 193 592T104 537L73 634Q117 669 169 690T286 712Q349 712 401 690T486 622T518 507Q518 463 504 429T464
366T407 315T337 270L239 215Q200 193 176 162T148 102H485L471 0H26Z" />
<glyph unicode="3" horiz-adv-x="532" d="M221 -9Q159 -9 105 9T7 68L52 155Q74 132 101 118T159 97T222 90Q276 90 310 107T361 154T377 218Q377 268 346 295T262 323H172L185 420H270Q334 420 368 446T402 527Q401 562 371 586T288 611Q247 611 209 599T131
559L106 651Q158 685 201 698T298 711Q335 711 372 701T441 670T491 615T509 534Q507 473 473 429T383 368Q415 355 437 333T471 281T483 212Q483 148 450 98T357 20T221 -9Z" />
<glyph unicode="4" horiz-adv-x="542" d="M308 0L334 189H20L26 242L298 700H418L166 283H347L378 500H484L454 283H514L501 189H441L414 0H308Z" />
<glyph unicode="5" horiz-adv-x="519" d="M209 -9Q141 -9 92 12T2 68L48 155Q77 124 118 107T211 89Q259 89 296 109T354 165T375 247Q373 303 340 332T251 362Q217 362 184 350T120 318L70 363L133 700H504L491 609H219L187 444Q186 435 190 433T201 432L240
449Q250 452 261 452T279 453Q340 453 385 429T455 359T480 253Q480 198 461 150T406 66T320 11T209 -9Z" />
<glyph unicode="6" horiz-adv-x="568" d="M255 -12Q192 -12 142 15T61 90T31 198Q31 254 56 319T138 452L343 700H473L266 461Q261 454 264 450T274 448L322 470Q331 472 338 473T353 474Q407 474 449 448T517 379T541 279Q540 218 518 165T457 73T366 11T255
-12ZM261 87Q309 87 348 111T411 177T434 269Q434 302 418 328T375 370T313 385Q264 385 225 361T162 297T138 205Q138 171 154 144T198 102T261 87Z" />
<glyph unicode="7" horiz-adv-x="501" d="M-6 0L363 600H46L60 700H512L504 636L386 450L357 416Q351 409 354 404T363 399H479L464 303H297L109 0H-6Z" />
<glyph unicode="8" horiz-adv-x="579" d="M280 -12Q209 -12 154 14T67 83T36 178Q36 214 46 242T72 290T105 323L194 351Q202 353 202 358T194 368Q172 381 152 402T118 452T105 513Q105 571 136 615T222 686T342 712Q406 712 454 686T529 617T556 526Q556 495
545 467T515 418T476 387L423 374Q415 373 415 368T421 358Q457 344 481 320T518 267T530 204Q530 140 497 91T407 15T280 -12ZM279 80Q322 80 354 95T405 138T423 199Q424 234 405 257T353 296T278 321Q244 318 213 302T162 259T142 193Q142 161 159 136T208 95T279
80ZM325 397Q386 412 418 446T451 523Q451 553 436 575T396 609T336 622Q301 622 273 608T228 569T211 510Q211 480 226 458T267 420T325 397Z" />
<glyph unicode="9" horiz-adv-x="568" d="M124 0L331 239Q337 246 334 251T323 252L276 230Q267 228 260 227T244 226Q191 226 148 252T81 322T56 421Q57 482 79 535T140 627T231 689T342 712Q405 712 456 685T536 610T566 502Q566 446 541 381T459 248L255 0H124ZM284
315Q334 315 373 339T436 404T459 495Q459 530 443 556T399 598T337 613Q288 613 249 589T187 523T164 431Q164 398 180 372T223 330T284 315Z" />
<glyph unicode=":" horiz-adv-x="278" d="M57 0L73 120H187L170 0H57ZM111 384L127 504H241L224 384H111Z" />
<glyph unicode=";" horiz-adv-x="290" d="M-65 -198L-51 -142Q15 -134 57 -95T109 3L39 0L56 118H189L175 18Q165 -50 132 -96T47 -167T-65 -198ZM95 384L111 504H225L208 384H95Z" />
<glyph unicode="&lt;" horiz-adv-x="540" d="M472 120L58 300L73 419L539 600L525 498L166 365Q158 362 158 356T165 347L486 220L472 120Z" />
<glyph unicode="=" horiz-adv-x="548" d="M72 413L85 504H533L520 413H72ZM42 196L55 287H503L490 196H42Z" />
<glyph unicode="&gt;" horiz-adv-x="540" d="M32 120L46 224L404 354Q413 357 413 363T406 372L85 501L99 600L513 418L497 299L32 120Z" />
<glyph unicode="?" horiz-adv-x="495" d="M124 221Q125 235 125 249T127 279Q132 307 144 328T178 366T235 398L286 420Q323 437 346 461T369 533Q369 562 353 579T311 603T257 611Q205 611 171 599T101 567L76 659Q119 684 165 697T263 711Q322 711 370 692T446
633T475 535Q475 484 460 450T421 394T371 357T322 332L281 313Q256 302 241 288T217 246L210 221H124ZM85 0L102 112H215L199 0H85Z" />
<glyph unicode="@" horiz-adv-x="708" d="M333 -120Q247 -120 184 -91T86 0T50 162Q50 257 73 341T141 492T255 595T412 633Q503 633 557 599T633 508T643 379L620 224L675 200L635 111L540 153Q511 133 473 121T398 108Q324 108 287 150T258 259Q268 327 318
362T441 397L546 400Q549 440 536 469T493 515T411 532Q345 532 297 500T219 416T173 299T158 171Q159 68 207 24T338 -21Q389 -21 428 -8T507 29L548 -52Q495 -86 444 -103T333 -120ZM414 195Q447 195 471 206T511 232T530 260L537 318Q538 325 535 326T523 326L471
315H440Q406 315 384 299T358 252Q355 227 370 211T414 195Z" />
<glyph unicode="A" horiz-adv-x="583" d="M-15 0L270 700H429L528 0H415L353 480L351 595Q351 603 345 604T336 598L100 0H-15ZM144 177L183 273H406L417 177H144ZM146 605L160 700H292L273 605H146Z" />
<glyph unicode="B" horiz-adv-x="574" d="M47 0L145 700H359Q447 700 498 654T549 528Q549 465 519 419T432 352Q472 334 497 293T522 203Q522 136 495 91T416 23T293 0H47ZM165 94H292Q417 94 417 210Q417 257 390 280T318 304H194L165 94ZM207 397H339Q392 397
418 431T445 514Q445 556 422 581T354 606H236L207 397Z" />
<glyph unicode="C" horiz-adv-x="503" d="M281 -12Q226 -12 184 7T114 58T72 131T58 214Q58 263 64 318T81 428T108 530Q132 611 193 661T358 712Q412 712 452 695T520 649L483 560Q460 585 429 598T353 611Q307 611 269 587T212 504Q204 480 196 443T182 365T172
285T168 218Q168 157 199 124T289 90Q328 90 359 103T414 136L445 39Q414 15 375 2T281 -12Z" />
<glyph unicode="D" horiz-adv-x="600" d="M47 0L145 700H337Q422 700 474 671T550 588T571 464Q568 406 559 341T536 218Q521 141 482 93T384 23T244 0H47ZM172 95H252Q304 95 339 110T398 159T434 245Q441 272 447 312T459 393T464 464Q466 507 454 538T412 587T329
605H243L172 95Z" />
<glyph unicode="E" horiz-adv-x="552" d="M47 0L145 700H559L544 598H235L207 399H500L486 301H194L166 102H475L460 0H47Z" />
<glyph unicode="F" horiz-adv-x="525" d="M47 0L145 700H552L538 598H244L217 401H488L474 299H202L160 0H47Z" />
<glyph unicode="G" horiz-adv-x="599" d="M284 -12Q213 -12 162 15T83 91T55 201Q55 239 60 292T76 400T96 498Q118 584 159 630T257 694T382 712Q438 712 483 695T561 649L517 561Q488 586 455 598T379 610Q334 610 299 598T238 555T199 464Q190 423 182 376T168
283T163 201Q164 152 195 122T284 91Q311 91 337 95T381 106L410 299H334L349 401H595L581 299H512L478 41Q440 17 394 3T284 -12Z" />
<glyph unicode="H" horiz-adv-x="628" d="M47 0L145 700H258L217 401H454L495 700H609L510 0H397L439 299H202L160 0H47Z" />
<glyph unicode="I" horiz-adv-x="431" d="M15 0L28 97H137L208 603H99L113 700H444L430 603H321L250 97H359L345 0H15Z" />
<glyph unicode="J" horiz-adv-x="460" d="M140 -12Q95 -12 54 3T-19 48L20 138Q45 112 77 102T142 91Q190 91 221 117T262 201L318 602H165L180 700H444L372 189Q359 89 296 39T140 -12Z" />
<glyph unicode="K" horiz-adv-x="557" d="M47 0L145 700H256L214 399H277L470 700H594L371 356L492 0H375L273 302H200L158 0H47Z" />
<glyph unicode="L" horiz-adv-x="449" d="M47 0L145 700H258L175 102H402L387 0H47Z" />
<glyph unicode="M" horiz-adv-x="676" d="M47 0L145 700H237L347 415Q350 407 357 407T370 415L562 700H657L559 0H451L502 361L530 462Q533 472 526 473T514 467L362 251H312L224 469Q221 477 215 476T208 464L206 368L154 0H47Z" />
<glyph unicode="N" horiz-adv-x="630" d="M47 0L145 700H238L433 211Q436 204 442 205T449 218L451 326L503 700H611L512 0H412L224 468Q220 477 214 475T207 462L203 349L154 0H47Z" />
<glyph unicode="O" horiz-adv-x="612" d="M281 -12Q206 -12 157 20T83 105T58 214Q58 262 64 317T81 428T108 530Q132 610 193 661T358 712Q434 712 483 680T557 595T582 486Q582 439 576 384T558 274T532 170Q508 90 447 39T281 -12ZM289 90Q336 90 372 115T427
196Q437 223 445 260T459 336T468 414T472 481Q472 542 441 576T350 610Q303 610 267 586T212 504Q203 478 195 441T181 363T172 284T168 219Q168 158 199 124T289 90Z" />
<glyph unicode="P" horiz-adv-x="564" d="M47 0L145 700H388Q445 700 485 677T548 614T570 525Q570 457 542 406T463 327T341 299H200L158 0H47ZM213 394H343Q401 394 434 425T467 522Q467 560 443 583T374 606H243L213 394Z" />
<glyph unicode="Q" horiz-adv-x="612" d="M364 -117L327 -9Q316 -10 304 -11T278 -12Q223 -12 182 7T114 60T72 136T57 223Q57 269 64 321T82 428T108 530Q132 611 193 661T360 712Q415 712 456 693T525 642T567 569T582 488Q582 439 576 384T559 273T532 170Q517
123 491 86T423 25L459 -76L364 -117ZM286 87Q300 87 308 91T316 102Q316 106 312 111T303 121L277 140L247 227L339 267L389 124Q403 136 414 152T432 192Q440 219 448 256T462 335T472 414T476 482Q476 543 443 577T351 611Q306 611 268 588T209 504Q201 478
193 441T179 364T168 286T164 222Q164 158 197 123T286 87Z" />
<glyph unicode="R" horiz-adv-x="578" d="M47 0L145 700H387Q448 700 490 676T555 611T578 517Q578 442 536 387T421 308Q404 303 410 289L440 227L490 0H375L308 299H200L158 0H47ZM213 394H352Q409 394 442 423T475 512Q475 560 448 583T375 606H243L213 394Z" />
<glyph unicode="S" horiz-adv-x="498" d="M200 -10Q137 -10 85 9T-3 56L34 148Q71 119 113 105T201 91Q244 91 276 109T327 156T345 218Q345 249 327 272T270 308L234 320Q193 333 158 356T102 416T81 503Q81 558 110 605T195 682T328 711Q379 711 424 696T505
658L473 569Q438 592 401 601T332 611Q282 611 251 595T204 554T189 504Q189 476 206 456T257 425L289 415Q369 390 410 342T453 218Q453 152 420 101T330 20T200 -10Z" />
<glyph unicode="T" horiz-adv-x="497" d="M156 0L240 598H75L89 700H534L519 598H353L269 0H156Z" />
<glyph unicode="U" horiz-adv-x="607" d="M278 -10Q208 -10 158 19T85 104T73 236L138 700H252L185 228Q175 159 203 126T283 92Q334 92 369 125T412 209L481 700H595L523 204Q514 140 481 92T396 17T278 -10Z" />
<glyph unicode="V" horiz-adv-x="546" d="M156 0L83 700H195L241 218L239 103Q239 94 245 93T255 101L473 700H589L322 0H156Z" />
<glyph unicode="W" horiz-adv-x="625" d="M85 0L86 700H186L189 311L178 207Q177 198 183 198T193 204L312 504H375L408 202Q409 194 415 194T423 204L441 303L557 700H657L463 0H352L325 273Q324 283 317 284T305 275L196 0H85Z" />
<glyph unicode="X" horiz-adv-x="541" d="M-15 0L202 350L92 700H207L261 498L268 419Q269 412 274 412T283 418L449 700H575L362 366L477 0H363L301 218L293 292Q293 299 288 299T279 292L110 0H-15Z" />
<glyph unicode="Y" horiz-adv-x="492" d="M155 0L198 301L64 700H182L242 510L254 411Q255 404 260 404T269 411L434 700H556L309 301L266 0H155Z" />
<glyph unicode="Z" horiz-adv-x="519" d="M7 0L15 68L325 518L391 594Q395 597 394 601T387 606H199L189 530H87L111 700H539L531 632L229 193L163 117Q159 112 160 107T166 102H457L442 0H7Z" />
<glyph unicode="[" horiz-adv-x="395" d="M30 -159L172 852H390L377 763H268L150 -70H260L248 -159H30Z" />
<glyph unicode="\" horiz-adv-x="470" d="M300 0L88 700H192L406 0H300Z" />
<glyph unicode="]" horiz-adv-x="395" d="M32 -159L45 -70H154L272 763H162L174 852H392L250 -159H32Z" />
<glyph unicode="^" horiz-adv-x="482" d="M35 350L244 750H373L472 350H362L314 592L309 658Q308 666 302 667T292 659L150 350H35Z" />
<glyph unicode="_" horiz-adv-x="548" d="M17 -250L27 -180H401L391 -250H17Z" />
<glyph unicode="`" horiz-adv-x="326" d="M215 591L121 750H229L323 591H215Z" />
<glyph unicode="a" horiz-adv-x="546" d="M203 -10Q177 -10 149 -2T96 25T56 79T40 165Q40 222 51 277T86 380Q119 443 174 478T301 514Q315 514 327 514T354 511L391 500Q398 499 407 500L481 508L427 110L486 80L441 -10L337 41Q328 46 323 39L307 22Q281 10
265 3T234 -7T203 -10ZM219 86Q231 86 242 89T273 102T324 131L364 416Q330 423 305 423Q258 423 224 401T172 340Q156 305 149 263T141 168Q141 123 164 105T219 86Z" />
<glyph unicode="b" horiz-adv-x="524" d="M226 -11Q210 -11 198 -10T171 -7L134 4Q127 5 118 4L43 -4L148 750H250L214 485Q213 477 217 475T229 475L292 509Q300 511 308 512T324 514Q366 514 402 497T462 442T485 342Q485 284 474 228T439 124Q407 61 352 25T226
-11ZM220 80Q265 80 299 102T352 164Q368 200 376 241T384 332Q384 366 373 384T344 410T309 418Q285 418 261 408T200 374L160 88Q177 84 190 82T220 80Z" />
<glyph unicode="c" horiz-adv-x="454" d="M226 -10Q167 -10 125 15T62 83T41 177Q41 214 46 251T62 326Q78 383 109 425T186 490T287 514Q336 514 371 503T438 471L404 390Q379 405 353 414T294 423Q240 423 206 389T157 301Q149 272 146 245T141 188Q140 157
150 133T181 94T234 79Q249 79 263 84T294 101T332 137L408 98Q363 34 317 12T226 -10Z" />
<glyph unicode="d" horiz-adv-x="546" d="M367 455L410 750H516L477 476L367 455ZM203 -10Q177 -10 149 -2T96 25T56 79T40 165Q40 222 51 277T86 380Q119 443 174 478T301 514Q315 514 327 514T354 511L391 500Q398 499 407 500L481 508L427 110L486 80L441 -10L337
41Q328 46 323 39L307 22Q281 10 265 3T234 -7T203 -10ZM219 86Q231 86 242 89T273 102T324 131L364 416Q330 423 305 423Q258 423 224 401T172 340Q156 305 149 263T141 168Q141 123 164 105T219 86Z" />
<glyph unicode="e" horiz-adv-x="490" d="M229 -10Q167 -10 125 15T62 83T41 177Q41 219 46 255T60 318Q76 381 109 425T188 491T289 514Q344 514 380 495T435 443T458 368T454 279L423 227H123L133 309H360Q373 366 353 396T287 426Q241 426 205 391T153 288Q149
267 146 246T141 191Q139 137 165 108T235 79Q264 79 288 92T341 137L420 98Q376 36 327 13T229 -10Z" />
<glyph unicode="f" horiz-adv-x="368" d="M64 0L122 413H26L40 504H135L145 578Q153 630 179 669T250 731T359 753Q389 753 415 747T466 728L434 647Q414 655 396 658T359 662Q312 662 283 636T248 559L241 504H362L348 413H228L170 0H64Z" />
<glyph unicode="g" horiz-adv-x="518" d="M161 -206Q108 -206 64 -190T-10 -149L22 -64Q51 -89 85 -102T165 -115Q220 -115 258 -88T304 -14L309 13Q311 22 306 25T293 24L228 -6Q220 -8 212 -9T195 -10Q168 -9 141 -1T91 26T54 78T40 165Q40 202 45 239T60 313T86
380Q119 443 174 478T301 514Q328 514 354 511L391 500Q398 499 407 500L481 508L411 27Q402 -39 378 -83T321 -155T247 -194T161 -206ZM213 86Q231 86 256 96T326 133L364 416Q348 420 335 421T305 423Q260 423 226 402T172 340Q156 304 149 263T141 171Q141 134
152 116T180 92T213 86Z" />
<glyph unicode="h" horiz-adv-x="541" d="M328 0L374 343Q379 381 364 399T316 418Q299 418 282 414T243 400T189 370L195 460Q228 481 251 493T296 509T347 514Q392 514 425 495T473 438T481 347L434 0H328ZM42 0L148 750H253L148 0H42Z" />
<glyph unicode="i" horiz-adv-x="281" d="M59 0L116 413H38L51 504H237L166 0H59ZM141 591L157 700H264L249 591H141Z" />
<glyph unicode="j" horiz-adv-x="303" d="M-20 -223L-43 -128Q4 -116 39 -83T82 9L139 413H61L74 504H260L189 6Q179 -64 149 -110T74 -184T-20 -223ZM163 591L179 700H286L271 591H163Z" />
<glyph unicode="k" horiz-adv-x="502" d="M42 0L148 750H255L195 326H244L364 504H487L341 290L431 0H316L250 233H182L149 0H42Z" />
<glyph unicode="l" horiz-adv-x="286" d="M161 0Q109 0 80 32T58 116L148 750H253L165 124Q163 108 169 101T189 94H234L221 0H161Z" />
<glyph unicode="m" horiz-adv-x="841" d="M58 0L118 441L158 369L48 423L93 514L196 463Q206 459 212 466L226 480Q263 501 291 508T355 515Q396 514 424 499T471 461Q479 451 489 462L502 476Q530 491 550 499T592 511T639 515Q690 514 724 491T772 429T780 340L733
0H627L674 344Q679 382 663 400T615 418Q594 418 573 412T523 389T449 343L505 408L449 0H343L390 346Q394 381 378 399T332 418Q310 418 290 412T241 391T166 346L224 427L164 0H58Z" />
<glyph unicode="n" horiz-adv-x="556" d="M58 0L119 447L167 364L48 423L93 514L196 463Q206 459 212 466L226 480Q261 501 288 508T353 515Q431 514 468 465T495 335L449 0H343L389 340Q395 382 378 400T330 418Q311 418 294 414T255 398T200 366L221 407L164 0H58Z" />
<glyph unicode="o" horiz-adv-x="514" d="M226 -11Q163 -11 122 16T61 87T41 179Q41 207 45 240T56 306T72 365Q96 434 151 474T286 515Q350 515 391 488T452 417T472 325Q472 298 469 264T458 198T441 140Q417 70 362 30T226 -11ZM233 79Q276 79 303 102T345
166Q353 183 358 210T367 267T371 320Q371 363 349 394T279 425Q237 425 210 402T168 339Q161 321 155 295T146 239T143 184Q143 141 164 110T233 79Z" />
<glyph unicode="p" horiz-adv-x="534" d="M26 -200L108 394L48 423L94 514L194 465Q203 460 209 467L224 483Q248 495 265 501T299 511T337 514Q364 514 391 507T442 480T480 427T494 338Q494 282 483 227T448 124Q416 61 361 26T233 -10Q220 -10 208 -9T180 -7L160
-2L132 -200H26ZM229 80Q276 80 310 103T362 164Q378 200 386 240T394 327Q394 365 384 385T356 411T319 418Q298 418 274 409T211 376L170 88Q204 80 229 80Z" />
<glyph unicode="q" horiz-adv-x="526" d="M281 -200L310 19Q312 27 307 30T295 29L233 -5Q225 -7 217 -8T201 -10Q162 -10 125 4T64 55T40 165Q40 222 51 277T86 380Q118 443 172 479T297 515Q314 515 327 514T354 511L391 500Q398 499 407 500L481 508L383 -200H281ZM213
86Q231 86 256 96T326 133L364 416Q348 420 335 421T305 423Q260 423 226 402T172 340Q156 305 149 264T141 171Q141 135 151 117T178 93T213 86Z" />
<glyph unicode="r" horiz-adv-x="404" d="M58 0L119 447L167 364L48 423L93 514L196 463Q206 459 212 466L226 480Q260 499 289 507T356 515Q376 514 392 511T422 502L394 403Q382 406 370 407T345 409Q323 409 303 406T259 390T200 356L221 407L164 0H58Z" />
<glyph unicode="s" horiz-adv-x="458" d="M204 -12Q148 -12 101 4T22 45L54 130Q85 105 123 93T205 80Q249 80 274 98T300 146Q300 171 288 185T245 210L201 224Q138 244 106 276T73 359Q73 408 97 443T164 497T264 516Q312 516 353 503T424 471L392 389Q365 406
332 415T259 424Q218 424 195 409T171 369Q171 349 182 337T219 317L262 302Q327 281 362 248T397 157Q397 103 373 66T305 8T204 -12Z" />
<glyph unicode="t" horiz-adv-x="369" d="M175 0Q123 0 95 32T73 116L114 413H26L39 504H121Q128 504 133 508T145 529T163 578L183 638H253L233 504H355L342 413H220L179 124Q177 108 183 101T203 94H291L278 0H175Z" />
<glyph unicode="u" horiz-adv-x="533" d="M184 -11Q113 -11 76 31T49 153L97 504H203L157 157Q152 120 169 103T220 85Q231 85 244 89T279 103T333 133L383 504H489L417 0H315L318 21Q319 29 314 31T302 30Q283 20 267 12T236 -4Q223 -7 210 -9T184 -11Z" />
<glyph unicode="v" horiz-adv-x="479" d="M127 0L61 504H167L201 190V91Q201 85 207 84T216 91L379 504H489L279 0H127Z" />
<glyph unicode="w" horiz-adv-x="619" d="M84 2L75 504H174L176 262L168 170Q167 160 173 160T184 169L309 504H379L408 170Q409 160 416 160T425 171L443 262L516 504H615L464 2H358L326 294Q325 305 319 305T309 294L191 2H84Z" />
<glyph unicode="x" horiz-adv-x="486" d="M-10 0L170 252L63 504H179L226 378L237 312Q239 305 243 305T252 312L377 504H496L317 252L423 0H308L264 124L251 190Q251 197 245 197T235 190L110 0H-10Z" />
<glyph unicode="y" horiz-adv-x="475" d="M21 -218L-2 -128Q51 -114 84 -91T138 -22L153 10L49 504H158L208 275L213 166Q214 158 219 158T229 166L369 504H481L242 -27Q205 -112 150 -158T21 -218Z" />
<glyph unicode="z" horiz-adv-x="454" d="M1 0L10 74L248 364L291 402Q296 407 295 410T288 414H59L72 504H434L425 430L189 142L144 101Q140 97 141 94T148 90H376L363 0H1Z" />
<glyph unicode="{" horiz-adv-x="508" d="M306 -159Q231 -159 191 -118T163 14L191 217Q197 253 181 274T128 296L96 297L110 395L137 396Q173 398 198 421T228 481L257 684Q270 774 318 812T442 851H503L490 764H443Q406 764 387 741T362 678L333 471Q328 430
321 411T300 374L245 355Q238 353 238 347T244 337L288 312Q300 293 301 270T296 211L268 8Q263 -32 273 -52T320 -72H373L361 -159H306Z" />
<glyph unicode="|" horiz-adv-x="316" d="M46 -150L186 850H298L157 -150H46Z" />
<glyph unicode="}" horiz-adv-x="508" d="M32 -159L45 -72H92Q130 -72 148 -49T173 14L201 213Q205 246 209 265T220 296T232 316L290 339Q296 341 296 347T290 357L243 382Q237 398 235 416T238 481L267 684Q272 724 262 744T214 764H162L174 851H229Q303 851
343 810T372 678L344 475Q333 399 407 396L439 395L424 297L398 296Q362 295 337 272T307 211L278 8Q265 -82 217 -120T93 -159H32Z" />
<glyph unicode="~" horiz-adv-x="600" d="M396 187Q357 187 332 195T288 215T248 234T198 243Q167 243 140 232T92 202V304Q119 318 146 324T202 331Q241 331 266 323T311 303T351 284T401 275Q433 275 459 286T508 316V215Q455 187 396 187Z" />
<glyph unicode="&#xa0;" horiz-adv-x="276" />
<glyph unicode="&#xa1;" horiz-adv-x="277" d="M185 286L139 -196H12L102 286H185ZM230 504L214 389H101L117 504H230Z" />
<glyph unicode="&#xa2;" horiz-adv-x="454" d="M222 476L242 618H346L326 476H222ZM139 -114L159 28H263L243 -114H139ZM226 -10Q167 -10 125 15T62 83T41 177Q41 214 46 251T62 326Q78 383 109 425T186 490T287 514Q336 514 371 503T438 471L404 390Q379 405
353 414T294 423Q240 423 206 389T157 301Q149 272 146 245T141 188Q140 157 150 133T181 94T234 79Q249 79 263 84T294 101T332 137L408 98Q363 34 317 12T226 -10Z" />
<glyph unicode="&#xa3;" horiz-adv-x="575" d="M29 0L39 93Q81 106 109 143T145 240L154 303H72L86 399H167L187 538Q194 588 222 627T298 689T413 712Q463 712 501 697T565 657L515 585Q497 605 471 613T419 621Q362 621 330 597T292 534L273 399H524L511 303H260L251
240Q244 197 230 165T197 113Q191 107 193 102T201 96H482L468 0H29Z" />
<glyph unicode="&#xa5;" horiz-adv-x="604" d="M73 196L86 287H534L521 196H73ZM103 413L116 504H206L235 413H103ZM420 413L475 504H564L551 413H420ZM213 0L256 301L122 700H240L300 510L312 411Q313 404 318 404T327 411L493 700H614L367 301L324 0H213Z" />
<glyph unicode="&#xa7;" horiz-adv-x="499" d="M216 -12Q161 -12 115 3T31 46L63 131Q83 113 108 102T162 86T216 80Q260 80 284 100T309 150Q309 168 298 184T250 213L199 230Q143 250 113 282T82 361Q82 398 102 436T172 497Q156 506 141 527T125 585Q125 629
149 663T216 716T312 735Q362 735 403 723T475 689L444 609Q420 624 385 634T314 644Q263 644 243 627T223 583Q223 560 246 548T298 525L342 509Q389 493 419 461T449 372Q449 351 441 327T416 281T372 245Q383 233 394 211T406 155Q406 109 384 72T320 11T216
-12ZM287 302Q321 302 337 323T353 372Q353 396 336 410T295 431T251 438Q213 438 196 418T179 372Q179 353 191 340T221 318T257 306T287 302Z" />
<glyph unicode="&#xa8;" horiz-adv-x="398" d="M281 591L297 700H399L383 591H281ZM97 591L113 700H215L199 591H97Z" />
<glyph unicode="&#xa9;" horiz-adv-x="943" d="M431 -66Q353 -66 288 -40T174 34T98 145T68 284Q68 384 104 470T206 622T356 723T538 760Q618 760 684 732T800 655T875 539T901 395Q901 301 864 218T762 71T612 -29T431 -66ZM433 9Q515 8 586 37T712 121T797
246T827 400Q827 481 790 545T687 648T537 686Q454 687 381 655T252 567T168 439T143 288Q145 209 182 146T285 46T433 9ZM451 86Q392 86 350 111T287 179T266 273Q266 310 271 347T287 422Q303 479 335 521T412 586T513 610Q561 610 596 599T663 567L629 486Q605
501 579 510T520 519Q465 519 432 485T382 397Q374 368 371 341T366 284Q366 253 376 229T407 190T459 175Q474 175 488 180T519 197T557 233L633 194Q588 130 542 108T451 86Z" />
<glyph unicode="&#xaa;" horiz-adv-x="446" d="M178 358Q149 358 116 371T59 418T35 509Q35 556 45 603T76 690Q104 742 153 772T262 802Q273 802 283 802T305 799L340 790Q345 789 353 790L416 796L369 461L420 436L381 359L291 401Q284 405 280 400L264 382Q234
367 217 363T178 358ZM192 448Q206 448 227 454T283 484L314 709Q287 715 265 715Q227 715 198 699T154 650Q141 620 134 589T126 515Q126 490 135 475T160 454T192 448Z" />
<glyph unicode="&#xab;" horiz-adv-x="560" d="M363 51L257 192L266 267L412 408H532L341 229Q336 225 336 219T341 210L375 187L479 51H363ZM142 51L36 192L45 267L191 408H311L120 229Q115 225 115 219T120 210L154 187L258 51H142Z" />
<glyph unicode="&#xac;" horiz-adv-x="588" d="M401 106L429 302H77L91 398H538L497 106H401Z" />
<glyph unicode="&#xae;" horiz-adv-x="943" d="M431 -66Q353 -66 288 -40T174 34T98 145T68 284Q68 384 104 470T206 622T356 723T538 760Q618 760 684 732T800 655T875 539T901 395Q901 301 864 218T762 71T612 -29T431 -66ZM433 9Q515 8 586 37T712 121T797
246T827 400Q827 481 790 545T687 648T537 686Q454 687 381 655T252 567T168 439T143 288Q145 209 182 146T285 46T433 9ZM284 97L355 597H545Q616 597 656 560T695 463Q695 428 681 396T641 339T583 305Q567 301 574 290L594 255L641 97H529L475 290H412L385 97H284ZM425
382H502Q524 382 542 390T571 414T583 456Q584 482 569 492T525 502H442L425 382Z" />
<glyph unicode="&#xaf;" horiz-adv-x="370" d="M99 597L110 678H380L369 597H99Z" />
<glyph unicode="&#xb0;" horiz-adv-x="482" d="M270 406Q230 406 196 419T142 464T122 547Q122 608 142 656T204 732T308 760Q346 760 380 747T434 702T453 615Q453 557 433 510T371 434T270 406ZM267 484Q304 484 325 503T355 553T366 618Q367 656 350 669T306
682Q269 682 249 663T219 612T210 545Q210 509 227 497T267 484Z" />
<glyph unicode="&#xb1;" horiz-adv-x="628" d="M254 167L277 333H81L95 429H291L314 595H410L387 429H583L569 333H373L350 167H254ZM55 1L69 97H516L502 1H55Z" />
<glyph unicode="&#xb2;" horiz-adv-x="382" d="M39 350L50 422Q58 473 87 505T171 564L213 586Q241 599 261 612T292 641T304 673Q304 699 285 712T234 726Q205 726 178 720T117 698L94 778Q135 798 169 804T243 811Q284 811 320 798T378 755T401 677Q401 650
391 628T363 587T321 553T269 523L225 502Q185 482 172 471T155 446L154 440H365L352 350H39Z" />
<glyph unicode="&#xb3;" horiz-adv-x="408" d="M212 344Q161 344 124 355T52 393L90 470Q115 448 144 439T205 430Q249 430 276 447T303 496Q303 513 287 525T234 537H171L183 617H239Q276 617 298 633T321 678Q321 702 302 713T252 725Q223 725 192 719T134 697L111
776Q148 797 184 803T258 810Q297 810 333 798T393 757T417 681Q417 642 395 617T337 578Q365 566 381 542T396 482Q396 449 380 423T337 379T277 353T212 344Z" />
<glyph unicode="&#xb4;" horiz-adv-x="326" d="M351 591L489 750H602L464 591H351Z" />
<glyph unicode="&#xb5;" horiz-adv-x="548" d="M18 -200L113 504H219L173 157Q168 120 185 103T236 85Q247 85 260 89T294 103T349 133L399 504H505L433 0H330L333 21Q335 29 330 31T318 30Q299 20 283 12T251 -4Q239 -7 226 -9T200 -11Q185 -11 172 -8T148 0L120
-200H18Z" />
<glyph unicode="&#xb6;" horiz-adv-x="674" d="M153 -250L227 255Q181 255 141 271T77 325T52 430Q52 509 77 569T154 665T284 700H670L656 604H576L456 -250H345L464 604H384L265 -250H153Z" />
<glyph unicode="&#xb7;" horiz-adv-x="278" d="M75 200L91 320H205L188 200H75Z" />
<glyph unicode="&#xb8;" horiz-adv-x="321" d="M-19 -254L5 -184Q62 -184 98 -170T137 -132Q140 -116 117 -112T37 -108L86 27L151 2L127 -48Q172 -54 196 -79T216 -142Q211 -179 178 -204T94 -242T-19 -254Z" />
<glyph unicode="&#xb9;" horiz-adv-x="308" d="M108 350L159 713H97L106 781L276 813L209 350H108Z" />
<glyph unicode="&#xba;" horiz-adv-x="464" d="M244 350Q190 350 154 372T99 430T80 510Q80 528 81 547T87 588Q89 607 93 626T103 665Q115 705 139 737T203 787T299 806Q354 806 390 785T445 727T464 648Q464 629 462 610T457 570Q454 552 450 533T440 492Q428
453 403 421T338 369T244 350ZM249 437Q288 437 311 458T344 514Q350 532 354 554T361 599T366 646Q367 678 349 699T295 720Q260 720 234 699T198 642Q193 623 189 602T182 558T178 513Q177 480 195 459T249 437Z" />
<glyph unicode="&#xbb;" horiz-adv-x="560" d="M242 51L434 230Q440 235 440 240T434 248L399 270L294 408H410L517 267L508 192L362 51H242ZM21 51L213 230Q219 235 219 240T213 248L178 270L73 408H189L296 267L287 192L141 51H21Z" />
<glyph unicode="&#xbc;" horiz-adv-x="980" d="M349 501L400 864H338L347 932L517 964L450 501H349ZM182 0L592 700H711L303 0H182ZM759 0L775 114H545L551 159L739 455H844L673 193H786L805 325H898L880 193H923L911 114H868L852 0H759Z" />
<glyph unicode="&#xbd;" horiz-adv-x="941" d="M349 501L400 864H338L347 932L517 964L450 501H349ZM182 0L592 700H711L303 0H182ZM549 0L560 72Q568 123 597 155T681 214L723 236Q751 249 771 262T802 291T814 323Q814 349 795 362T744 376Q715 376 688 370T627
348L604 428Q645 448 679 454T753 461Q794 461 830 448T888 405T911 327Q911 300 901 278T873 237T831 203T779 173L735 152Q695 132 682 121T665 96L664 90H875L862 0H549Z" />
<glyph unicode="&#xbe;" horiz-adv-x="1082" d="M453 495Q402 495 365 506T293 544L331 621Q356 599 385 590T446 581Q490 581 517 598T544 647Q544 664 528 676T475 688H412L424 768H480Q517 768 539 784T562 829Q562 853 543 864T493 876Q464 876 433 870T375
848L352 927Q389 948 425 954T499 961Q538 961 574 949T634 908T658 832Q658 793 636 768T578 729Q606 717 622 693T637 633Q637 600 621 574T578 530T518 504T453 495ZM284 0L694 700H813L405 0H284ZM861 0L877 114H647L653 159L841 455H946L775 193H888L907 325H1000L982
193H1025L1013 114H970L954 0H861Z" />
<glyph unicode="&#xbf;" horiz-adv-x="495" d="M359 283Q358 269 358 255T356 225Q352 198 340 177T305 139T248 106L197 84Q160 68 137 44T114 -29Q114 -58 130 -75T173 -99T226 -107Q278 -107 312 -95T382 -63L407 -155Q364 -180 318 -193T220 -207Q161 -207
113 -188T37 -129T8 -31Q8 20 23 54T62 110T112 147T161 172L202 191Q227 202 242 216T266 258L273 283H359ZM398 504L381 392H268L284 504H398Z" />
<glyph unicode="&#xc0;" horiz-adv-x="583" d="M-15 0L270 700H429L528 0H415L353 480L351 595Q351 603 345 604T336 598L100 0H-15ZM144 177L183 273H406L417 177H144ZM146 605L160 700H292L273 605H146ZM322 769L228 928H336L430 769H322Z" />
<glyph unicode="&#xc1;" horiz-adv-x="583" d="M-15 0L270 700H429L528 0H415L353 480L351 595Q351 603 345 604T336 598L100 0H-15ZM144 177L183 273H406L417 177H144ZM146 605L160 700H292L273 605H146ZM291 769L429 928H542L404 769H291Z" />
<glyph unicode="&#xc2;" horiz-adv-x="583" d="M-15 0L270 700H429L528 0H415L353 480L351 595Q351 603 345 604T336 598L100 0H-15ZM144 177L183 273H406L417 177H144ZM146 605L160 700H292L273 605H146ZM219 769L332 928H440L510 769H417L393 832L392 862Q391
869 388 870T379 863L317 769H219Z" />
<glyph unicode="&#xc3;" horiz-adv-x="583" d="M-15 0L270 700H429L528 0H415L353 480L351 595Q351 603 345 604T336 598L100 0H-15ZM144 177L183 273H406L417 177H144ZM146 605L160 700H292L273 605H146ZM231 757L211 830Q233 855 257 865T307 875Q344 875 364
866T399 848T437 838Q459 838 477 849T514 880L535 806Q512 781 488 771T438 761Q403 761 383 770T346 789T309 798Q286 798 268 787T231 757Z" />
<glyph unicode="&#xc4;" horiz-adv-x="583" d="M-15 0L270 700H429L528 0H415L353 480L351 595Q351 603 345 604T336 598L100 0H-15ZM144 177L183 273H406L417 177H144ZM146 605L160 700H292L273 605H146ZM409 769L425 878H527L511 769H409ZM225 769L241 878H343L327
769H225Z" />
<glyph unicode="&#xc5;" horiz-adv-x="583" d="M-15 0L270 700H429L528 0H415L353 480L351 595Q351 603 345 604T336 598L100 0H-15ZM144 177L183 273H406L417 177H144ZM146 605L160 700H292L273 605H146ZM369 745Q326 745 294 757T246 794T235 859Q241 895 262
917T317 949T389 959Q430 959 461 948T510 911T521 846Q516 809 494 787T440 755T369 745ZM369 805Q400 805 422 815T448 855Q452 881 434 890T385 899Q353 899 333 889T308 850Q305 823 322 814T369 805Z" />
<glyph unicode="&#xc6;" horiz-adv-x="848" d="M-15 0L230 600H146L160 700H855L841 600H532L504 399H796L782 301H490L462 102H771L757 0H343L368 177H170L100 0H-15ZM207 273H382L427 600H336L207 273Z" />
<glyph unicode="&#xc7;" horiz-adv-x="503" d="M281 -12Q226 -12 184 7T114 58T72 131T58 214Q58 263 64 318T81 428T108 530Q132 611 193 661T358 712Q412 712 452 695T520 649L483 560Q460 585 429 598T353 611Q307 611 269 587T212 504Q204 480 196 443T182
365T172 285T168 218Q168 157 199 124T289 90Q328 90 359 103T414 136L445 39Q414 15 375 2T281 -12ZM143 -254L167 -184Q224 -184 260 -170T299 -132Q302 -116 279 -112T199 -108L248 27L313 2L289 -48Q334 -54 358 -79T378 -142Q373 -179 340 -204T256 -242T143
-254Z" />
<glyph unicode="&#xc8;" horiz-adv-x="552" d="M47 0L145 700H559L544 598H235L207 399H500L486 301H194L166 102H475L460 0H47ZM325 769L231 928H339L433 769H325Z" />
<glyph unicode="&#xc9;" horiz-adv-x="552" d="M47 0L145 700H559L544 598H235L207 399H500L486 301H194L166 102H475L460 0H47ZM294 769L432 928H545L407 769H294Z" />
<glyph unicode="&#xca;" horiz-adv-x="552" d="M47 0L145 700H559L544 598H235L207 399H500L486 301H194L166 102H475L460 0H47ZM222 769L335 928H443L513 769H420L396 832L395 862Q394 869 391 870T382 863L320 769H222Z" />
<glyph unicode="&#xcb;" horiz-adv-x="552" d="M47 0L145 700H559L544 598H235L207 399H500L486 301H194L166 102H475L460 0H47ZM411 769L427 878H529L513 769H411ZM227 769L243 878H345L329 769H227Z" />
<glyph unicode="&#xcc;" horiz-adv-x="431" d="M15 0L28 97H137L208 603H99L113 700H444L430 603H321L250 97H359L345 0H15ZM245 769L151 928H259L353 769H245Z" />
<glyph unicode="&#xcd;" horiz-adv-x="431" d="M15 0L28 97H137L208 603H99L113 700H444L430 603H321L250 97H359L345 0H15ZM214 769L352 928H465L327 769H214Z" />
<glyph unicode="&#xce;" horiz-adv-x="431" d="M15 0L28 97H137L208 603H99L113 700H444L430 603H321L250 97H359L345 0H15ZM142 769L255 928H363L433 769H340L316 832L315 862Q314 869 311 870T302 863L240 769H142Z" />
<glyph unicode="&#xcf;" horiz-adv-x="431" d="M15 0L28 97H137L208 603H99L113 700H444L430 603H321L250 97H359L345 0H15ZM331 769L347 878H449L433 769H331ZM147 769L163 878H265L249 769H147Z" />
<glyph unicode="&#xd0;" horiz-adv-x="620" d="M-6 306L6 393H316L304 306H-6ZM67 0L165 700H357Q442 700 494 671T570 588T591 464Q588 406 579 341T556 218Q541 141 502 93T404 23T264 0H67ZM192 95H272Q324 95 359 110T418 159T454 245Q461 272 467 312T479
393T484 464Q486 507 474 538T432 587T349 605H263L192 95Z" />
<glyph unicode="&#xd1;" horiz-adv-x="630" d="M47 0L145 700H238L433 211Q436 204 442 205T449 218L451 326L503 700H611L512 0H412L224 468Q220 477 214 475T207 462L203 349L154 0H47ZM255 775L235 848Q257 873 281 883T331 893Q368 893 388 884T423 866T461
856Q483 856 501 867T538 898L559 824Q536 799 512 789T462 779Q427 779 407 788T370 807T333 816Q310 816 292 805T255 775Z" />
<glyph unicode="&#xd2;" horiz-adv-x="612" d="M281 -12Q206 -12 157 20T83 105T58 214Q58 262 64 317T81 428T108 530Q132 610 193 661T358 712Q434 712 483 680T557 595T582 486Q582 439 576 384T558 274T532 170Q508 90 447 39T281 -12ZM289 90Q336 90 372
115T427 196Q437 223 445 260T459 336T468 414T472 481Q472 542 441 576T350 610Q303 610 267 586T212 504Q203 478 195 441T181 363T172 284T168 219Q168 158 199 124T289 90ZM335 769L241 928H349L443 769H335Z" />
<glyph unicode="&#xd3;" horiz-adv-x="612" d="M281 -12Q206 -12 157 20T83 105T58 214Q58 262 64 317T81 428T108 530Q132 610 193 661T358 712Q434 712 483 680T557 595T582 486Q582 439 576 384T558 274T532 170Q508 90 447 39T281 -12ZM289 90Q336 90 372
115T427 196Q437 223 445 260T459 336T468 414T472 481Q472 542 441 576T350 610Q303 610 267 586T212 504Q203 478 195 441T181 363T172 284T168 219Q168 158 199 124T289 90ZM303 769L441 928H554L416 769H303Z" />
<glyph unicode="&#xd4;" horiz-adv-x="612" d="M281 -12Q206 -12 157 20T83 105T58 214Q58 262 64 317T81 428T108 530Q132 610 193 661T358 712Q434 712 483 680T557 595T582 486Q582 439 576 384T558 274T532 170Q508 90 447 39T281 -12ZM289 90Q336 90 372
115T427 196Q437 223 445 260T459 336T468 414T472 481Q472 542 441 576T350 610Q303 610 267 586T212 504Q203 478 195 441T181 363T172 284T168 219Q168 158 199 124T289 90ZM231 769L344 928H452L522 769H429L405 832L404 862Q403 869 400 870T391 863L329 769H231Z"
/>
<glyph unicode="&#xd5;" horiz-adv-x="612" d="M281 -12Q206 -12 157 20T83 105T58 214Q58 262 64 317T81 428T108 530Q132 610 193 661T358 712Q434 712 483 680T557 595T582 486Q582 439 576 384T558 274T532 170Q508 90 447 39T281 -12ZM289 90Q336 90 372
115T427 196Q437 223 445 260T459 336T468 414T472 481Q472 542 441 576T350 610Q303 610 267 586T212 504Q203 478 195 441T181 363T172 284T168 219Q168 158 199 124T289 90ZM244 757L224 830Q246 855 270 865T320 875Q357 875 377 866T412 848T450 838Q472 838
490 849T527 880L548 806Q525 781 501 771T451 761Q416 761 396 770T359 789T322 798Q299 798 281 787T244 757Z" />
<glyph unicode="&#xd6;" horiz-adv-x="612" d="M281 -12Q206 -12 157 20T83 105T58 214Q58 262 64 317T81 428T108 530Q132 610 193 661T358 712Q434 712 483 680T557 595T582 486Q582 439 576 384T558 274T532 170Q508 90 447 39T281 -12ZM289 90Q336 90 372
115T427 196Q437 223 445 260T459 336T468 414T472 481Q472 542 441 576T350 610Q303 610 267 586T212 504Q203 478 195 441T181 363T172 284T168 219Q168 158 199 124T289 90ZM421 769L437 878H539L523 769H421ZM237 769L253 878H355L339 769H237Z" />
<glyph unicode="&#xd7;" horiz-adv-x="556" d="M126 144L66 211L224 350L105 489L180 556L299 417L458 556L517 489L359 350L479 211L403 144L284 283L126 144Z" />
<glyph unicode="&#xd8;" horiz-adv-x="652" d="M301 -12Q226 -12 177 20T103 105T78 214Q78 262 84 317T101 428T128 530Q152 610 213 661T378 712Q454 712 503 680T577 595T602 486Q602 439 596 384T578 274T552 170Q528 90 467 39T301 -12ZM309 90Q356 90 392
115T447 196Q457 223 465 260T479 336T488 414T492 481Q492 542 461 576T370 610Q323 610 287 586T232 504Q223 478 215 441T201 363T192 284T188 219Q188 158 219 124T309 90ZM226 0L863 700H965L327 0H226Z" />
<glyph unicode="&#xd9;" horiz-adv-x="607" d="M278 -10Q208 -10 158 19T85 104T73 236L138 700H252L185 228Q175 159 203 126T283 92Q334 92 369 125T412 209L481 700H595L523 204Q514 140 481 92T396 17T278 -10ZM333 769L239 928H347L441 769H333Z" />
<glyph unicode="&#xda;" horiz-adv-x="607" d="M278 -10Q208 -10 158 19T85 104T73 236L138 700H252L185 228Q175 159 203 126T283 92Q334 92 369 125T412 209L481 700H595L523 204Q514 140 481 92T396 17T278 -10ZM302 769L440 928H553L415 769H302Z" />
<glyph unicode="&#xdb;" horiz-adv-x="607" d="M278 -10Q208 -10 158 19T85 104T73 236L138 700H252L185 228Q175 159 203 126T283 92Q334 92 369 125T412 209L481 700H595L523 204Q514 140 481 92T396 17T278 -10ZM229 769L342 928H450L520 769H427L403 832L402
862Q401 869 398 870T389 863L327 769H229Z" />
<glyph unicode="&#xdc;" horiz-adv-x="607" d="M278 -10Q208 -10 158 19T85 104T73 236L138 700H252L185 228Q175 159 203 126T283 92Q334 92 369 125T412 209L481 700H595L523 204Q514 140 481 92T396 17T278 -10ZM419 769L435 878H537L521 769H419ZM235 769L251
878H353L337 769H235Z" />
<glyph unicode="&#xdd;" horiz-adv-x="492" d="M155 0L198 301L64 700H182L242 510L254 411Q255 404 260 404T269 411L434 700H556L309 301L266 0H155ZM244 769L382 928H495L357 769H244Z" />
<glyph unicode="&#xde;" horiz-adv-x="564" d="M47 0L145 700H256L236 560H368Q425 560 466 537T529 474T551 384Q551 317 523 267T443 188T321 159H180L158 0H47ZM194 255H323Q382 255 414 286T447 375Q447 419 423 443T354 467H223L194 255Z" />
<glyph unicode="&#xdf;" horiz-adv-x="682" d="M428 -12Q372 -12 325 4T246 45L278 130Q309 105 347 93T429 80Q473 80 498 98T524 146Q524 171 512 185T469 210L425 224Q364 244 329 276T293 364Q293 423 333 458T442 510L476 518Q502 525 517 540T533 579Q533
608 503 635T407 662Q352 662 314 644T253 593T225 520L152 0H42L116 524Q126 591 162 642T261 723T410 753Q482 753 532 729T608 667T634 585Q634 522 596 486T491 431L455 421Q425 412 410 400T394 367Q394 349 405 338T442 317L491 301Q553 280 587 246T621
153Q621 101 597 64T529 8T428 -12Z" />
<glyph unicode="&#xe0;" horiz-adv-x="546" d="M203 -10Q177 -10 149 -2T96 25T56 79T40 165Q40 222 51 277T86 380Q119 443 174 478T301 514Q315 514 327 514T354 511L391 500Q398 499 407 500L481 508L427 110L486 80L441 -10L337 41Q328 46 323 39L307 22Q281
10 265 3T234 -7T203 -10ZM219 86Q231 86 242 89T273 102T324 131L364 416Q330 423 305 423Q258 423 224 401T172 340Q156 305 149 263T141 168Q141 123 164 105T219 86ZM291 591L197 750H305L399 591H291Z" />
<glyph unicode="&#xe1;" horiz-adv-x="546" d="M203 -10Q177 -10 149 -2T96 25T56 79T40 165Q40 222 51 277T86 380Q119 443 174 478T301 514Q315 514 327 514T354 511L391 500Q398 499 407 500L481 508L427 110L486 80L441 -10L337 41Q328 46 323 39L307 22Q281
10 265 3T234 -7T203 -10ZM219 86Q231 86 242 89T273 102T324 131L364 416Q330 423 305 423Q258 423 224 401T172 340Q156 305 149 263T141 168Q141 123 164 105T219 86ZM259 591L397 750H510L372 591H259Z" />
<glyph unicode="&#xe2;" horiz-adv-x="546" d="M203 -10Q177 -10 149 -2T96 25T56 79T40 165Q40 222 51 277T86 380Q119 443 174 478T301 514Q315 514 327 514T354 511L391 500Q398 499 407 500L481 508L427 110L486 80L441 -10L337 41Q328 46 323 39L307 22Q281
10 265 3T234 -7T203 -10ZM219 86Q231 86 242 89T273 102T324 131L364 416Q330 423 305 423Q258 423 224 401T172 340Q156 305 149 263T141 168Q141 123 164 105T219 86ZM187 591L300 750H408L478 591H385L361 654L360 684Q359 691 356 692T347 685L285 591H187Z"
/>
<glyph unicode="&#xe3;" horiz-adv-x="546" d="M203 -10Q177 -10 149 -2T96 25T56 79T40 165Q40 222 51 277T86 380Q119 443 174 478T301 514Q315 514 327 514T354 511L391 500Q398 499 407 500L481 508L427 110L486 80L441 -10L337 41Q328 46 323 39L307 22Q281
10 265 3T234 -7T203 -10ZM219 86Q231 86 242 89T273 102T324 131L364 416Q330 423 305 423Q258 423 224 401T172 340Q156 305 149 263T141 168Q141 123 164 105T219 86ZM199 579L179 652Q201 677 225 687T275 697Q312 697 332 688T367 670T405 660Q427 660 445
671T482 702L503 628Q480 603 456 593T406 583Q371 583 351 592T314 611T277 620Q254 620 236 609T199 579Z" />
<glyph unicode="&#xe4;" horiz-adv-x="546" d="M203 -10Q177 -10 149 -2T96 25T56 79T40 165Q40 222 51 277T86 380Q119 443 174 478T301 514Q315 514 327 514T354 511L391 500Q398 499 407 500L481 508L427 110L486 80L441 -10L337 41Q328 46 323 39L307 22Q281
10 265 3T234 -7T203 -10ZM219 86Q231 86 242 89T273 102T324 131L364 416Q330 423 305 423Q258 423 224 401T172 340Q156 305 149 263T141 168Q141 123 164 105T219 86ZM377 591L393 700H495L479 591H377ZM193 591L209 700H311L295 591H193Z" />
<glyph unicode="&#xe5;" horiz-adv-x="546" d="M203 -10Q177 -10 149 -2T96 25T56 79T40 165Q40 222 51 277T86 380Q119 443 174 478T301 514Q315 514 327 514T354 511L391 500Q398 499 407 500L481 508L427 110L486 80L441 -10L337 41Q328 46 323 39L307 22Q281
10 265 3T234 -7T203 -10ZM219 86Q231 86 242 89T273 102T324 131L364 416Q330 423 305 423Q258 423 224 401T172 340Q156 305 149 263T141 168Q141 123 164 105T219 86ZM337 567Q294 567 262 579T214 616T203 681Q209 717 230 739T285 771T357 781Q398 781 429
770T478 733T489 668Q484 631 462 609T408 577T337 567ZM337 627Q368 627 390 637T416 677Q420 703 402 712T353 721Q321 721 301 711T276 672Q273 645 290 636T337 627Z" />
<glyph unicode="&#xe6;" horiz-adv-x="761" d="M179 -10Q128 -10 93 9T41 63T31 141Q41 209 90 241T213 277L632 307Q636 331 635 352T626 390T602 416T559 425Q513 425 477 389T430 285Q425 255 422 235T418 196Q415 137 439 108T507 79Q538 79 560 91T614 137L693
98Q650 41 602 16T500 -10Q454 -10 419 6T359 49Q354 55 349 55T338 48L317 28Q280 11 259 3T221 -7T179 -10ZM187 74Q208 74 225 79T261 94T306 116L335 329Q341 374 320 399T245 424Q208 424 176 412T109 377L85 466Q127 493 169 504T254 516Q336 516 383 480L399
454Q408 439 419 453L442 479Q471 496 500 505T557 514Q633 514 673 482T725 396T725 276L697 233L214 199Q178 197 156 181T131 137Q127 110 144 92T187 74Z" />
<glyph unicode="&#xe7;" horiz-adv-x="454" d="M226 -10Q167 -10 125 15T62 83T41 177Q41 214 46 251T62 326Q78 383 109 425T186 490T287 514Q336 514 371 503T438 471L404 390Q379 405 353 414T294 423Q240 423 206 389T157 301Q149 272 146 245T141 188Q140
157 150 133T181 94T234 79Q249 79 263 84T294 101T332 137L408 98Q363 34 317 12T226 -10ZM69 -254L93 -184Q150 -184 186 -170T225 -132Q228 -116 205 -112T125 -108L174 27L239 2L215 -48Q260 -54 284 -79T304 -142Q299 -179 266 -204T182 -242T69 -254Z" />
<glyph unicode="&#xe8;" horiz-adv-x="490" d="M229 -10Q167 -10 125 15T62 83T41 177Q41 219 46 255T60 318Q76 381 109 425T188 491T289 514Q344 514 380 495T435 443T458 368T454 279L423 227H123L133 309H360Q373 366 353 396T287 426Q241 426 205 391T153
288Q149 267 146 246T141 191Q139 137 165 108T235 79Q264 79 288 92T341 137L420 98Q376 36 327 13T229 -10ZM253 591L159 750H267L361 591H253Z" />
<glyph unicode="&#xe9;" horiz-adv-x="490" d="M229 -10Q167 -10 125 15T62 83T41 177Q41 219 46 255T60 318Q76 381 109 425T188 491T289 514Q344 514 380 495T435 443T458 368T454 279L423 227H123L133 309H360Q373 366 353 396T287 426Q241 426 205 391T153
288Q149 267 146 246T141 191Q139 137 165 108T235 79Q264 79 288 92T341 137L420 98Q376 36 327 13T229 -10ZM222 591L360 750H473L335 591H222Z" />
<glyph unicode="&#xea;" horiz-adv-x="490" d="M229 -10Q167 -10 125 15T62 83T41 177Q41 219 46 255T60 318Q76 381 109 425T188 491T289 514Q344 514 380 495T435 443T458 368T454 279L423 227H123L133 309H360Q373 366 353 396T287 426Q241 426 205 391T153
288Q149 267 146 246T141 191Q139 137 165 108T235 79Q264 79 288 92T341 137L420 98Q376 36 327 13T229 -10ZM150 591L263 750H371L441 591H348L324 654L323 684Q322 691 319 692T310 685L248 591H150Z" />
<glyph unicode="&#xeb;" horiz-adv-x="490" d="M229 -10Q167 -10 125 15T62 83T41 177Q41 219 46 255T60 318Q76 381 109 425T188 491T289 514Q344 514 380 495T435 443T458 368T454 279L423 227H123L133 309H360Q373 366 353 396T287 426Q241 426 205 391T153
288Q149 267 146 246T141 191Q139 137 165 108T235 79Q264 79 288 92T341 137L420 98Q376 36 327 13T229 -10ZM340 591L356 700H458L442 591H340ZM156 591L172 700H274L258 591H156Z" />
<glyph unicode="&#xec;" horiz-adv-x="304" d="M81 0L138 413H60L74 504H259L188 0H81ZM413 591L319 750H427L521 591H413Z" />
<glyph unicode="&#xed;" horiz-adv-x="304" d="M81 0L138 413H60L74 504H259L188 0H81ZM125 591L263 750H376L238 591H125Z" />
<glyph unicode="&#xee;" horiz-adv-x="304" d="M81 0L138 413H60L74 504H259L188 0H81ZM309 591L422 750H530L600 591H507L483 654L482 684Q481 691 478 692T469 685L407 591H309Z" />
<glyph unicode="&#xef;" horiz-adv-x="306" d="M221 591L236 700H333L318 591H221ZM66 591L82 700H178L163 591H66ZM81 0L138 413H60L74 504H259L188 0H81Z" />
<glyph unicode="&#xf0;" horiz-adv-x="532" d="M226 -11Q163 -11 122 16T61 87T41 179Q41 207 45 240T56 306T72 365Q96 434 151 474T283 515Q298 515 313 512T339 503L366 469Q373 463 379 465T385 478Q385 509 369 544T329 612Q302 650 265 685T186 750H322Q350
729 377 701T430 634Q454 595 468 541T483 412Q483 368 479 320T465 226T441 140Q417 70 362 30T226 -11ZM233 79Q276 79 303 102T347 166Q354 183 360 210T369 267T372 320Q372 363 350 394T279 425Q237 425 210 402T168 339Q161 321 155 295T146 239T143 184Q143
141 164 110T233 79ZM165 548L144 623L514 724L535 647L165 548Z" />
<glyph unicode="&#xf1;" horiz-adv-x="556" d="M58 0L119 447L167 364L48 423L93 514L196 463Q206 459 212 466L226 480Q261 501 288 508T353 515Q431 514 468 465T495 335L449 0H343L389 340Q395 382 378 400T330 418Q311 418 294 414T255 398T200 366L221 407L164
0H58ZM209 579L189 652Q211 677 235 687T285 697Q322 697 342 688T377 670T415 660Q437 660 455 671T492 702L513 628Q490 603 466 593T416 583Q381 583 361 592T324 611T287 620Q264 620 246 609T209 579Z" />
<glyph unicode="&#xf2;" horiz-adv-x="514" d="M226 -11Q163 -11 122 16T61 87T41 179Q41 207 45 240T56 306T72 365Q96 434 151 474T286 515Q350 515 391 488T452 417T472 325Q472 298 469 264T458 198T441 140Q417 70 362 30T226 -11ZM233 79Q276 79 303 102T345
166Q353 183 358 210T367 267T371 320Q371 363 349 394T279 425Q237 425 210 402T168 339Q161 321 155 295T146 239T143 184Q143 141 164 110T233 79ZM263 591L169 750H277L371 591H263Z" />
<glyph unicode="&#xf3;" horiz-adv-x="514" d="M226 -11Q163 -11 122 16T61 87T41 179Q41 207 45 240T56 306T72 365Q96 434 151 474T286 515Q350 515 391 488T452 417T472 325Q472 298 469 264T458 198T441 140Q417 70 362 30T226 -11ZM233 79Q276 79 303 102T345
166Q353 183 358 210T367 267T371 320Q371 363 349 394T279 425Q237 425 210 402T168 339Q161 321 155 295T146 239T143 184Q143 141 164 110T233 79ZM231 591L369 750H482L344 591H231Z" />
<glyph unicode="&#xf4;" horiz-adv-x="514" d="M226 -11Q163 -11 122 16T61 87T41 179Q41 207 45 240T56 306T72 365Q96 434 151 474T286 515Q350 515 391 488T452 417T472 325Q472 298 469 264T458 198T441 140Q417 70 362 30T226 -11ZM233 79Q276 79 303 102T345
166Q353 183 358 210T367 267T371 320Q371 363 349 394T279 425Q237 425 210 402T168 339Q161 321 155 295T146 239T143 184Q143 141 164 110T233 79ZM159 591L272 750H380L450 591H357L333 654L332 684Q331 691 328 692T319 685L257 591H159Z" />
<glyph unicode="&#xf5;" horiz-adv-x="514" d="M226 -11Q163 -11 122 16T61 87T41 179Q41 207 45 240T56 306T72 365Q96 434 151 474T286 515Q350 515 391 488T452 417T472 325Q472 298 469 264T458 198T441 140Q417 70 362 30T226 -11ZM233 79Q276 79 303 102T345
166Q353 183 358 210T367 267T371 320Q371 363 349 394T279 425Q237 425 210 402T168 339Q161 321 155 295T146 239T143 184Q143 141 164 110T233 79ZM172 579L152 652Q174 677 198 687T248 697Q285 697 305 688T340 670T378 660Q400 660 418 671T455 702L476 628Q453
603 429 593T379 583Q344 583 324 592T287 611T250 620Q227 620 209 609T172 579Z" />
<glyph unicode="&#xf6;" horiz-adv-x="514" d="M226 -11Q163 -11 122 16T61 87T41 179Q41 207 45 240T56 306T72 365Q96 434 151 474T286 515Q350 515 391 488T452 417T472 325Q472 298 469 264T458 198T441 140Q417 70 362 30T226 -11ZM233 79Q276 79 303 102T345
166Q353 183 358 210T367 267T371 320Q371 363 349 394T279 425Q237 425 210 402T168 339Q161 321 155 295T146 239T143 184Q143 141 164 110T233 79ZM349 591L365 700H467L451 591H349ZM165 591L181 700H283L267 591H165Z" />
<glyph unicode="&#xf7;" horiz-adv-x="588" d="M57 302L71 398H543L529 302H57ZM206 82L223 202H336L319 82H206ZM265 498L281 618H395L378 498H265Z" />
<glyph unicode="&#xf8;" horiz-adv-x="514" d="M226 -11Q163 -11 122 16T61 87T41 179Q41 207 45 240T56 306T72 365Q96 434 151 474T286 515Q350 515 391 488T452 417T472 325Q472 298 469 264T458 198T441 140Q417 70 362 30T226 -11ZM233 79Q276 79 303 102T345
166Q353 183 358 210T367 267T371 320Q371 363 349 394T279 425Q237 425 210 402T168 339Q161 321 155 295T146 239T143 184Q143 141 164 110T233 79ZM235 0L694 504H795L336 0H235Z" />
<glyph unicode="&#xf9;" horiz-adv-x="533" d="M184 -11Q113 -11 76 31T49 153L97 504H203L157 157Q152 120 169 103T220 85Q231 85 244 89T279 103T333 133L383 504H489L417 0H315L318 21Q319 29 314 31T302 30Q283 20 267 12T236 -4Q223 -7 210 -9T184 -11ZM275
591L181 750H289L383 591H275Z" />
<glyph unicode="&#xfa;" horiz-adv-x="533" d="M184 -11Q113 -11 76 31T49 153L97 504H203L157 157Q152 120 169 103T220 85Q231 85 244 89T279 103T333 133L383 504H489L417 0H315L318 21Q319 29 314 31T302 30Q283 20 267 12T236 -4Q223 -7 210 -9T184 -11ZM243
591L381 750H494L356 591H243Z" />
<glyph unicode="&#xfb;" horiz-adv-x="533" d="M184 -11Q113 -11 76 31T49 153L97 504H203L157 157Q152 120 169 103T220 85Q231 85 244 89T279 103T333 133L383 504H489L417 0H315L318 21Q319 29 314 31T302 30Q283 20 267 12T236 -4Q223 -7 210 -9T184 -11ZM171
591L284 750H392L462 591H369L345 654L344 684Q343 691 340 692T331 685L269 591H171Z" />
<glyph unicode="&#xfc;" horiz-adv-x="533" d="M184 -11Q113 -11 76 31T49 153L97 504H203L157 157Q152 120 169 103T220 85Q231 85 244 89T279 103T333 133L383 504H489L417 0H315L318 21Q319 29 314 31T302 30Q283 20 267 12T236 -4Q223 -7 210 -9T184 -11ZM361
591L377 700H479L463 591H361ZM177 591L193 700H295L279 591H177Z" />
<glyph unicode="&#xfd;" horiz-adv-x="475" d="M21 -218L-2 -128Q51 -114 84 -91T138 -22L153 10L49 504H158L208 275L213 166Q214 158 219 158T229 166L369 504H481L242 -27Q205 -112 150 -158T21 -218ZM206 591L344 750H457L319 591H206Z" />
<glyph unicode="&#xfe;" horiz-adv-x="524" d="M15 -200L42 -4L103 432L142 700H241L207 477Q235 492 264 503T326 514Q353 514 380 507T431 480T469 427T483 338Q483 282 472 227T438 124Q405 61 350 26T222 -10Q199 -10 185 -8T149 -2L121 -200H15ZM219 80Q265
80 300 103T352 164Q368 200 375 240T383 327Q383 365 373 385T345 411T309 418Q287 418 263 409T200 376L160 88Q193 80 219 80Z" />
<glyph unicode="&#xff;" horiz-adv-x="475" d="M21 -218L-2 -128Q51 -114 84 -91T138 -22L153 10L49 504H158L208 275L213 166Q214 158 219 158T229 166L369 504H481L242 -27Q205 -112 150 -158T21 -218ZM324 591L340 700H442L426 591H324ZM140 591L156 700H258L242
591H140Z" />
<glyph unicode="&#x2013;" horiz-adv-x="564" d="M44 212L58 308H522L508 212H44Z" />
<glyph unicode="&#x2014;" horiz-adv-x="736" d="M44 212L58 308H694L680 212H44Z" />
<glyph unicode="&#x2018;" horiz-adv-x="215" d="M266 751L251 687Q202 676 170 641T129 551L198 554L181 436H49L61 524Q71 597 100 643T172 715T266 751Z" />
<glyph unicode="&#x2019;" horiz-adv-x="298" d="M60 436L74 499Q123 510 156 546T197 635L128 632L144 750H277L265 662Q255 590 226 543T154 471T60 436Z" />
<glyph unicode="&#x201a;" horiz-adv-x="290" d="M-65 -198L-51 -142Q15 -134 57 -95T109 3L39 0L56 118H189L175 18Q165 -50 132 -96T47 -167T-65 -198Z" />
<glyph unicode="&#x201c;" horiz-adv-x="488" d="M295 751L280 687Q231 676 199 641T158 551L221 554L204 436H78L90 524Q101 597 130 643T201 715T295 751ZM496 751L482 687Q433 676 401 641T359 551L422 554L406 436H279L291 524Q302 597 331 643T403 715T496 751Z" />
<glyph unicode="&#x201d;" horiz-adv-x="500" d="M261 436L276 499Q325 510 357 546T399 635L335 632L352 750H478L466 662Q456 590 427 543T355 471T261 436ZM60 436L74 499Q123 510 156 546T197 635L134 632L150 750H277L265 662Q255 590 226 543T154 471T60 436Z" />
<glyph unicode="&#x201e;" horiz-adv-x="455" d="M136 -196L151 -133Q200 -122 232 -86T274 3L210 0L227 118H353L341 30Q331 -42 302 -89T230 -161T136 -196ZM-65 -196L-51 -133Q-2 -122 31 -86T72 3L9 0L25 118H152L140 30Q130 -42 101 -89T29 -161T-65 -196Z" />
<glyph unicode="&#x2022;" horiz-adv-x="368" d="M186 231Q133 231 114 258T95 325Q95 393 121 433T208 473Q262 473 282 446T302 381Q302 314 275 273T186 231Z" />
<glyph unicode="&#x2039;" horiz-adv-x="338" d="M142 51L36 192L45 267L191 408H311L120 229Q115 225 115 219T120 210L154 187L258 51H142Z" />
<glyph unicode="&#x203a;" horiz-adv-x="338" d="M21 51L213 230Q219 235 219 240T213 248L178 270L73 408H189L296 267L287 192L141 51H21Z" />
</font>
</defs>
</svg>
