<?xml version="1.0" standalone="no"?>
<!DOCTYPE svg PUBLIC "-//W3C//DTD SVG 1.1//EN" "http://www.w3.org/Graphics/SVG/1.1/DTD/svg11.dtd">
<svg xmlns="http://www.w3.org/2000/svg">
<defs >
<font id="Finlandica" horiz-adv-x="526" ><font-face
    font-family="Finlandica Medium"
    units-per-em="1000"
    panose-1="0 0 0 0 0 0 0 0 0 0"
    ascent="950"
    descent="-250"
    alphabetic="0" />
<glyph unicode=" " horiz-adv-x="276" />
<glyph unicode="!" horiz-adv-x="277" d="M97 218L75 700H202L180 218H97ZM82 0V115H196V0H82Z" />
<glyph unicode="&quot;" horiz-adv-x="405" d="M66 421V750H156V421H66ZM250 421V750H340V421H250Z" />
<glyph unicode="#" horiz-adv-x="750" d="M107 388V480H246L345 700H459L361 480H476L575 700H689L617 544L578 499Q572 492 575 486T588 480H697V388H107ZM61 0L132 156L172 201Q178 208 175 214T161 220H53V312H642V220H503L404 0H291L389 220H273L174 0H61Z" />
<glyph unicode="$" horiz-adv-x="536" d="M229 -150V45H327V-150H229ZM229 667V850H327V667H229ZM255 -10Q193 -10 140 7T45 56L82 148Q120 120 162 106T251 91Q313 91 346 121T379 202Q379 244 355 274T277 311L234 316Q179 322 137 345T72 409T49 506Q49 566
77 612T158 685T288 711Q340 711 387 697T471 658L439 569Q403 592 365 601T290 611Q224 611 191 583T158 513Q158 469 182 447T248 420L293 415Q387 404 437 349T487 207Q487 142 460 93T381 17T255 -10Z" />
<glyph unicode="%" horiz-adv-x="700" d="M91 0L357 454L474 700H608L344 251L225 0H91ZM171 360Q117 360 87 386T45 452T32 536Q32 579 44 618T87 683T171 709Q225 709 255 684T297 619T310 536Q310 490 298 450T255 385T171 360ZM171 446Q206 446 216 472T226
533Q226 571 216 597T171 623Q136 623 126 597T116 533Q116 494 126 470T171 446ZM528 -10Q475 -10 445 16T403 82T390 166Q390 209 402 248T445 313T528 339Q583 339 613 314T655 249T668 166Q668 120 656 80T613 15T528 -10ZM528 76Q564 76 574 102T584 163Q584
201 574 227T528 253Q494 253 484 227T474 163Q474 124 484 100T528 76Z" />
<glyph unicode="&amp;" horiz-adv-x="679" d="M341 -12Q284 -12 234 -1T145 36T84 100T62 192Q62 236 77 266T116 318T167 352Q130 370 102 409T73 510Q73 566 95 604T153 666T231 700T312 711Q357 711 391 706T456 687T516 652L481 561Q448 588 407 599T316 611Q252
611 217 583T181 504Q181 454 209 427T289 399H339V302H289Q231 302 201 276T170 200Q170 146 214 118T341 90Q382 90 419 97T478 118V302H408V398H649V302H579V56Q534 26 478 8T341 -12Z" />
<glyph unicode="&apos;" horiz-adv-x="222" d="M66 421V750H156V421H66Z" />
<glyph unicode="(" horiz-adv-x="439" d="M312 -163Q212 -136 163 -77T102 80Q96 147 93 215T90 350Q90 417 93 485T102 620Q114 717 163 776T312 863L349 770Q278 752 245 710T207 600Q203 525 201 464T198 350Q198 297 200 236T207 99Q212 32 245 -10T349 -70L312
-163Z" />
<glyph unicode=")" horiz-adv-x="439" d="M126 -163L90 -70Q161 -52 194 -10T231 99Q236 175 238 236T240 350Q240 403 238 464T231 600Q227 668 194 710T90 770L126 863Q226 836 276 777T336 620Q343 553 346 485T349 350Q349 284 346 216T336 80Q326 -17 276
-76T126 -163Z" />
<glyph unicode="*" horiz-adv-x="518" d="M170 359L117 393L213 529H46V586H213L117 722L170 757L238 654L248 618Q253 608 259 608T270 618L281 655L348 757L401 722L305 586H472V529H305L401 393L348 359L281 460L270 495Q266 505 260 505T248 495L237 460L170 359Z" />
<glyph unicode="+" horiz-adv-x="588" d="M246 106V302H50V398H246V594H342V398H538V302H342V106H246Z" />
<glyph unicode="," horiz-adv-x="290" d="M-4 -198L7 -142Q72 -134 107 -97T144 0H75V118H207V21Q207 -47 180 -94T104 -167T-4 -198Z" />
<glyph unicode="-" horiz-adv-x="338" d="M50 212V308H288V212H50Z" />
<glyph unicode="." horiz-adv-x="278" d="M82 0V120H195V0H82Z" />
<glyph unicode="/" horiz-adv-x="485" d="M30 0L342 700H455L145 0H30Z" />
<glyph unicode="0" horiz-adv-x="612" d="M306 -12Q253 -12 208 4T130 54Q108 77 91 110T64 200T54 350Q54 443 63 500T90 590T130 646Q163 680 208 696T306 712Q359 712 404 696T481 646Q504 624 521 591T547 500T557 350Q557 257 548 200T521 110T481 54Q449
20 404 4T306 -12ZM306 89Q372 89 409 127T451 228Q454 262 455 291T456 350Q456 381 455 410T451 472Q447 536 410 573T306 611Q239 611 202 574T161 472Q158 439 157 410T155 350Q155 320 156 291T161 228Q164 165 201 127T306 89ZM258 262V438H354V262H258Z"
/>
<glyph unicode="1" horiz-adv-x="490" d="M53 0V97H206V596H46V655L320 712L319 97H468V0H53Z" />
<glyph unicode="2" horiz-adv-x="521" d="M50 0V123Q50 207 88 264T210 358L278 386Q324 404 347 432T370 506Q370 541 353 564T309 599T245 611Q204 611 163 601T83 565L49 654Q99 688 148 699T250 710Q288 710 328 699T401 664T455 602T476 510Q476 429 439
380T334 302L264 272Q217 251 195 226T165 176T158 133V102H474V0H50Z" />
<glyph unicode="3" horiz-adv-x="519" d="M245 -9Q182 -9 131 8T32 66L68 158Q104 123 146 107T234 91Q301 91 333 119T365 199Q365 246 336 274T246 302H158V398H246Q301 398 328 426T355 504Q355 554 323 582T233 611Q195 611 154 601T79 565L45 654Q92 686
138 698T238 711Q275 711 314 700T386 666T441 604T462 510Q462 467 448 436T411 383T361 351Q390 341 415 320T457 267T473 192Q473 138 453 100T400 37T327 2T245 -9Z" />
<glyph unicode="4" horiz-adv-x="548" d="M371 0V189H32V242L241 700H358L165 283H371V500H478V0H371Z" />
<glyph unicode="5" horiz-adv-x="529" d="M238 -9Q178 -9 131 7T46 52L81 144Q113 114 157 102T235 89Q302 89 343 124T383 222Q383 280 344 313T243 347Q211 347 183 337T126 304L75 344V700H454V609H178V428Q178 420 183 418T197 419L228 436Q237 440 246 440T263
441Q330 441 381 414T461 336T490 218Q490 149 459 98T372 19T238 -9Z" />
<glyph unicode="6" horiz-adv-x="566" d="M284 -12Q210 -12 156 17T72 98T42 219Q42 255 50 289T79 363T135 461L285 700H414L228 430Q221 420 225 414T240 414L285 438Q294 439 301 440T317 441Q368 441 415 416T493 342T524 219Q524 150 494 98T410 17T284 -12ZM284
87Q346 87 382 123T418 219Q418 279 382 315T284 351Q222 351 186 315T148 219Q148 159 184 123T284 87Z" />
<glyph unicode="7" horiz-adv-x="558" d="M89 0L234 303H71V399H280L378 600H51V700H503V636L420 460L385 417Q379 410 382 405T394 399H511V303H343L198 0H89Z" />
<glyph unicode="8" horiz-adv-x="573" d="M289 -12Q214 -12 159 14T73 86T42 193Q42 240 65 280T131 342L165 347Q176 348 177 354T168 364Q116 389 90 429T64 518Q64 575 91 618T168 687T286 712Q355 712 406 687T484 617T512 513Q512 475 493 441T442 385L412
379Q402 378 402 372T411 362Q469 338 499 293T530 194Q530 132 501 86T418 14T289 -12ZM290 80Q352 80 388 110T423 193Q423 241 377 274T252 320Q201 308 175 275T149 197Q150 142 187 111T290 80ZM316 403Q359 412 382 441T405 514Q404 565 372 593T286 622Q232
622 202 595T171 520Q172 473 211 443T316 403Z" />
<glyph unicode="9" horiz-adv-x="566" d="M153 0L338 270Q345 280 342 286T326 286L281 262Q273 261 265 260T250 259Q199 259 151 284T73 359T42 481Q42 551 72 602T157 683T283 712Q356 712 410 683T494 603T524 481Q524 445 516 411T488 337T431 239L281 0H153ZM283
349Q344 349 381 385T418 481Q419 541 382 577T283 613Q221 613 185 577T148 481Q148 421 184 385T283 349Z" />
<glyph unicode=":" horiz-adv-x="278" d="M92 0V120H205V0H92ZM92 384V504H205V384H92Z" />
<glyph unicode=";" horiz-adv-x="290" d="M-4 -198L7 -142Q72 -134 107 -97T144 0H75V118H207V21Q207 -47 180 -94T104 -167T-4 -198ZM82 384V504H195V384H82Z" />
<glyph unicode="&lt;" horiz-adv-x="540" d="M490 120L50 299V418L490 600V499L152 368Q145 365 145 360T152 351L490 224V120Z" />
<glyph unicode="=" horiz-adv-x="548" d="M50 413V504H498V413H50ZM50 196V287H498V196H50Z" />
<glyph unicode="&gt;" horiz-adv-x="540" d="M50 120V224L388 351Q396 354 396 359T388 368L50 499V600L490 418V299L50 120Z" />
<glyph unicode="?" horiz-adv-x="495" d="M146 218Q142 236 140 248T138 272Q138 318 160 346T232 396L278 417Q302 428 320 447T339 511Q339 548 322 569T276 601T215 611Q182 611 158 606T113 592T69 569L36 658Q75 683 120 697T218 711Q282 711 334 688T416
619T447 507Q447 454 428 421T380 367T320 331L284 314Q261 304 247 291T232 249V218H146ZM132 0V112H246V0H132Z" />
<glyph unicode="@" horiz-adv-x="708" d="M380 -120Q306 -120 247 -99T144 -34T79 83T56 257Q56 375 91 459T195 588T364 633Q454 633 512 600T599 510T628 382V224L669 155L585 106L551 154Q543 165 533 157Q509 136 483 122T413 108Q341 108 299 148T257 253Q257
300 278 332T337 380T424 397H525Q522 437 505 467T453 514T367 532Q302 532 257 504T188 416T164 256Q164 157 191 96T268 7T382 -21Q431 -21 467 -9T541 28L588 -50Q540 -85 491 -102T380 -120ZM428 195Q474 195 501 219T528 283V315Q528 332 510 327L462 315H428Q395
315 377 300T358 258Q358 230 377 213T428 195Z" />
<glyph unicode="A" horiz-adv-x="583" d="M30 0L216 700H376L563 0H449L312 544L304 601Q303 608 297 608T289 601L281 544L144 0H30ZM165 177L190 273H403L428 177H165ZM106 605V700H239L231 605H106Z" />
<glyph unicode="B" horiz-adv-x="574" d="M82 0V700H308Q405 700 458 651T512 510Q512 457 488 418T420 358Q471 341 499 297T528 193Q528 101 473 51T316 0H82ZM186 94H316Q368 94 396 120T424 196Q424 245 396 274T316 304H186V94ZM186 397H308Q356 397 382
426T408 504Q408 552 382 579T308 606H186V397Z" />
<glyph unicode="C" horiz-adv-x="503" d="M310 -12Q238 -12 184 14T97 92T60 216Q58 245 56 282T54 350Q54 382 56 418T60 484Q65 557 96 608T181 685T306 712Q352 712 391 697T467 653L435 564Q406 587 377 598T312 610Q248 610 212 575T172 475Q170 440 169
411T167 350Q167 319 168 290T172 225Q177 159 212 125T310 91Q346 91 376 103T434 137L467 45Q432 17 394 3T310 -12Z" />
<glyph unicode="D" horiz-adv-x="597" d="M82 0V700H273Q398 700 463 638T537 470Q539 443 540 411T542 350Q542 321 541 289T537 230Q529 124 464 62T273 0H82ZM194 95H273Q352 95 388 137T430 244Q433 276 433 299T434 350Q434 378 434 400T430 456Q425 521
389 563T273 605H194V95Z" />
<glyph unicode="E" horiz-adv-x="552" d="M82 0V700H496V598H186V399H479V301H186V102H496V0H82Z" />
<glyph unicode="F" horiz-adv-x="525" d="M82 0V700H489V598H195V401H467V299H195V0H82Z" />
<glyph unicode="G" horiz-adv-x="599" d="M315 -11Q200 -12 135 46T60 214Q58 243 56 281T54 350Q54 382 55 419T59 486Q71 600 140 656T322 712Q431 712 505 651L470 559Q437 587 402 598T322 610Q249 610 211 575T167 470Q165 438 164 410T162 350Q162 319 163
291T167 226Q172 163 208 128T311 91Q336 91 361 94T402 105V299H326V401H573V299H504V43Q469 18 424 4T315 -11Z" />
<glyph unicode="H" horiz-adv-x="628" d="M82 0V700H195V401H432V700H546V0H432V299H195V0H82Z" />
<glyph unicode="I" horiz-adv-x="431" d="M50 0V97H159V603H50V700H381V603H272V97H381V0H50Z" />
<glyph unicode="J" horiz-adv-x="460" d="M172 -12Q129 -12 87 2T10 46L44 138Q60 122 80 112T125 96T172 91Q217 90 243 113T269 180V602H117V700H381V180Q381 89 325 39T172 -12Z" />
<glyph unicode="K" horiz-adv-x="557" d="M82 0V700H193V399H261L409 700H530L355 358L529 0H409L261 302H193V0H82Z" />
<glyph unicode="L" horiz-adv-x="449" d="M82 0V700H195V102H423V0H82Z" />
<glyph unicode="M" horiz-adv-x="676" d="M82 0V700H176L328 412Q332 405 338 405T348 412L501 700H594V0H487V391L498 464Q500 471 495 473T484 468L362 251H311L192 468Q188 476 183 474T178 464L190 391V0H82Z" />
<glyph unicode="N" horiz-adv-x="630" d="M82 0V700H175L438 217Q443 210 448 213T453 223L440 298V700H548V0H448L193 465Q189 473 183 471T178 461L190 386V0H82Z" />
<glyph unicode="O" horiz-adv-x="612" d="M306 -12Q253 -12 208 4T130 54Q108 77 91 110T64 200T54 350Q54 443 63 500T90 590T130 646Q163 680 208 696T306 712Q359 712 404 696T481 646Q504 624 521 591T547 500T557 350Q557 257 548 200T521 110T481 54Q449
20 404 4T306 -12ZM306 91Q367 91 401 125T439 219Q441 257 442 288T444 350Q444 382 443 413T439 481Q435 540 401 574T306 609Q244 609 210 575T173 481Q170 444 169 413T167 350Q167 319 168 288T173 219Q176 160 210 126T306 91Z" />
<glyph unicode="P" horiz-adv-x="564" d="M82 0V700H332Q425 700 479 645T534 496Q534 405 480 352T332 299H193V0H82ZM193 394H326Q373 394 400 422T427 497Q427 549 400 577T326 606H193V394Z" />
<glyph unicode="Q" horiz-adv-x="612" d="M410 -117L356 -8Q345 -10 332 -11T306 -12Q253 -12 208 4T130 54Q108 77 91 110T64 200T54 350Q54 443 63 500T90 590T130 646Q163 680 208 696T306 712Q359 712 404 696T481 646Q504 624 521 591T547 500T557 350Q557
257 548 200T521 110T481 54Q474 46 465 40T447 27L501 -76L410 -117ZM301 87Q306 87 311 87T321 88Q331 90 332 97T326 110L286 141L246 227L333 267L402 126Q421 142 431 166T443 219Q445 257 446 288T448 350Q448 382 447 413T443 481Q439 541 404 575T306 610Q243
610 208 576T169 481Q166 444 165 413T163 350Q163 318 164 287T169 218Q171 180 187 150T232 104T301 87Z" />
<glyph unicode="R" horiz-adv-x="578" d="M82 0V700H323Q426 700 483 647T541 497Q541 428 507 380T411 311Q396 307 406 292L437 243L526 0H409L300 299H194V0H82ZM193 394H325Q377 394 406 421T436 497Q436 549 407 577T325 606H193V394Z" />
<glyph unicode="S" horiz-adv-x="510" d="M245 -10Q183 -10 130 7T35 56L72 148Q110 120 152 106T241 91Q303 91 336 121T369 202Q369 244 345 274T267 311L224 316Q169 322 127 345T62 409T39 506Q39 566 67 612T148 685T278 711Q330 711 377 697T461 658L429
569Q393 592 355 601T280 611Q214 611 181 583T148 513Q148 469 172 447T238 420L283 415Q377 404 427 349T477 207Q477 142 450 93T371 17T245 -10Z" />
<glyph unicode="T" horiz-adv-x="497" d="M191 0V598H26V700H471V598H305V0H191Z" />
<glyph unicode="U" horiz-adv-x="607" d="M303 -10Q236 -10 185 17T104 94T75 207V700H189L188 206Q188 155 220 124T303 92Q354 92 386 123T418 206V700H532L530 207Q530 143 502 94T422 18T303 -10Z" />
<glyph unicode="V" horiz-adv-x="546" d="M191 0L20 700H134L257 166L265 98Q266 91 272 91T280 98L287 166L413 700H526L352 0H191Z" />
<glyph unicode="W" horiz-adv-x="625" d="M124 0L27 700H127L190 278L191 205Q191 195 197 195T206 202L281 504H344L419 202Q421 194 427 194T434 205L435 278L498 700H598L501 0H395L322 285Q320 295 313 295T303 285L229 0H124Z" />
<glyph unicode="X" horiz-adv-x="541" d="M20 0L189 352L20 700H143L250 465L263 410Q265 403 270 403T278 410L290 465L397 700H521L351 352L521 0H397L290 239L278 294Q276 301 271 301T263 294L250 239L143 0H20Z" />
<glyph unicode="Y" horiz-adv-x="492" d="M190 0V301L0 700H120L227 467L239 411Q241 405 246 405T254 411L267 467L373 700H492L302 301V0H190Z" />
<glyph unicode="Z" horiz-adv-x="519" d="M41 0V68L311 552L345 593Q349 598 348 602T340 606H148V530H47V700H478V632L211 157L178 116Q173 111 174 107T182 102H478V0H41Z" />
<glyph unicode="[" horiz-adv-x="395" d="M90 -159V852H305V763H196V-70H305V-159H90Z" />
<glyph unicode="\" horiz-adv-x="485" d="M340 0L30 700H143L455 0H340Z" />
<glyph unicode="]" horiz-adv-x="395" d="M90 -159V-70H200V763H90V852H305V-159H90Z" />
<glyph unicode="^" horiz-adv-x="482" d="M22 350L175 750H304L460 350H347L260 607L248 659Q246 667 240 667T232 659L222 607L136 350H22Z" />
<glyph unicode="_" horiz-adv-x="548" d="M87 -250V-180H461V-250H87Z" />
<glyph unicode="`" horiz-adv-x="326" d="M166 591L50 750H161L276 591H166Z" />
<glyph unicode="a" horiz-adv-x="497" d="M372 -12L339 35Q331 46 322 37Q298 17 271 4T200 -10Q128 -10 86 30T44 135Q44 181 65 212T123 260T210 277H315V340Q315 379 291 401T217 423Q180 423 149 412T86 378L55 465Q93 491 134 503T224 516Q321 516 367 468T414
346V113L461 44L372 -12ZM215 73Q261 73 288 97T315 161V194Q315 210 297 205L249 194H214Q181 194 163 179T144 137Q144 110 163 92T215 73Z" />
<glyph unicode="b" horiz-adv-x="547" d="M124 -12L34 44L81 112V750H189V475Q208 492 239 503T304 515Q393 515 437 470T491 346Q494 320 495 298T496 253Q496 234 495 213T491 167Q484 86 435 38T296 -10Q257 -10 228 2T177 33Q163 43 154 31L124 -12ZM286 81Q337
81 359 107T385 169Q389 210 389 252T385 335Q382 372 359 397T286 423Q238 423 214 402T189 341V163Q189 126 214 104T286 81Z" />
<glyph unicode="c" horiz-adv-x="448" d="M264 -13Q171 -13 119 37T57 162Q51 212 51 252Q51 273 52 294T57 341Q67 417 119 466T263 516Q308 516 343 505T409 470L379 388Q353 405 327 414T267 424Q218 424 190 397T159 330Q156 286 156 251T159 173Q162 135
190 107T269 79Q299 79 327 87T384 114L412 35Q376 10 341 -1T264 -13Z" />
<glyph unicode="d" horiz-adv-x="541" d="M239 -10Q152 -10 107 36T55 159Q53 187 52 209T51 253Q51 276 52 298T55 346Q63 424 109 469T243 515Q277 515 308 505T358 479V750H466V0H358V20Q358 29 353 31T337 29L282 -5Q272 -7 263 -8T239 -10ZM261 80Q308 80
333 103T358 162V343Q358 380 334 401T261 423Q212 423 189 398T162 336Q158 295 158 253T162 168Q165 132 188 106T261 80Z" />
<glyph unicode="e" horiz-adv-x="494" d="M274 -10Q210 -10 164 12T91 74T57 162Q54 186 53 207T51 249Q51 289 57 338Q66 414 117 464T255 514Q314 514 352 494T413 441T444 365T453 279L433 227H99L98 309H353Q353 338 345 364T316 408T256 425Q208 425 183
396T155 322Q153 297 152 261T155 179Q160 133 190 106T274 79Q308 79 340 89T401 119L430 39Q392 13 356 2T274 -10Z" />
<glyph unicode="f" horiz-adv-x="375" d="M122 0V413H26V504H122V576Q122 626 145 666T214 730T329 753Q377 753 417 739T484 700L445 623Q422 643 396 652T340 662Q284 662 256 640T227 578V504H348V413H227V0H122Z" />
<glyph unicode="g" horiz-adv-x="538" d="M249 -207Q215 -207 188 -203T137 -189T85 -164L113 -82Q135 -95 154 -102T195 -113T248 -116Q298 -116 328 -93T358 -23V20Q358 30 353 32T339 29L281 -5Q270 -7 261 -8T235 -10Q154 -10 108 36T55 159Q53 187 52 209T51
253Q51 276 52 298T55 346Q62 424 108 469T243 515Q277 515 308 504T358 476V504H466V-23Q466 -70 443 -112T371 -180T249 -207ZM261 80Q308 80 333 102T358 162V343Q358 380 334 401T261 423Q211 423 189 398T162 336Q158 294 158 252T162 168Q165 131 187 106T261
80Z" />
<glyph unicode="h" horiz-adv-x="547" d="M77 0V750H183V479Q205 494 237 505T308 516Q356 516 394 498T453 444T475 361V0H368V331Q368 373 346 396T279 419Q231 419 207 396T183 331V0H77Z" />
<glyph unicode="i" horiz-adv-x="301" d="M116 0V413H38V504H224V0H116ZM116 591V700H224V591H116Z" />
<glyph unicode="j" horiz-adv-x="301" d="M52 -222L22 -129Q65 -117 90 -84T116 6V413H38V504H224V9Q224 -44 211 -83T174 -150T119 -196T52 -222ZM116 591V700H223V591H116Z" />
<glyph unicode="k" horiz-adv-x="495" d="M77 0V750H184V326H233L346 504H465L325 287L469 0H351L240 233H184V0H77Z" />
<glyph unicode="l" horiz-adv-x="287" d="M193 0Q141 0 109 31T77 113V750H183V123Q183 110 190 102T210 94H256V0H193Z" />
<glyph unicode="m" horiz-adv-x="837" d="M77 0V504H182V465Q199 483 233 499T312 516Q356 516 387 503T445 463Q462 480 485 492T536 510T592 516Q645 516 684 497T744 442T765 356V0H657V338Q657 377 636 398T564 419Q516 419 496 398T475 338V0H367V338Q367
377 345 398T281 419Q229 419 207 398T185 338V0H77Z" />
<glyph unicode="n" horiz-adv-x="549" d="M77 0V504H185V475Q207 493 238 504T308 516Q357 516 395 498T455 445T477 361V0H369V335Q369 375 348 397T278 419Q232 419 209 397T185 335V0H77Z" />
<glyph unicode="o" horiz-adv-x="525" d="M262 -11Q171 -11 119 38T57 163Q51 211 51 251Q51 272 52 294T57 341Q67 416 119 465T262 515Q354 515 406 466T468 341Q474 292 474 251Q474 211 468 163Q458 88 406 39T262 -11ZM262 79Q311 79 336 107T366 174Q370
216 370 251T366 329Q362 368 337 396T262 424Q215 424 189 396T159 329Q155 286 155 251T160 174Q164 136 189 108T262 79Z" />
<glyph unicode="p" horiz-adv-x="543" d="M77 -200V504H185V476Q204 493 235 504T300 515Q389 515 434 470T488 346Q490 320 491 298T492 253Q492 232 491 210T488 159Q481 82 436 36T304 -10Q290 -10 281 -9T261 -5L206 29Q197 34 191 31T185 19V-200H77ZM282
80Q333 80 355 106T381 168Q385 210 385 252T381 336Q378 372 355 397T282 423Q234 423 210 402T185 343V162Q185 126 210 103T282 80Z" />
<glyph unicode="q" horiz-adv-x="543" d="M358 -200V19Q358 28 353 31T339 29L282 -5Q272 -7 263 -8T239 -10Q152 -10 107 36T55 159Q53 187 52 209T51 253Q51 276 52 298T55 346Q63 424 109 469T243 515Q277 515 308 504T358 476V504H466V-200H358ZM261 80Q308
80 333 103T358 162V343Q358 380 334 401T261 423Q212 423 189 398T162 336Q158 295 158 253T162 168Q165 132 188 106T261 80Z" />
<glyph unicode="r" horiz-adv-x="373" d="M86 0V374L29 458L121 516L159 459Q165 451 171 451T184 458Q210 483 250 499T346 516H359V414Q272 414 232 384T192 300V0H86Z" />
<glyph unicode="s" horiz-adv-x="461" d="M231 -12Q179 -12 135 2T49 45L82 129Q110 110 134 100T181 84T231 79Q278 79 301 98T324 150Q324 174 307 191T254 210L197 214Q134 218 92 251T49 354Q49 429 100 472T238 516Q286 516 326 506T404 471L372 389Q345
407 313 416T239 425Q193 425 170 408T146 360Q146 336 163 323T207 307L264 303Q338 299 379 261T421 154Q421 79 371 34T231 -12Z" />
<glyph unicode="t" horiz-adv-x="355" d="M214 0Q162 0 130 31T98 113V414H14V504H85Q94 504 99 510T109 537T122 606L127 630H204V504H311V414H204V123Q204 110 211 102T231 94H315V0H214Z" />
<glyph unicode="u" horiz-adv-x="543" d="M232 -11Q184 -11 147 7T88 60T66 144V504H174V170Q174 130 195 108T264 86Q312 86 335 108T358 170V504H466V0H357V20Q357 29 352 31T337 29L281 -5Q262 -11 232 -11Z" />
<glyph unicode="v" horiz-adv-x="479" d="M162 0L26 504H135L225 148L232 88Q234 80 239 80T246 88L254 148L345 504H453L315 0H162Z" />
<glyph unicode="w" horiz-adv-x="619" d="M119 2L40 504H139L180 235L181 168Q182 158 188 158T197 166L278 504H341L422 166Q424 158 430 158T437 168L439 235L481 504H579L499 2H399L319 293Q317 303 310 303T300 293L220 2H119Z" />
<glyph unicode="x" horiz-adv-x="486" d="M26 0L170 252L26 504H144L221 357L236 311Q238 305 243 305T251 311L267 357L342 504H460L317 252L460 0H342L267 147L251 193Q249 199 244 199T236 193L221 147L144 0H26Z" />
<glyph unicode="y" horiz-adv-x="475" d="M88 -218L56 -124Q109 -113 136 -83T177 -9L191 38L16 504H127L224 227L234 158Q235 150 241 150T249 158L261 227L339 504H448L276 -46Q256 -113 208 -158T88 -218Z" />
<glyph unicode="z" horiz-adv-x="458" d="M48 0V70L249 367L281 398Q290 407 287 410T278 414H48V504H410V434L209 137L177 106Q168 97 171 94T180 90H410V0H48Z" />
<glyph unicode="{" horiz-adv-x="508" d="M361 -159Q286 -159 241 -119T196 11V214Q197 250 176 272T119 296L90 297V395L119 396Q155 398 176 420T196 478V681Q196 772 241 811T361 851H418V764H368Q331 764 317 743T302 681V474Q302 430 293 408T268 366L226
354Q217 351 217 346Q217 341 226 338L268 326Q284 306 293 284T302 214V11Q302 -29 316 -50T368 -72H418V-159H361Z" />
<glyph unicode="|" horiz-adv-x="316" d="M102 -150V850H214V-150H102Z" />
<glyph unicode="}" horiz-adv-x="508" d="M90 -159V-72H140Q178 -72 192 -51T206 11V210Q206 258 215 282T241 326L283 338Q292 341 292 346Q292 351 283 354L241 366Q224 386 215 409T206 478V681Q206 721 192 742T140 764H90V851H148Q222 851 267 812T312 681L313
478Q312 442 332 420T389 396L418 395V297L389 296Q353 295 333 273T313 214L312 11Q312 -79 267 -119T148 -159H90Z" />
<glyph unicode="~" horiz-adv-x="600" d="M396 187Q357 187 332 195T288 215T248 234T198 243Q167 243 140 232T91 202L44 272Q80 304 120 317T202 331Q241 331 266 323T311 303T351 284T401 275Q433 275 460 286T508 316L555 246Q520 216 480 202T396 187Z" />
<glyph unicode="&#xa0;" horiz-adv-x="276" />
<glyph unicode="&#xa1;" horiz-adv-x="277" d="M180 286L202 -196H75L97 286H180ZM195 504V389H81V504H195Z" />
<glyph unicode="&#xa2;" horiz-adv-x="448" d="M184 -114V0Q128 18 96 61T57 162Q51 212 51 252Q51 273 52 294T57 341Q64 399 96 442T184 504V618H287V515Q325 513 353 501T409 470L379 388Q353 405 327 414T267 424Q218 424 190 397T159 330Q156 286 156 251T159
173Q162 135 190 107T269 79Q299 79 327 87T384 114L412 35Q381 13 352 2T287 -12V-114H184Z" />
<glyph unicode="&#xa3;" horiz-adv-x="575" d="M64 0V92Q105 105 126 141T147 237V303H65V399H147V535Q147 586 170 626T239 689T354 712Q402 712 442 698T509 659L466 583Q445 603 420 612T365 621Q309 621 281 599T253 537V399H504V303H253V242Q252 199 244
168T220 118Q213 110 216 103T230 96H504V0H64Z" />
<glyph unicode="&#xa5;" horiz-adv-x="604" d="M246 0V196H81V287H248V297L194 413H81V504H151L56 700H176L283 467L295 411Q297 405 303 405T310 411L323 467L429 700H548L453 504H529V413H411L357 297V287H529V196H358V0H246Z" />
<glyph unicode="&#xa7;" horiz-adv-x="515" d="M252 -12Q200 -12 156 2T70 45L103 129Q131 110 155 100T202 84T252 79Q299 79 322 95T345 143Q345 168 328 185T275 204L218 208Q155 212 113 247T70 357Q70 392 81 419T114 467Q95 484 84 510T72 574Q72 648 123
692T262 736Q310 736 350 726T427 691L395 609Q368 627 336 636T262 645Q217 645 194 628T170 580Q170 551 186 537T230 521L287 517Q361 512 403 474T445 367Q445 297 398 255Q442 217 442 148Q442 73 392 31T252 -12ZM253 301Q302 301 324 314T347 363Q347 389
329 406T258 424Q207 423 187 407T167 363Q167 331 187 317T253 301Z" />
<glyph unicode="&#xa8;" horiz-adv-x="398" d="M234 591V700H336V591H234ZM50 591V700H152V591H50Z" />
<glyph unicode="&#xa9;" horiz-adv-x="966" d="M483 -66Q398 -66 323 -34T191 55T102 187T70 347Q70 433 102 507T191 639T323 728T483 760Q569 760 643 728T775 639T864 508T896 347Q896 262 864 187T775 55T644 -34T483 -66ZM483 80Q421 80 375 103T300 167T260
256Q254 281 252 302T250 345Q250 366 252 388T260 435Q271 484 300 523T374 586T481 610Q532 610 572 597T644 558L613 475Q588 495 556 506T486 518Q453 518 426 504T383 468T361 420Q354 379 354 345T361 270Q366 244 382 222T426 187T487 173Q522 173 557 184T618
213L647 135Q613 109 571 95T483 80ZM483 9Q553 9 614 35T722 107T795 215T822 347Q822 417 796 478T723 586T615 659T483 686Q413 686 352 660T245 587T172 479T145 347Q145 277 171 216T244 108T352 35T483 9Z" />
<glyph unicode="&#xaa;" horiz-adv-x="446" d="M328 356L301 394Q294 404 284 397Q265 381 241 370T181 358Q120 358 85 392T49 482Q49 541 89 572T192 604H277V653Q277 684 257 701T195 718Q165 718 139 709T86 681L56 761Q90 782 126 793T203 804Q288 804 328
762T369 657V461L406 401L328 356ZM198 434Q235 434 256 453T277 506V528Q277 541 261 537L223 528H195Q169 528 155 516T141 483Q141 463 157 449T198 434Z" />
<glyph unicode="&#xab;" horiz-adv-x="560" d="M391 51L265 192V267L391 408H509L382 266L339 237Q329 230 339 222L382 193L509 51H391ZM170 51L44 192V267L170 408H288L161 266L118 237Q108 230 118 222L161 193L288 51H170Z" />
<glyph unicode="&#xac;" horiz-adv-x="588" d="M422 106V302H70V398H518V106H422Z" />
<glyph unicode="&#xae;" horiz-adv-x="966" d="M483 -66Q398 -66 323 -34T191 55T102 187T70 347Q70 433 102 507T191 639T323 728T483 760Q569 760 643 728T775 639T864 508T896 347Q896 262 864 187T775 55T644 -34T483 -66ZM483 9Q553 9 614 35T722 107T795
215T822 347Q822 417 796 478T723 586T615 659T483 686Q413 686 352 660T245 587T172 479T145 347Q145 277 171 216T244 108T352 35T483 9ZM318 97V597H516Q594 597 636 554T679 447Q679 392 655 356T588 306Q579 303 586 293L606 260L676 97H563L481 290H419V97H318ZM419
382H499Q531 382 549 395T567 439Q567 473 549 487T499 502H419V382Z" />
<glyph unicode="&#xaf;" horiz-adv-x="370" d="M50 597V678H320V597H50Z" />
<glyph unicode="&#xb0;" horiz-adv-x="482" d="M242 406Q200 406 162 422T101 476T77 584Q77 653 101 691T164 745T242 760Q282 760 319 745T381 692T405 584Q405 514 381 476T320 422T242 406ZM240 484Q261 484 278 491T305 520T315 584Q315 625 306 646T279
674T240 682Q207 682 187 663T167 584Q167 542 177 521T204 492T240 484Z" />
<glyph unicode="&#xb1;" horiz-adv-x="628" d="M266 167V333H70V429H266V595H362V429H558V333H362V167H266ZM90 1V97H538V1H90Z" />
<glyph unicode="&#xb2;" horiz-adv-x="411" d="M49 350V439Q49 491 75 530T163 595L212 616Q243 629 256 643T269 676Q269 700 249 713T193 726Q167 726 138 721T78 700L50 776Q88 797 124 804T200 811Q238 811 276 798T341 756T367 678Q367 632 344 602T271 549L214
522Q185 510 170 497T150 473T145 452V440H363V350H49Z" />
<glyph unicode="&#xb3;" horiz-adv-x="409" d="M190 344Q144 344 106 354T32 392L63 473Q92 449 122 441T184 432Q225 432 246 446T267 485Q267 507 248 522T187 537H128V617H187Q225 617 242 631T260 669Q260 695 239 710T175 725Q153 725 125 720T69 699L41
775Q76 798 111 805T184 812Q223 812 262 799T328 756T354 678Q354 638 335 615T287 578Q322 563 342 540T362 478Q362 432 337 402T271 358T190 344Z" />
<glyph unicode="&#xb4;" horiz-adv-x="326" d="M305 591L421 750H531L416 591H305Z" />
<glyph unicode="&#xb5;" horiz-adv-x="551" d="M70 -165L69 504H177V170Q177 130 198 108T267 86Q315 86 338 108T361 170V504H469V0H360V20Q360 29 355 31T340 29L284 -5Q265 -11 235 -11Q219 -11 204 -9T177 -1V-165H70Z" />
<glyph unicode="&#xb6;" horiz-adv-x="685" d="M233 -250V255Q181 255 135 274T61 343T32 478Q32 543 49 586T95 654T160 689T233 700H616V604H536V-250H425V604H345V-250H233Z" />
<glyph unicode="&#xb7;" horiz-adv-x="278" d="M82 200V320H195V200H82Z" />
<glyph unicode="&#xb8;" horiz-adv-x="321" d="M50 -254L69 -184Q126 -184 158 -172T191 -139Q191 -120 167 -114T85 -108L118 27L186 2L173 -48Q218 -54 244 -77T271 -135Q271 -174 241 -200T161 -240T50 -254Z" />
<glyph unicode="&#xb9;" horiz-adv-x="382" d="M56 350V434H160V713H46V771L262 813L261 434H360V350H56Z" />
<glyph unicode="&#xba;" horiz-adv-x="464" d="M232 350Q154 350 109 393T56 501Q53 522 52 540T51 577Q51 596 52 615T56 655Q64 721 109 763T232 806Q310 806 356 764T408 655Q410 635 411 616T413 577Q413 559 412 541T408 501Q400 438 355 394T232 350ZM232
437Q269 437 288 459T310 513Q313 549 313 578T311 643Q308 675 289 698T232 722Q195 722 175 699T152 643Q149 607 150 578T153 514Q157 482 176 460T232 437Z" />
<glyph unicode="&#xbb;" horiz-adv-x="560" d="M272 51L398 193L441 222Q451 230 441 237L398 266L271 408H389L515 267V192L389 51H272ZM51 51L177 193L220 222Q230 230 220 237L177 266L50 408H168L294 267V192L168 51H51Z" />
<glyph unicode="&#xbc;" horiz-adv-x="1046" d="M56 501V585H160V864H46V922L262 964L261 585H360V501H56ZM322 0L634 700H747L437 0H322ZM883 0V114H647V159L794 455H897L763 193H883V325H976V0H883Z" />
<glyph unicode="&#xbd;" horiz-adv-x="1070" d="M56 501V585H160V864H46V922L262 964L261 585H360V501H56ZM322 0L634 700H747L437 0H322ZM708 0V89Q708 141 734 180T822 245L871 266Q902 279 915 293T928 326Q928 350 908 363T852 376Q826 376 797 371T737 350L709
426Q747 447 783 454T859 461Q897 461 935 448T1000 406T1026 328Q1026 282 1003 252T930 199L873 172Q844 160 829 147T809 123T804 102V90H1022V0H708Z" />
<glyph unicode="&#xbe;" horiz-adv-x="1036" d="M190 495Q144 495 106 505T32 543L63 624Q92 600 122 592T184 583Q225 583 246 597T267 636Q267 658 248 673T187 688H128V768H187Q225 768 242 782T260 820Q260 846 239 861T175 876Q153 876 125 871T69 850L41
926Q76 949 111 956T184 963Q223 963 262 950T328 907T354 829Q354 789 335 766T287 729Q322 714 342 691T362 629Q362 583 337 553T271 509T190 495ZM312 0L624 700H737L427 0H312ZM873 0V114H637V159L784 455H887L753 193H873V325H966V0H873Z" />
<glyph unicode="&#xbf;" horiz-adv-x="495" d="M337 286Q342 268 343 256T345 232Q345 187 323 158T251 108L205 87Q182 75 163 56T144 -7Q144 -43 161 -65T207 -97T268 -107Q301 -107 325 -102T371 -88T415 -65L447 -154Q408 -179 363 -193T265 -207Q201 -207
149 -184T67 -115T36 -3Q36 50 55 83T103 138T163 173L199 190Q223 200 237 213T251 255V286H337ZM351 504V392H237V504H351Z" />
<glyph unicode="&#xc0;" horiz-adv-x="583" d="M30 0L216 700H376L563 0H449L312 544L304 601Q303 608 297 608T289 601L281 544L144 0H30ZM165 177L190 273H403L428 177H165ZM106 605V700H239L231 605H106ZM256 769L140 928H251L366 769H256Z" />
<glyph unicode="&#xc1;" horiz-adv-x="583" d="M30 0L216 700H376L563 0H449L312 544L304 601Q303 608 297 608T289 601L281 544L144 0H30ZM165 177L190 273H403L428 177H165ZM106 605V700H239L231 605H106ZM220 769L336 928H446L331 769H220Z" />
<glyph unicode="&#xc2;" horiz-adv-x="583" d="M30 0L216 700H376L563 0H449L312 544L304 601Q303 608 297 608T289 601L281 544L144 0H30ZM165 177L190 273H403L428 177H165ZM106 605V700H239L231 605H106ZM148 769L239 928H347L439 769H343L310 832L299 866Q297
874 294 874T287 866L277 832L243 769H148Z" />
<glyph unicode="&#xc3;" horiz-adv-x="583" d="M30 0L216 700H376L563 0H449L312 544L304 601Q303 608 297 608T289 601L281 544L144 0H30ZM165 177L190 273H403L428 177H165ZM106 605V700H239L231 605H106ZM158 759L131 828Q150 853 173 864T225 875Q260 875
281 866T319 848T360 838Q381 838 397 848T429 877L455 808Q437 784 413 773T361 761Q327 761 306 770T267 789T227 798Q206 798 190 789T158 759Z" />
<glyph unicode="&#xc4;" horiz-adv-x="583" d="M30 0L216 700H376L563 0H449L312 544L304 601Q303 608 297 608T289 601L281 544L144 0H30ZM165 177L190 273H403L428 177H165ZM106 605V700H239L231 605H106ZM335 769V878H437V769H335ZM151 769V878H253V769H151Z" />
<glyph unicode="&#xc5;" horiz-adv-x="583" d="M30 0L216 700H376L563 0H449L312 544L304 601Q303 608 297 608T289 601L281 544L144 0H30ZM165 177L190 273H403L428 177H165ZM106 605V700H239L231 605H106ZM295 745Q257 745 224 755T171 788T150 852Q150 894
171 917T225 949T295 959Q330 959 363 950T416 917T437 852Q437 811 417 788T363 755T295 745ZM293 805Q322 805 342 813T363 853Q363 882 343 890T293 899Q262 899 243 891T224 852Q224 822 244 814T293 805Z" />
<glyph unicode="&#xc6;" horiz-adv-x="857" d="M30 0L190 600H106V700H801V600H492V399H784V301H492V102H801V0H388V177H188L144 0H30ZM212 273H388V600H295L212 273Z" />
<glyph unicode="&#xc7;" horiz-adv-x="503" d="M310 -12Q238 -12 184 14T97 92T60 216Q58 245 56 282T54 350Q54 382 56 418T60 484Q65 557 96 608T181 685T306 712Q352 712 391 697T467 653L435 564Q406 587 377 598T312 610Q248 610 212 575T172 475Q170 440
169 411T167 350Q167 319 168 290T172 225Q177 159 212 125T310 91Q346 91 376 103T434 137L467 45Q432 17 394 3T310 -12ZM179 -254L198 -184Q255 -184 287 -172T320 -139Q320 -120 296 -114T214 -108L247 27L315 2L302 -48Q347 -54 373 -77T400 -135Q400 -174
370 -200T290 -240T179 -254Z" />
<glyph unicode="&#xc8;" horiz-adv-x="552" d="M82 0V700H496V598H186V399H479V301H186V102H496V0H82ZM259 769L143 928H254L369 769H259Z" />
<glyph unicode="&#xc9;" horiz-adv-x="552" d="M82 0V700H496V598H186V399H479V301H186V102H496V0H82ZM223 769L339 928H449L334 769H223Z" />
<glyph unicode="&#xca;" horiz-adv-x="552" d="M82 0V700H496V598H186V399H479V301H186V102H496V0H82ZM151 769L242 928H350L442 769H346L313 832L302 866Q300 874 297 874T290 866L280 832L246 769H151Z" />
<glyph unicode="&#xcb;" horiz-adv-x="552" d="M82 0V700H496V598H186V399H479V301H186V102H496V0H82ZM337 769V878H439V769H337ZM153 769V878H255V769H153Z" />
<glyph unicode="&#xcc;" horiz-adv-x="431" d="M50 0V97H159V603H50V700H381V603H272V97H381V0H50ZM178 769L62 928H173L288 769H178Z" />
<glyph unicode="&#xcd;" horiz-adv-x="431" d="M50 0V97H159V603H50V700H381V603H272V97H381V0H50ZM142 769L258 928H368L253 769H142Z" />
<glyph unicode="&#xce;" horiz-adv-x="431" d="M50 0V97H159V603H50V700H381V603H272V97H381V0H50ZM70 769L161 928H269L361 769H265L232 832L221 866Q219 874 216 874T209 866L199 832L165 769H70Z" />
<glyph unicode="&#xcf;" horiz-adv-x="431" d="M50 0V97H159V603H50V700H381V603H272V97H381V0H50ZM257 769V878H359V769H257ZM73 769V878H175V769H73Z" />
<glyph unicode="&#xd0;" horiz-adv-x="617" d="M0 306V393H310V306H0ZM102 0V700H293Q418 700 483 638T557 470Q559 443 560 411T562 350Q562 321 561 289T557 230Q549 124 484 62T293 0H102ZM214 95H293Q372 95 408 137T450 244Q453 276 453 299T454 350Q454
378 454 400T450 456Q445 521 409 563T293 605H214V95Z" />
<glyph unicode="&#xd1;" horiz-adv-x="630" d="M82 0V700H175L438 217Q443 210 448 213T453 223L440 298V700H548V0H448L193 465Q189 473 183 471T178 461L190 386V0H82ZM180 777L153 846Q172 871 195 882T247 893Q282 893 303 884T341 866T382 856Q403 856 419
866T451 895L477 826Q459 802 435 791T383 779Q349 779 328 788T289 807T249 816Q228 816 212 807T180 777Z" />
<glyph unicode="&#xd2;" horiz-adv-x="612" d="M306 -12Q253 -12 208 4T130 54Q108 77 91 110T64 200T54 350Q54 443 63 500T90 590T130 646Q163 680 208 696T306 712Q359 712 404 696T481 646Q504 624 521 591T547 500T557 350Q557 257 548 200T521 110T481 54Q449
20 404 4T306 -12ZM306 91Q367 91 401 125T439 219Q441 257 442 288T444 350Q444 382 443 413T439 481Q435 540 401 574T306 609Q244 609 210 575T173 481Q170 444 169 413T167 350Q167 319 168 288T173 219Q176 160 210 126T306 91ZM268 769L152 928H263L378 769H268Z"
/>
<glyph unicode="&#xd3;" horiz-adv-x="612" d="M306 -12Q253 -12 208 4T130 54Q108 77 91 110T64 200T54 350Q54 443 63 500T90 590T130 646Q163 680 208 696T306 712Q359 712 404 696T481 646Q504 624 521 591T547 500T557 350Q557 257 548 200T521 110T481 54Q449
20 404 4T306 -12ZM306 91Q367 91 401 125T439 219Q441 257 442 288T444 350Q444 382 443 413T439 481Q435 540 401 574T306 609Q244 609 210 575T173 481Q170 444 169 413T167 350Q167 319 168 288T173 219Q176 160 210 126T306 91ZM232 769L348 928H458L343 769H232Z"
/>
<glyph unicode="&#xd4;" horiz-adv-x="612" d="M306 -12Q253 -12 208 4T130 54Q108 77 91 110T64 200T54 350Q54 443 63 500T90 590T130 646Q163 680 208 696T306 712Q359 712 404 696T481 646Q504 624 521 591T547 500T557 350Q557 257 548 200T521 110T481 54Q449
20 404 4T306 -12ZM306 91Q367 91 401 125T439 219Q441 257 442 288T444 350Q444 382 443 413T439 481Q435 540 401 574T306 609Q244 609 210 575T173 481Q170 444 169 413T167 350Q167 319 168 288T173 219Q176 160 210 126T306 91ZM160 769L251 928H359L451 769H355L322
832L311 866Q309 874 306 874T299 866L289 832L255 769H160Z" />
<glyph unicode="&#xd5;" horiz-adv-x="612" d="M306 -12Q253 -12 208 4T130 54Q108 77 91 110T64 200T54 350Q54 443 63 500T90 590T130 646Q163 680 208 696T306 712Q359 712 404 696T481 646Q504 624 521 591T547 500T557 350Q557 257 548 200T521 110T481 54Q449
20 404 4T306 -12ZM306 91Q367 91 401 125T439 219Q441 257 442 288T444 350Q444 382 443 413T439 481Q435 540 401 574T306 609Q244 609 210 575T173 481Q170 444 169 413T167 350Q167 319 168 288T173 219Q176 160 210 126T306 91ZM170 759L143 828Q162 853 185
864T237 875Q272 875 293 866T331 848T372 838Q393 838 409 848T441 877L467 808Q449 784 425 773T373 761Q339 761 318 770T279 789T239 798Q218 798 202 789T170 759Z" />
<glyph unicode="&#xd6;" horiz-adv-x="612" d="M306 -12Q253 -12 208 4T130 54Q108 77 91 110T64 200T54 350Q54 443 63 500T90 590T130 646Q163 680 208 696T306 712Q359 712 404 696T481 646Q504 624 521 591T547 500T557 350Q557 257 548 200T521 110T481 54Q449
20 404 4T306 -12ZM306 91Q367 91 401 125T439 219Q441 257 442 288T444 350Q444 382 443 413T439 481Q435 540 401 574T306 609Q244 609 210 575T173 481Q170 444 169 413T167 350Q167 319 168 288T173 219Q176 160 210 126T306 91ZM347 769V878H449V769H347ZM163
769V878H265V769H163Z" />
<glyph unicode="&#xd7;" horiz-adv-x="556" d="M139 144L72 211L211 350L72 489L139 556L278 417L417 556L484 489L346 350L484 211L417 144L278 283L139 144Z" />
<glyph unicode="&#xd8;" horiz-adv-x="612" d="M306 -12Q253 -12 208 4T130 54Q108 77 91 110T64 200T54 350Q54 443 63 500T90 590T130 646Q163 680 208 696T306 712Q359 712 404 696T481 646Q504 624 521 591T547 500T557 350Q557 257 548 200T521 110T481 54Q449
20 404 4T306 -12ZM306 91Q367 91 401 125T439 219Q441 257 442 288T444 350Q444 382 443 413T439 481Q435 540 401 574T306 609Q244 609 210 575T173 481Q170 444 169 413T167 350Q167 319 168 288T173 219Q176 160 210 126T306 91ZM242 0L782 700H881L341 0H242Z"
/>
<glyph unicode="&#xd9;" horiz-adv-x="607" d="M303 -10Q236 -10 185 17T104 94T75 207V700H189L188 206Q188 155 220 124T303 92Q354 92 386 123T418 206V700H532L530 207Q530 143 502 94T422 18T303 -10ZM266 769L150 928H261L376 769H266Z" />
<glyph unicode="&#xda;" horiz-adv-x="607" d="M303 -10Q236 -10 185 17T104 94T75 207V700H189L188 206Q188 155 220 124T303 92Q354 92 386 123T418 206V700H532L530 207Q530 143 502 94T422 18T303 -10ZM230 769L346 928H456L341 769H230Z" />
<glyph unicode="&#xdb;" horiz-adv-x="607" d="M303 -10Q236 -10 185 17T104 94T75 207V700H189L188 206Q188 155 220 124T303 92Q354 92 386 123T418 206V700H532L530 207Q530 143 502 94T422 18T303 -10ZM158 769L249 928H357L449 769H353L320 832L309 866Q307
874 304 874T297 866L287 832L253 769H158Z" />
<glyph unicode="&#xdc;" horiz-adv-x="607" d="M303 -10Q236 -10 185 17T104 94T75 207V700H189L188 206Q188 155 220 124T303 92Q354 92 386 123T418 206V700H532L530 207Q530 143 502 94T422 18T303 -10ZM345 769V878H447V769H345ZM161 769V878H263V769H161Z" />
<glyph unicode="&#xdd;" horiz-adv-x="492" d="M190 0V301L0 700H120L227 467L239 411Q241 405 246 405T254 411L267 467L373 700H492L302 301V0H190ZM173 769L289 928H399L284 769H173Z" />
<glyph unicode="&#xde;" horiz-adv-x="564" d="M82 0V700H193V561H332Q425 561 479 506T534 357Q534 266 480 213T332 159H193V0H82ZM193 255H326Q373 255 400 282T427 358Q427 409 400 438T326 467H193V255Z" />
<glyph unicode="&#xdf;" horiz-adv-x="685" d="M454 -12Q402 -12 358 2T272 45L305 129Q333 110 356 100T403 84T452 79Q499 79 522 98T545 150Q545 174 527 191T475 210L423 214Q357 218 315 251T272 355Q272 414 305 451T399 507L434 517Q461 525 473 541T485
578Q485 597 471 615T426 646T346 658Q267 658 227 624T187 530V0H77V528Q77 592 107 643T197 723T345 753Q429 753 482 728T561 664T587 580Q587 527 555 489T464 432L427 420Q399 411 386 397T373 361Q373 336 389 323T434 307L487 303Q561 299 603 261T645 154Q645
79 594 34T454 -12Z" />
<glyph unicode="&#xe0;" horiz-adv-x="497" d="M372 -12L339 35Q331 46 322 37Q298 17 271 4T200 -10Q128 -10 86 30T44 135Q44 181 65 212T123 260T210 277H315V340Q315 379 291 401T217 423Q180 423 149 412T86 378L55 465Q93 491 134 503T224 516Q321 516 367
468T414 346V113L461 44L372 -12ZM215 73Q261 73 288 97T315 161V194Q315 210 297 205L249 194H214Q181 194 163 179T144 137Q144 110 163 92T215 73ZM209 591L93 750H204L319 591H209Z" />
<glyph unicode="&#xe1;" horiz-adv-x="497" d="M372 -12L339 35Q331 46 322 37Q298 17 271 4T200 -10Q128 -10 86 30T44 135Q44 181 65 212T123 260T210 277H315V340Q315 379 291 401T217 423Q180 423 149 412T86 378L55 465Q93 491 134 503T224 516Q321 516 367
468T414 346V113L461 44L372 -12ZM215 73Q261 73 288 97T315 161V194Q315 210 297 205L249 194H214Q181 194 163 179T144 137Q144 110 163 92T215 73ZM173 591L289 750H399L284 591H173Z" />
<glyph unicode="&#xe2;" horiz-adv-x="497" d="M372 -12L339 35Q331 46 322 37Q298 17 271 4T200 -10Q128 -10 86 30T44 135Q44 181 65 212T123 260T210 277H315V340Q315 379 291 401T217 423Q180 423 149 412T86 378L55 465Q93 491 134 503T224 516Q321 516 367
468T414 346V113L461 44L372 -12ZM215 73Q261 73 288 97T315 161V194Q315 210 297 205L249 194H214Q181 194 163 179T144 137Q144 110 163 92T215 73ZM101 591L192 750H300L392 591H296L263 654L252 688Q250 696 247 696T240 688L230 654L196 591H101Z" />
<glyph unicode="&#xe3;" horiz-adv-x="497" d="M372 -12L339 35Q331 46 322 37Q298 17 271 4T200 -10Q128 -10 86 30T44 135Q44 181 65 212T123 260T210 277H315V340Q315 379 291 401T217 423Q180 423 149 412T86 378L55 465Q93 491 134 503T224 516Q321 516 367
468T414 346V113L461 44L372 -12ZM215 73Q261 73 288 97T315 161V194Q315 210 297 205L249 194H214Q181 194 163 179T144 137Q144 110 163 92T215 73ZM112 581L85 650Q104 675 127 686T179 697Q214 697 235 688T273 670T314 660Q335 660 351 670T383 699L409 630Q391
606 367 595T315 583Q281 583 260 592T221 611T181 620Q160 620 144 611T112 581Z" />
<glyph unicode="&#xe4;" horiz-adv-x="497" d="M372 -12L339 35Q331 46 322 37Q298 17 271 4T200 -10Q128 -10 86 30T44 135Q44 181 65 212T123 260T210 277H315V340Q315 379 291 401T217 423Q180 423 149 412T86 378L55 465Q93 491 134 503T224 516Q321 516 367
468T414 346V113L461 44L372 -12ZM215 73Q261 73 288 97T315 161V194Q315 210 297 205L249 194H214Q181 194 163 179T144 137Q144 110 163 92T215 73ZM288 591V700H390V591H288ZM104 591V700H206V591H104Z" />
<glyph unicode="&#xe5;" horiz-adv-x="497" d="M372 -12L339 35Q331 46 322 37Q298 17 271 4T200 -10Q128 -10 86 30T44 135Q44 181 65 212T123 260T210 277H315V340Q315 379 291 401T217 423Q180 423 149 412T86 378L55 465Q93 491 134 503T224 516Q321 516 367
468T414 346V113L461 44L372 -12ZM215 73Q261 73 288 97T315 161V194Q315 210 297 205L249 194H214Q181 194 163 179T144 137Q144 110 163 92T215 73ZM248 567Q210 567 177 577T124 610T103 674Q103 716 124 739T178 771T248 781Q283 781 316 772T369 739T390 674Q390
633 370 610T316 577T248 567ZM246 627Q275 627 295 635T316 675Q316 704 296 712T246 721Q215 721 196 713T177 674Q177 644 197 636T246 627Z" />
<glyph unicode="&#xe6;" horiz-adv-x="759" d="M204 -10Q130 -10 87 30T44 135Q44 181 65 212T123 260T210 277H315V340Q315 379 291 401T217 423Q180 423 149 412T86 378L55 465Q93 491 134 503T224 516Q265 516 295 507T349 480L369 456Q377 446 384 456L403
479Q426 495 455 504T520 514Q578 514 616 494T677 441T708 365T717 279L697 227H417Q417 154 444 117T538 79Q573 79 604 89T665 119L695 39Q656 13 621 2T538 -10Q490 -10 453 3T388 39L373 60Q365 71 358 60L344 39Q313 13 277 2T204 -10ZM215 73Q261 73 288
97T315 161V194Q315 210 297 205L249 194H214Q181 194 163 179T144 137Q144 110 163 92T215 73ZM418 309H618Q617 338 609 364T580 408T520 425Q471 425 446 394T418 309Z" />
<glyph unicode="&#xe7;" horiz-adv-x="448" d="M264 -13Q171 -13 119 37T57 162Q51 212 51 252Q51 273 52 294T57 341Q67 417 119 466T263 516Q308 516 343 505T409 470L379 388Q353 405 327 414T267 424Q218 424 190 397T159 330Q156 286 156 251T159 173Q162
135 190 107T269 79Q299 79 327 87T384 114L412 35Q376 10 341 -1T264 -13ZM139 -254L158 -184Q215 -184 247 -172T280 -139Q280 -120 256 -114T174 -108L207 27L275 2L262 -48Q307 -54 333 -77T360 -135Q360 -174 330 -200T250 -240T139 -254Z" />
<glyph unicode="&#xe8;" horiz-adv-x="494" d="M274 -10Q210 -10 164 12T91 74T57 162Q54 186 53 207T51 249Q51 289 57 338Q66 414 117 464T255 514Q314 514 352 494T413 441T444 365T453 279L433 227H99L98 309H353Q353 338 345 364T316 408T256 425Q208 425
183 396T155 322Q153 297 152 261T155 179Q160 133 190 106T274 79Q308 79 340 89T401 119L430 39Q392 13 356 2T274 -10ZM217 591L101 750H212L327 591H217Z" />
<glyph unicode="&#xe9;" horiz-adv-x="494" d="M274 -10Q210 -10 164 12T91 74T57 162Q54 186 53 207T51 249Q51 289 57 338Q66 414 117 464T255 514Q314 514 352 494T413 441T444 365T453 279L433 227H99L98 309H353Q353 338 345 364T316 408T256 425Q208 425
183 396T155 322Q153 297 152 261T155 179Q160 133 190 106T274 79Q308 79 340 89T401 119L430 39Q392 13 356 2T274 -10ZM181 591L297 750H407L292 591H181Z" />
<glyph unicode="&#xea;" horiz-adv-x="494" d="M274 -10Q210 -10 164 12T91 74T57 162Q54 186 53 207T51 249Q51 289 57 338Q66 414 117 464T255 514Q314 514 352 494T413 441T444 365T453 279L433 227H99L98 309H353Q353 338 345 364T316 408T256 425Q208 425
183 396T155 322Q153 297 152 261T155 179Q160 133 190 106T274 79Q308 79 340 89T401 119L430 39Q392 13 356 2T274 -10ZM109 591L200 750H308L400 591H304L271 654L260 688Q258 696 255 696T248 688L238 654L204 591H109Z" />
<glyph unicode="&#xeb;" horiz-adv-x="494" d="M274 -10Q210 -10 164 12T91 74T57 162Q54 186 53 207T51 249Q51 289 57 338Q66 414 117 464T255 514Q314 514 352 494T413 441T444 365T453 279L433 227H99L98 309H353Q353 338 345 364T316 408T256 425Q208 425
183 396T155 322Q153 297 152 261T155 179Q160 133 190 106T274 79Q308 79 340 89T401 119L430 39Q392 13 356 2T274 -10ZM296 591V700H398V591H296ZM112 591V700H214V591H112Z" />
<glyph unicode="&#xec;" horiz-adv-x="301" d="M116 0V413H38V504H224V0H116ZM371 591L255 750H366L481 591H371Z" />
<glyph unicode="&#xed;" horiz-adv-x="301" d="M116 0V413H38V504H224V0H116ZM79 591L195 750H305L190 591H79Z" />
<glyph unicode="&#xee;" horiz-adv-x="306" d="M27 591L100 750H210L283 591H193L167 654L159 688Q157 696 155 696T150 688L141 654L117 591H27ZM116 0V413H38V504H224V0H116Z" />
<glyph unicode="&#xef;" horiz-adv-x="306" d="M181 591V700H277V591H181ZM26 591V700H122V591H26ZM116 0V413H38V504H224V0H116Z" />
<glyph unicode="&#xf0;" horiz-adv-x="566" d="M187 493L145 555L382 700L422 640L187 493ZM283 -12Q211 -12 157 17T73 98T42 219Q42 292 72 341T151 416T250 441Q257 441 265 440T281 438L326 414Q338 408 341 414T338 430L153 700H281L431 461Q467 404 487
364T516 289T524 219Q524 150 495 98T411 17T283 -12ZM283 87Q345 87 382 123T418 219Q418 279 381 315T283 351Q221 351 185 315T148 219Q148 159 184 123T283 87Z" />
<glyph unicode="&#xf1;" horiz-adv-x="549" d="M77 0V504H185V475Q207 493 238 504T308 516Q357 516 395 498T455 445T477 361V0H369V335Q369 375 348 397T278 419Q232 419 209 397T185 335V0H77ZM138 581L111 650Q130 675 153 686T205 697Q240 697 261 688T299
670T340 660Q361 660 377 670T409 699L435 630Q417 606 393 595T341 583Q307 583 286 592T247 611T207 620Q186 620 170 611T138 581Z" />
<glyph unicode="&#xf2;" horiz-adv-x="525" d="M262 -11Q171 -11 119 38T57 163Q51 211 51 251Q51 272 52 294T57 341Q67 416 119 465T262 515Q354 515 406 466T468 341Q474 292 474 251Q474 211 468 163Q458 88 406 39T262 -11ZM262 79Q311 79 336 107T366 174Q370
216 370 251T366 329Q362 368 337 396T262 424Q215 424 189 396T159 329Q155 286 155 251T160 174Q164 136 189 108T262 79ZM225 591L109 750H220L335 591H225Z" />
<glyph unicode="&#xf3;" horiz-adv-x="525" d="M262 -11Q171 -11 119 38T57 163Q51 211 51 251Q51 272 52 294T57 341Q67 416 119 465T262 515Q354 515 406 466T468 341Q474 292 474 251Q474 211 468 163Q458 88 406 39T262 -11ZM262 79Q311 79 336 107T366 174Q370
216 370 251T366 329Q362 368 337 396T262 424Q215 424 189 396T159 329Q155 286 155 251T160 174Q164 136 189 108T262 79ZM189 591L305 750H415L300 591H189Z" />
<glyph unicode="&#xf4;" horiz-adv-x="525" d="M262 -11Q171 -11 119 38T57 163Q51 211 51 251Q51 272 52 294T57 341Q67 416 119 465T262 515Q354 515 406 466T468 341Q474 292 474 251Q474 211 468 163Q458 88 406 39T262 -11ZM262 79Q311 79 336 107T366 174Q370
216 370 251T366 329Q362 368 337 396T262 424Q215 424 189 396T159 329Q155 286 155 251T160 174Q164 136 189 108T262 79ZM117 591L208 750H316L408 591H312L279 654L268 688Q266 696 263 696T256 688L246 654L212 591H117Z" />
<glyph unicode="&#xf5;" horiz-adv-x="525" d="M262 -11Q171 -11 119 38T57 163Q51 211 51 251Q51 272 52 294T57 341Q67 416 119 465T262 515Q354 515 406 466T468 341Q474 292 474 251Q474 211 468 163Q458 88 406 39T262 -11ZM262 79Q311 79 336 107T366 174Q370
216 370 251T366 329Q362 368 337 396T262 424Q215 424 189 396T159 329Q155 286 155 251T160 174Q164 136 189 108T262 79ZM127 581L100 650Q119 675 142 686T194 697Q229 697 250 688T288 670T329 660Q350 660 366 670T398 699L424 630Q406 606 382 595T330 583Q296
583 275 592T236 611T196 620Q175 620 159 611T127 581Z" />
<glyph unicode="&#xf6;" horiz-adv-x="525" d="M262 -11Q171 -11 119 38T57 163Q51 211 51 251Q51 272 52 294T57 341Q67 416 119 465T262 515Q354 515 406 466T468 341Q474 292 474 251Q474 211 468 163Q458 88 406 39T262 -11ZM262 79Q311 79 336 107T366 174Q370
216 370 251T366 329Q362 368 337 396T262 424Q215 424 189 396T159 329Q155 286 155 251T160 174Q164 136 189 108T262 79ZM304 591V700H406V591H304ZM120 591V700H222V591H120Z" />
<glyph unicode="&#xf7;" horiz-adv-x="588" d="M50 302V398H522V302H50ZM230 82V202H343V82H230ZM230 498V618H343V498H230Z" />
<glyph unicode="&#xf8;" horiz-adv-x="525" d="M262 -11Q171 -11 119 38T57 163Q51 211 51 251Q51 272 52 294T57 341Q67 416 119 465T262 515Q354 515 406 466T468 341Q474 292 474 251Q474 211 468 163Q458 88 406 39T262 -11ZM262 79Q311 79 336 107T366 174Q370
216 370 251T366 329Q362 368 337 396T262 424Q215 424 189 396T159 329Q155 286 155 251T160 174Q164 136 189 108T262 79ZM274 0L663 504H761L373 0H274Z" />
<glyph unicode="&#xf9;" horiz-adv-x="543" d="M232 -11Q184 -11 147 7T88 60T66 144V504H174V170Q174 130 195 108T264 86Q312 86 335 108T358 170V504H466V0H357V20Q357 29 352 31T337 29L281 -5Q262 -11 232 -11ZM235 591L119 750H230L345 591H235Z" />
<glyph unicode="&#xfa;" horiz-adv-x="543" d="M232 -11Q184 -11 147 7T88 60T66 144V504H174V170Q174 130 195 108T264 86Q312 86 335 108T358 170V504H466V0H357V20Q357 29 352 31T337 29L281 -5Q262 -11 232 -11ZM199 591L315 750H425L310 591H199Z" />
<glyph unicode="&#xfb;" horiz-adv-x="543" d="M232 -11Q184 -11 147 7T88 60T66 144V504H174V170Q174 130 195 108T264 86Q312 86 335 108T358 170V504H466V0H357V20Q357 29 352 31T337 29L281 -5Q262 -11 232 -11ZM127 591L218 750H326L418 591H322L289 654L278
688Q276 696 273 696T266 688L256 654L222 591H127Z" />
<glyph unicode="&#xfc;" horiz-adv-x="543" d="M232 -11Q184 -11 147 7T88 60T66 144V504H174V170Q174 130 195 108T264 86Q312 86 335 108T358 170V504H466V0H357V20Q357 29 352 31T337 29L281 -5Q262 -11 232 -11ZM314 591V700H416V591H314ZM130 591V700H232V591H130Z" />
<glyph unicode="&#xfd;" horiz-adv-x="475" d="M88 -218L56 -124Q109 -113 136 -83T177 -9L191 38L16 504H127L224 227L234 158Q235 150 241 150T249 158L261 227L339 504H448L276 -46Q256 -113 208 -158T88 -218ZM164 591L280 750H390L275 591H164Z" />
<glyph unicode="&#xfe;" horiz-adv-x="543" d="M77 -200V700H185V476Q204 493 235 504T300 515Q389 515 434 470T488 346Q490 320 491 298T492 253Q492 232 491 210T488 159Q481 82 436 36T304 -10Q290 -10 281 -9T261 -5L206 29Q197 34 191 31T185 19V-200H77ZM282
80Q333 80 355 106T381 168Q385 210 385 252T381 336Q378 372 355 397T282 423Q234 423 210 402T185 343V162Q185 126 210 103T282 80Z" />
<glyph unicode="&#xff;" horiz-adv-x="475" d="M88 -218L56 -124Q109 -113 136 -83T177 -9L191 38L16 504H127L224 227L234 158Q235 150 241 150T249 158L261 227L339 504H448L276 -46Q256 -113 208 -158T88 -218ZM279 591V700H381V591H279ZM95 591V700H197V591H95Z" />
<glyph unicode="&#x2013;" horiz-adv-x="564" d="M50 212V308H514V212H50Z" />
<glyph unicode="&#x2014;" horiz-adv-x="736" d="M50 212V308H686V212H50Z" />
<glyph unicode="&#x2018;" horiz-adv-x="215" d="M191 750L180 688Q133 677 107 643T79 554H149V436H16V521Q16 594 39 641T102 714T191 750Z" />
<glyph unicode="&#x2019;" horiz-adv-x="307" d="M66 436L77 498Q125 509 151 544T178 632H109V750H241V665Q241 593 218 546T155 472T66 436Z" />
<glyph unicode="&#x201a;" horiz-adv-x="290" d="M-4 -198L7 -142Q72 -134 107 -97T144 0H75V118H207V21Q207 -47 180 -94T104 -167T-4 -198Z" />
<glyph unicode="&#x201c;" horiz-adv-x="509" d="M241 750L230 688Q183 677 157 643T129 554H193V436H66V521Q66 594 89 641T152 714T241 750ZM443 750L432 688Q384 677 358 643T331 554H394V436H268V521Q268 594 291 641T354 714T443 750Z" />
<glyph unicode="&#x201d;" horiz-adv-x="509" d="M268 436L278 498Q326 509 352 544T379 632H316V750H443V665Q443 593 420 546T357 472T268 436ZM66 436L77 498Q125 509 151 544T178 632H115V750H241V665Q241 593 218 546T155 472T66 436Z" />
<glyph unicode="&#x201e;" horiz-adv-x="455" d="M198 -196L208 -134Q256 -123 282 -88T309 0H246V118H373V33Q373 -39 350 -86T287 -160T198 -196ZM-4 -196L7 -134Q55 -123 81 -88T108 0H45V118H171V33Q171 -39 148 -86T85 -160T-4 -196Z" />
<glyph unicode="&#x2022;" horiz-adv-x="368" d="M183 231Q141 231 120 248T90 294T82 355Q82 387 90 413T119 456T183 473Q225 473 247 456T277 412T286 353Q286 321 278 293T247 248T183 231Z" />
<glyph unicode="&#x2039;" horiz-adv-x="338" d="M170 51L44 192V267L170 408H288L161 266L118 237Q108 230 118 222L161 193L288 51H170Z" />
<glyph unicode="&#x203a;" horiz-adv-x="338" d="M51 51L177 193L220 222Q230 230 220 237L177 266L50 408H168L294 267V192L168 51H51Z" />
</font>
</defs>
</svg>
