<?xml version="1.0" standalone="no"?>
<!DOCTYPE svg PUBLIC "-//W3C//DTD SVG 1.1//EN" "http://www.w3.org/Graphics/SVG/1.1/DTD/svg11.dtd">
<svg xmlns="http://www.w3.org/2000/svg">
<defs >
<font id="Finlandica" horiz-adv-x="526" ><font-face
    font-family="Finlandica"
    units-per-em="1000"
    panose-1="0 0 0 0 0 0 0 0 0 0"
    ascent="950"
    descent="-250"
    alphabetic="0" />
<glyph unicode=" " horiz-adv-x="300" />
<glyph unicode="!" horiz-adv-x="311" d="M96 230L60 700H251L216 230H96ZM78 0V145H235V0H78Z" />
<glyph unicode="&quot;" horiz-adv-x="460" d="M60 421V750H180V421H60ZM280 421V750H400V421H280Z" />
<glyph unicode="#" horiz-adv-x="780" d="M103 384V510H216L286 700H446L377 510H500L570 700H730L687 581L646 530Q639 522 642 516T655 510H723V384H103ZM50 0L93 119L134 170Q141 178 139 184T125 190H57V316H677V190H564L494 0H334L403 190H280L210 0H50Z" />
<glyph unicode="$" horiz-adv-x="546" d="M206 -150V60H346V-150H206ZM206 660V850H346V660H206ZM256 -10Q188 -10 137 6T35 54L81 180Q128 152 165 140T252 128Q299 128 327 149T355 210Q355 244 335 265T275 292L238 297Q184 304 140 327T70 392T44 495Q44 561
72 609T155 685T295 712Q361 712 410 695T490 655L446 537Q411 556 375 565T300 574Q242 574 218 553T194 505Q194 476 210 461T258 441L298 436Q397 425 451 368T505 217Q505 143 476 92T392 16T256 -10Z" />
<glyph unicode="%" horiz-adv-x="700" d="M70 0L332 451L433 700H623L369 264L260 0H70ZM153 360Q96 360 64 386T19 452T5 536Q5 579 18 618T64 683T153 709Q211 709 243 684T289 619T302 536Q302 490 289 450T243 385T153 360ZM153 464Q183 464 191 484T200 533Q200
563 192 584T153 605Q124 605 116 584T107 533Q107 502 116 483T153 464ZM546 -10Q489 -10 457 16T411 82T398 166Q398 209 411 248T456 313T546 339Q604 339 636 314T681 249T695 166Q695 120 682 80T636 15T546 -10ZM546 94Q576 94 584 114T593 163Q593 193 585
214T546 235Q517 235 509 214T500 163Q500 132 509 113T546 94Z" />
<glyph unicode="&amp;" horiz-adv-x="723" d="M349 -12Q280 -13 225 1T131 42T71 107T50 194Q50 237 62 266T96 317T145 353Q107 377 84 414T60 509Q60 564 84 602T147 665T233 700T325 712Q367 712 404 706T473 687T537 651L488 528Q456 553 415 564T332 576Q272
576 240 555T208 494Q208 455 234 434T305 413H361V288H305Q252 288 225 270T198 213Q198 168 238 148T349 128Q392 128 432 137T501 162V288H433V413H693V288H631V78Q583 41 516 16T349 -12Z" />
<glyph unicode="&apos;" horiz-adv-x="240" d="M60 421V750H180V421H60Z" />
<glyph unicode="(" horiz-adv-x="466" d="M330 -190Q222 -161 169 -99T103 65Q96 136 93 208T90 350Q90 421 93 492T103 635Q115 736 168 799T330 890L376 766Q312 748 283 707T248 598Q244 524 242 464T239 350Q239 298 241 237T248 102Q253 35 282 -6T376 -66L330
-190Z" />
<glyph unicode=")" horiz-adv-x="466" d="M136 -190L90 -66Q154 -48 184 -7T218 102Q223 176 225 237T227 350Q227 403 225 463T218 598Q214 666 184 707T90 766L136 890Q244 862 297 799T363 635Q370 564 373 493T376 350Q376 280 373 208T363 65Q351 -36 298
-98T136 -190Z" />
<glyph unicode="*" horiz-adv-x="530" d="M175 344L110 386L206 522H39V593H206L110 729L175 772L245 660L255 620Q258 610 265 610T275 620L285 660L355 772L420 729L324 593H491V522H324L420 386L355 344L285 454L275 493Q272 504 265 504T255 493L245 454L175 344Z" />
<glyph unicode="+" horiz-adv-x="600" d="M232 100V282H50V418H232V600H368V418H550V282H368V100H232Z" />
<glyph unicode="," horiz-adv-x="312" d="M-10 -210L4 -134Q77 -132 116 -95T155 0H67V145H242V31Q242 -53 206 -106T113 -184T-10 -210Z" />
<glyph unicode="-" horiz-adv-x="350" d="M50 199V335H300V199H50Z" />
<glyph unicode="." horiz-adv-x="297" d="M70 0V150H227V0H70Z" />
<glyph unicode="/" horiz-adv-x="485" d="M30 0L295 700H455L192 0H30Z" />
<glyph unicode="0" horiz-adv-x="620" d="M310 -12Q258 -12 210 4T124 58Q101 82 83 114T55 202T45 350Q45 442 55 497T83 586T124 642Q161 679 209 695T310 712Q362 712 410 696T496 642Q520 619 537 586T565 498T575 350Q575 258 565 203T538 115T496 58Q459
21 411 5T310 -12ZM310 124Q365 124 401 159T440 249Q442 267 443 294T444 350Q444 379 443 406T440 451Q437 507 401 541T310 576Q255 576 219 542T180 451Q179 433 178 406T176 350Q176 322 177 295T180 249Q183 194 219 159T310 124ZM251 250V450H371V250H251Z"
/>
<glyph unicode="1" horiz-adv-x="531" d="M73 0V130H215V557H55V648L376 712L374 130H506V0H73Z" />
<glyph unicode="2" horiz-adv-x="539" d="M45 0V138Q45 222 83 280T207 379L294 418Q327 433 342 451T358 499Q358 520 346 538T312 567T256 578Q218 578 178 570T92 538L48 657Q103 689 155 700T265 711Q306 711 348 700T425 665T482 603T504 509Q504 433 475
387T375 307L288 266Q251 246 231 227T204 190T196 156V140H496V0H45Z" />
<glyph unicode="3" horiz-adv-x="529" d="M250 -10Q182 -10 127 5T20 64L67 191Q109 154 146 141T239 127Q289 127 315 149T341 212Q341 244 317 266T234 288H158V413H234Q287 413 309 435T331 494Q331 532 304 555T226 578Q189 578 150 570T75 538L32 656Q82
690 131 701T235 712Q277 712 319 701T398 665T457 603T479 509Q479 467 469 438T439 388T394 351Q421 338 442 317T476 266T489 194Q489 142 467 104T408 40T331 2T250 -10Z" />
<glyph unicode="4" horiz-adv-x="562" d="M347 0V174H20V244L226 700H385L200 298H347V500H492V0H347Z" />
<glyph unicode="5" horiz-adv-x="544" d="M248 -9Q187 -9 136 6T40 54L85 182Q123 151 165 138T239 125Q296 125 332 152T367 230Q366 274 333 301T244 329Q210 329 180 318T123 280L73 320V700H471V577H214V441Q214 434 219 432T232 435L261 454Q266 456 270
456T278 456Q350 456 403 427T485 347T514 230Q514 156 481 102T388 20T248 -9Z" />
<glyph unicode="6" horiz-adv-x="581" d="M291 -12Q209 -12 151 17T61 101T30 229Q30 265 37 299T64 374T123 474L272 700H444L265 447Q258 437 261 432T277 431L326 453Q332 454 337 454T346 454Q401 454 447 426T522 347T551 229Q551 155 519 101T428 18T291
-12ZM291 122Q347 122 377 149T405 229Q404 281 375 308T291 336Q237 336 208 309T176 229Q175 177 204 150T291 122Z" />
<glyph unicode="7" horiz-adv-x="587" d="M89 0L222 284H71V415H284L356 565H47V700H531V612L478 487L434 429Q430 423 433 419T443 415H538L536 284H378L245 0H89Z" />
<glyph unicode="8" horiz-adv-x="592" d="M300 -12Q221 -12 162 14T71 87T38 196Q38 240 61 282T127 346L161 350Q173 351 174 355T164 364Q103 391 79 429T54 514Q54 574 83 618T165 687T292 712Q367 712 422 687T508 614T539 504Q539 469 520 436T469 385L439
380Q429 379 428 375T436 366Q501 334 527 290T554 197Q554 133 524 86T437 14T300 -12ZM302 114Q349 114 377 136T404 195Q403 233 368 260T268 307Q228 293 208 267T188 205Q188 164 219 139T302 114ZM323 419Q355 431 372 453T389 507Q388 545 361 567T290 590Q248
590 226 570T204 518Q205 483 236 460T323 419Z" />
<glyph unicode="9" horiz-adv-x="581" d="M137 0L316 253Q323 263 320 268T304 269L255 247Q249 246 244 246T235 246Q181 246 134 274T59 354T30 471Q30 545 62 599T153 682T290 712Q372 712 430 683T520 599T551 471Q551 436 544 402T517 326T458 226L309 0H137ZM290
364Q344 364 374 391T405 471Q407 523 377 550T290 578Q234 578 205 551T176 471Q177 419 206 392T290 364Z" />
<glyph unicode=":" horiz-adv-x="297" d="M80 0V150H237V0H80ZM80 360V510H237V360H80Z" />
<glyph unicode=";" horiz-adv-x="312" d="M-10 -210L4 -134Q77 -132 116 -95T155 0H67V145H242V31Q242 -53 206 -106T113 -184T-10 -210ZM70 360V510H227V360H70Z" />
<glyph unicode="&lt;" horiz-adv-x="540" d="M490 108L50 272V445L490 612V480L175 368Q168 365 168 360T175 351L490 243V108Z" />
<glyph unicode="=" horiz-adv-x="560" d="M50 386V510H510V386H50ZM50 190V314H510V190H50Z" />
<glyph unicode="&gt;" horiz-adv-x="540" d="M50 108V243L365 351Q373 354 373 359T365 368L50 480V612L490 445V272L50 108Z" />
<glyph unicode="?" horiz-adv-x="497" d="M142 230Q139 255 139 264T138 277Q138 321 161 357T227 412L274 435Q291 443 304 456T318 500Q318 529 304 545T266 568T218 575Q189 575 165 571T119 558T74 536L30 655Q69 681 118 696T222 712Q293 712 348 688T435
617T467 500Q467 453 450 420T407 366T352 331L319 314Q297 306 283 294T268 259V230H142ZM127 0V145H284V0H127Z" />
<glyph unicode="@" horiz-adv-x="750" d="M414 -126Q324 -126 256 -102T142 -30T73 90T50 258Q50 387 89 475T205 610T396 656Q490 656 554 622T650 531T683 405V254L730 176L620 114L584 161Q573 175 561 164Q538 143 511 131T442 118Q369 118 327 160T285 268Q285
318 309 351T373 402T463 419H540Q537 450 520 472T473 507T402 519Q337 519 292 493T224 410T200 262Q200 176 228 119T305 33T418 5Q468 5 498 16T562 47L628 -55Q578 -90 529 -108T414 -126ZM474 231Q509 231 528 252T548 309V322Q548 335 530 330L494 319H466Q442
319 430 308T418 277Q418 257 433 244T474 231Z" />
<glyph unicode="A" horiz-adv-x="610" d="M30 0L200 700H420L590 0H431L326 497L319 560Q318 569 310 569T301 560L294 497L189 0H30ZM207 162L236 292H383L413 162H207ZM95 570V700H215L195 570H95Z" />
<glyph unicode="B" horiz-adv-x="592" d="M70 0V700H309Q416 700 474 651T533 509Q533 459 510 421T445 362Q496 346 524 303T552 198Q552 104 494 52T329 0H70ZM215 130H329Q367 130 387 149T407 205Q407 240 387 262T329 285H215V130ZM215 415H309Q347 415 368
437T389 495Q389 531 368 550T309 570H215V415Z" />
<glyph unicode="C" horiz-adv-x="504" d="M320 -12Q245 -12 186 17T91 98T50 218Q48 247 47 283T45 350Q45 382 46 417T50 482Q55 550 89 602T181 683T310 712Q361 712 398 698T473 656L430 537Q403 557 381 564T327 572Q275 572 245 546T210 474Q208 439 207
410T205 350Q205 319 206 291T210 226Q215 180 243 154T320 129Q356 129 379 139T427 165L474 40Q438 15 403 2T320 -12Z" />
<glyph unicode="D" horiz-adv-x="602" d="M70 0V700H274Q405 700 474 638T552 470Q554 443 555 411T557 350Q557 321 556 289T552 230Q544 124 475 62T274 0H70ZM230 130H274Q339 130 369 165T405 251Q408 281 408 302T409 350Q409 376 409 397T405 449Q401 500
370 535T274 570H230V130Z" />
<glyph unicode="E" horiz-adv-x="550" d="M70 0V700H500V560H215V415H483V285H215V140H500V0H70Z" />
<glyph unicode="F" horiz-adv-x="530" d="M70 0V700H500V560H230V420H483V280H230V0H70Z" />
<glyph unicode="G" horiz-adv-x="598" d="M314 -10Q195 -11 128 46T51 214Q49 243 47 281T45 350Q45 382 46 419T51 486Q64 597 137 654T326 712Q440 712 522 651L473 526Q442 554 405 563T326 572Q262 572 233 543T198 461Q196 434 195 407T193 350Q193 320 194
293T198 230Q202 181 229 156T304 130Q325 130 346 132T386 138V280H318V420H578V280H516V44Q485 22 436 7T314 -10Z" />
<glyph unicode="H" horiz-adv-x="640" d="M70 0V700H230V420H410V700H570V0H410V280H230V0H70Z" />
<glyph unicode="I" horiz-adv-x="443" d="M50 0V130H142V570H50V700H393V570H301V130H393V0H50Z" />
<glyph unicode="J" horiz-adv-x="479" d="M174 -12Q123 -12 86 1T10 40L57 165Q75 154 91 146T128 133T174 129Q215 128 237 150T259 220V570H119V700H419V220Q419 108 353 48T174 -12Z" />
<glyph unicode="K" horiz-adv-x="586" d="M70 0V700H226V415H283L397 700H566L416 360L561 0H394L283 285H226V0H70Z" />
<glyph unicode="L" horiz-adv-x="444" d="M70 0V700H230V140H424V0H70Z" />
<glyph unicode="M" horiz-adv-x="680" d="M70 0V700H200L331 453Q334 447 340 447T349 453L480 700H610V0H460V290L474 378Q476 386 470 389T458 384L362 229H310L222 384Q218 392 212 389T206 378L220 290V0H70Z" />
<glyph unicode="N" horiz-adv-x="640" d="M70 0V700H200L419 316Q424 309 430 312T435 322L420 410V700H570V0H440L222 384Q218 392 212 389T206 378L220 290V0H70Z" />
<glyph unicode="O" horiz-adv-x="620" d="M310 -12Q258 -12 210 4T124 58Q101 82 83 114T55 202T45 350Q45 442 55 497T83 586T124 642Q161 679 209 695T310 712Q362 712 410 696T496 642Q520 619 537 586T565 498T575 350Q575 258 565 203T538 115T496 58Q459
21 411 5T310 -12ZM310 129Q352 129 379 155T409 227Q411 256 412 287T414 350Q414 382 413 413T409 473Q406 519 379 545T310 571Q268 571 241 545T211 473Q209 445 208 414T206 350Q206 318 207 287T211 227Q214 181 241 155T310 129Z" />
<glyph unicode="P" horiz-adv-x="580" d="M70 0V700H335Q435 700 492 643T550 486Q550 392 493 336T335 280H229V0H70ZM229 410H335Q368 410 386 432T405 489Q405 528 387 549T335 570H229V410Z" />
<glyph unicode="Q" horiz-adv-x="620" d="M388 -115L340 -11Q333 -12 326 -12T310 -12Q258 -12 210 4T124 58Q101 82 83 114T55 202T45 350Q45 442 55 497T83 586T124 642Q161 679 209 695T310 712Q362 712 410 696T496 642Q520 619 537 586T565 498T575 350Q575
258 565 203T538 115T496 58Q489 51 481 44T464 32L510 -60L388 -115ZM297 119Q301 119 305 119T313 120Q323 122 323 130T315 142L261 172L236 232L351 285L402 176Q410 186 414 200T419 227Q421 256 422 287T424 350Q424 382 423 413T419 473Q415 521 386 547T310
574Q264 574 235 548T201 473Q199 445 198 414T196 350Q196 316 197 283T201 223Q203 197 216 173T251 134T297 119Z" />
<glyph unicode="R" horiz-adv-x="600" d="M70 0V700H331Q445 700 507 645T570 490Q570 423 536 373T440 298Q425 292 434 277L469 227L552 0H393L290 280H230V0H70ZM229 410H337Q380 410 404 431T428 490Q428 528 404 549T337 570H229V410Z" />
<glyph unicode="S" horiz-adv-x="520" d="M246 -10Q178 -10 127 6T25 54L71 180Q118 152 155 140T242 128Q289 128 317 149T345 210Q345 244 325 265T265 292L228 297Q174 304 130 327T60 392T34 495Q34 561 62 609T145 685T285 712Q351 712 400 695T480 655L436
537Q401 556 365 565T290 574Q232 574 208 553T184 505Q184 476 200 461T248 441L288 436Q387 425 441 368T495 217Q495 143 466 92T382 16T246 -10Z" />
<glyph unicode="T" horiz-adv-x="510" d="M175 0V560H20V700H490V560H335V0H175Z" />
<glyph unicode="U" horiz-adv-x="604" d="M302 -10Q231 -10 176 18T91 98T60 216V700H220V213Q220 176 242 154T302 131Q337 131 360 153T384 213V700H544L541 216Q541 149 511 98T427 19T302 -10Z" />
<glyph unicode="V" horiz-adv-x="561" d="M172 0L20 700H178L264 227L270 137Q271 128 278 128T287 137L294 227L384 700H541L385 0H172Z" />
<glyph unicode="W" horiz-adv-x="640" d="M107 0L30 700H173L206 400V292Q206 281 213 281T223 288L284 510H356L417 288Q419 281 426 281T434 292V400L467 700H610L533 0H393L329 247Q327 255 320 255T311 247L247 0H107Z" />
<glyph unicode="X" horiz-adv-x="570" d="M20 0L163 355L20 700H189L265 496L276 418Q278 409 284 409T293 418L305 496L381 700H550L405 355L550 0H381L305 214L293 292Q290 301 284 301T276 292L265 214L189 0H20Z" />
<glyph unicode="Y" horiz-adv-x="508" d="M174 0V255L0 700H161L235 500L246 422Q248 413 254 413T263 422L275 500L349 700H508L334 255V0H174Z" />
<glyph unicode="Z" horiz-adv-x="537" d="M35 0V98L286 520L321 552Q327 558 325 564T315 570H180V504H35V700H502V602L252 190L217 158Q211 152 213 146T223 140H502V0H35Z" />
<glyph unicode="[" horiz-adv-x="444" d="M90 -188V881H354V764H240V-70H354V-188H90Z" />
<glyph unicode="\" horiz-adv-x="485" d="M293 0L30 700H190L455 0H293Z" />
<glyph unicode="]" horiz-adv-x="444" d="M90 -188V-70H204V764H90V881H354V-188H90Z" />
<glyph unicode="^" horiz-adv-x="500" d="M10 350L157 750H340L490 350H332L269 561L258 618Q257 627 250 627T241 618L231 561L169 350H10Z" />
<glyph unicode="_" horiz-adv-x="548" d="M87 -250V-180H461V-250H87Z" />
<glyph unicode="`" horiz-adv-x="390" d="M190 578L50 750H200L340 578H190Z" />
<glyph unicode="a" horiz-adv-x="505" d="M370 -12L338 31Q327 45 315 34Q292 16 263 4T192 -8Q119 -8 77 34T35 142Q35 190 58 223T122 272T211 289H298V338Q298 369 276 385T209 401Q175 401 144 390T82 361L41 473Q80 496 125 509T220 522Q329 522 380 471T432
339V139L485 63L370 -12ZM224 97Q259 97 278 118T298 174V187Q298 200 280 195L244 184H213Q189 184 177 174T165 144Q165 125 182 111T224 97Z" />
<glyph unicode="b" horiz-adv-x="578" d="M140 -12L25 63L78 138V750H228V491Q246 505 276 513T338 522Q430 522 475 480T528 358Q531 329 532 305T533 257Q533 238 532 219T528 174Q521 86 467 38T318 -10Q285 -10 256 0T197 32Q182 42 172 29L140 -12ZM305 116Q342
116 359 132T378 172Q382 214 382 255T378 338Q376 364 358 380T305 397Q265 397 247 378T228 325V186Q228 155 248 136T305 116Z" />
<glyph unicode="c" horiz-adv-x="460" d="M278 -12Q176 -12 119 39T51 166Q45 214 45 256Q45 277 46 299T51 346Q62 423 118 472T275 522Q323 522 362 510T429 474L389 364Q367 381 343 390T285 399Q243 399 219 378T192 325Q189 287 189 256T192 186Q194 155
219 134T288 112Q314 112 339 119T392 144L430 37Q396 11 358 0T278 -12Z" />
<glyph unicode="d" horiz-adv-x="560" d="M231 -10Q144 -10 101 33T50 154Q48 185 47 209T45 257Q45 281 46 305T50 358Q58 437 104 479T241 522Q273 522 302 514T350 491V750H500V0H350V23Q350 31 345 34T329 31L265 -6Q257 -8 249 -9T231 -10ZM273 114Q310 114
330 133T350 184V328Q350 360 332 378T273 397Q239 397 221 381T200 341Q196 299 196 256T200 170Q202 147 219 131T273 114Z" />
<glyph unicode="e" horiz-adv-x="514" d="M297 -10Q228 -10 176 12T91 74T51 163Q48 187 47 207T45 249Q45 289 51 338Q62 416 116 468T263 520Q318 520 358 504T426 456T466 378T479 271L458 219H76L74 320H343Q341 341 334 360T311 391T265 403Q224 403 206
377T185 306Q184 280 184 254T185 200Q190 149 221 131T297 112Q326 112 353 119T411 141L449 34Q415 12 377 1T297 -10Z" />
<glyph unicode="f" horiz-adv-x="390" d="M106 0V386H20V510H106V566Q106 625 133 667T210 731T327 753Q376 753 418 739T490 700L443 598Q420 614 395 620T349 627Q297 627 277 610T256 566V510H360V386H256V0H106Z" />
<glyph unicode="g" horiz-adv-x="559" d="M257 -214Q220 -214 193 -210T139 -196T76 -169L118 -61Q148 -76 167 -83T205 -92T258 -94Q299 -94 324 -71T350 2V24Q350 32 344 34T330 32L263 -7Q254 -8 244 -9T220 -10Q147 -10 102 33T50 154Q47 185 46 209T45 257Q45
281 46 305T50 358Q57 437 103 479T240 522Q272 522 301 510T349 481V510H499V-24Q499 -72 470 -115T387 -186T257 -214ZM272 113Q309 113 329 132T349 183V328Q349 360 331 378T272 397Q238 397 220 381T200 341Q196 298 196 255T200 169Q202 146 218 130T272
113Z" />
<glyph unicode="h" horiz-adv-x="563" d="M65 0V750H211V492Q237 506 267 514T332 522Q377 522 416 505T479 454T503 366V0H353V305Q353 348 339 367T284 387Q244 387 228 368T211 305V0H65Z" />
<glyph unicode="i" horiz-adv-x="325" d="M110 0V386H20V510H260V0H110ZM110 578V700H260V578H110Z" />
<glyph unicode="j" horiz-adv-x="325" d="M44 -222L10 -91Q57 -80 83 -58T110 8V387H20V510H260V14Q260 -46 241 -89T190 -161T120 -204T44 -222ZM110 578V700H259V578H110Z" />
<glyph unicode="k" horiz-adv-x="523" d="M65 0V750H211V353H248L334 511H498L373 291L503 0H341L248 223H211V0H65Z" />
<glyph unicode="l" horiz-adv-x="306" d="M185 1Q133 1 99 34T65 120V750H211V146Q211 139 215 135T227 130H281V1H185Z" />
<glyph unicode="m" horiz-adv-x="855" d="M65 0V510H207V472Q221 489 255 505T334 522Q378 522 407 512T471 473Q484 489 508 500T560 516T614 522Q663 522 704 504T770 448T795 355V0H645V323Q645 356 629 371T577 386Q540 386 523 371T505 323V0H355V323Q355
356 339 371T287 386Q250 386 233 371T215 323V0H65Z" />
<glyph unicode="n" horiz-adv-x="567" d="M65 0V510H215V482Q241 502 271 512T336 522Q381 522 420 506T483 455T507 366V0H357V314Q357 352 343 369T288 386Q248 386 232 369T215 314V0H65Z" />
<glyph unicode="o" horiz-adv-x="549" d="M274 -12Q175 -12 118 38T51 165Q45 213 45 253Q45 276 46 298T51 345Q62 421 118 471T274 522Q373 522 430 472T498 345Q504 296 504 253Q504 213 498 165Q487 89 430 39T274 -12ZM274 112Q312 112 332 134T356 187Q361
224 361 254T357 322Q354 354 333 376T274 399Q237 399 216 377T192 322Q188 285 188 255T193 188Q196 157 216 135T274 112Z" />
<glyph unicode="p" horiz-adv-x="565" d="M65 -200V510H215V481Q233 498 262 510T324 522Q416 522 461 480T515 358Q518 329 519 305T520 257Q520 234 519 210T515 154Q508 76 465 33T334 -10Q325 -10 317 -9T300 -6L236 31Q226 37 221 34T215 23V-200H65ZM292
114Q329 114 346 130T365 170Q369 212 369 255T365 341Q363 364 345 380T292 397Q252 397 234 379T215 328V184Q215 153 235 134T292 114Z" />
<glyph unicode="q" horiz-adv-x="565" d="M350 -200V23Q350 31 345 34T329 31L265 -6Q257 -8 249 -9T231 -10Q144 -10 101 33T50 154Q48 185 47 209T45 257Q45 281 46 305T50 358Q58 437 104 479T241 522Q273 522 302 510T350 481V510H500V-200H350ZM273 114Q310
114 330 133T350 184V328Q350 360 332 378T273 397Q239 397 221 381T200 341Q196 299 196 256T200 170Q202 147 219 131T273 114Z" />
<glyph unicode="r" horiz-adv-x="407" d="M80 0V355L20 443L140 522L178 466Q183 459 189 459T202 465Q228 487 268 504T370 522H387V390Q299 390 263 360T226 271V0H80Z" />
<glyph unicode="s" horiz-adv-x="476" d="M234 -11Q175 -11 132 2T40 46L82 154Q116 133 140 124T187 112T235 109Q273 109 289 122T305 155Q305 171 295 182T259 195L205 198Q133 202 87 237T40 350Q40 433 95 477T242 522Q299 522 340 512T422 476L380 368Q348
389 316 396T243 403Q206 403 188 391T170 360Q170 344 181 335T216 324L271 321Q345 317 390 280T436 166Q436 78 381 34T234 -11Z" />
<glyph unicode="t" horiz-adv-x="377" d="M219 1Q167 1 133 34T99 120V390H20V510H83Q93 510 97 515T106 539T117 596L123 630H245V510H328V390H245V146Q245 139 249 135T261 130H337V1H219Z" />
<glyph unicode="u" horiz-adv-x="567" d="M231 -10Q187 -10 148 7T84 58T60 145V511H210V197Q210 160 224 143T279 125Q320 125 336 142T352 197V511H502V0H350V23Q350 31 345 34T329 31L265 -6Q250 -10 231 -10Z" />
<glyph unicode="v" horiz-adv-x="494" d="M140 0L20 510H167L230 192L238 114Q239 105 246 105T255 114L263 192L327 510H474L353 0H140Z" />
<glyph unicode="w" horiz-adv-x="680" d="M120 0L40 510H180L210 290V202Q210 191 217 191T227 198L304 510H376L453 198Q455 191 462 191T470 202V290L500 510H640L560 0H425L349 237Q347 245 340 245T331 237L255 0H120Z" />
<glyph unicode="x" horiz-adv-x="508" d="M20 0L143 255L20 510H176L235 370L246 322Q248 313 254 313T263 322L275 370L334 510H488L365 255L488 0H334L275 140L263 188Q260 197 254 197T246 188L235 140L176 0H20Z" />
<glyph unicode="y" horiz-adv-x="483" d="M68 -214L32 -87Q85 -82 118 -58T162 2L177 56L10 510H163L225 293L235 200Q236 191 243 191T252 200L263 293L313 510H463L298 -43Q277 -117 216 -164T68 -214Z" />
<glyph unicode="z" horiz-adv-x="479" d="M45 0V104L230 346L263 374Q271 381 269 385T260 390H45V510H434V407L248 164L215 136Q207 129 209 125T218 120H434V0H45Z" />
<glyph unicode="{" horiz-adv-x="557" d="M397 -189Q306 -189 252 -142T196 11L195 196Q195 232 175 254T119 278L90 279V413L119 414Q155 416 175 438T195 496L196 681Q197 788 251 834T397 881H467V764H417Q380 764 366 743T351 681V486Q351 437 339 412T304
366L262 354Q253 351 253 346Q253 341 262 338L304 326Q326 304 338 278T351 196V11Q351 -29 365 -50T417 -72H467V-189H397Z" />
<glyph unicode="|" horiz-adv-x="340" d="M90 -150V850H250V-150H90Z" />
<glyph unicode="}" horiz-adv-x="557" d="M90 -189V-72H140Q178 -72 192 -51T206 11V186Q206 245 218 273T253 326L295 338Q304 341 304 346Q304 351 295 354L253 366Q231 389 219 416T206 496V681Q206 721 192 742T140 764H90V881H160Q251 881 305 835T361 681L362
496Q362 460 382 438T438 414L467 413V279L438 278Q402 277 382 255T362 196L361 11Q360 -95 306 -142T160 -189H90Z" />
<glyph unicode="~" horiz-adv-x="600" d="M396 184Q356 184 331 192T285 212T243 231T191 240Q158 240 133 229T84 199L23 300Q61 334 106 347T194 361Q234 361 260 353T306 333T348 314T401 305Q435 305 461 316T509 346L570 245Q535 214 490 199T396 184Z" />
<glyph unicode="&#xa0;" horiz-adv-x="300" />
<glyph unicode="&#xa1;" horiz-adv-x="311" d="M215 280L251 -190H60L95 280H215ZM233 510V365H76V510H233Z" />
<glyph unicode="&#xa2;" horiz-adv-x="460" d="M177 -117V5Q122 26 90 68T51 166Q45 214 45 256Q45 277 46 299T51 346Q59 402 90 444T177 506V627H317V519Q352 515 380 503T429 474L389 364Q367 381 343 390T285 399Q243 399 219 378T192 325Q189 287 189 256T192
186Q194 155 219 134T288 112Q314 112 339 119T392 144L430 37Q405 17 376 6T317 -9V-117H177Z" />
<glyph unicode="&#xa3;" horiz-adv-x="603" d="M70 0V126Q111 139 135 172T159 253V282H73V418H159V526Q159 585 186 627T263 691T380 713Q429 713 471 699T543 660L486 558Q467 575 445 581T402 587Q350 587 330 570T309 526V418H536V282H309V266Q308 226 300
201T276 158Q269 150 272 143T286 136H536V0H70Z" />
<glyph unicode="&#xa5;" horiz-adv-x="608" d="M224 0V190H74V314H227V247L173 386H74V510H124L50 700H211L285 500L296 422Q298 413 305 413T313 422L325 500L399 700H558L484 510H534V386H435L381 247V314H534V190H384V0H224Z" />
<glyph unicode="&#xa7;" horiz-adv-x="542" d="M264 -11Q205 -11 162 2T70 46L112 154Q146 133 170 124T217 112T265 109Q303 109 319 122T335 155Q335 171 325 182T289 195L235 198Q163 202 117 240T70 357Q70 391 79 418T106 466Q92 484 84 508T76 563Q76 646
131 690T278 735Q335 735 376 725T458 689L416 581Q384 602 352 609T279 616Q242 616 224 604T206 573Q206 557 217 548T252 537L307 534Q381 530 426 493T472 379Q472 308 435 265Q466 228 466 166Q466 78 411 34T264 -11ZM270 324Q314 324 327 334T341 367Q341
387 328 397T270 408Q228 407 214 397T200 367Q200 344 214 335T270 324Z" />
<glyph unicode="&#xa8;" horiz-adv-x="438" d="M254 578V700H388V578H254ZM50 578V700H184V578H50Z" />
<glyph unicode="&#xa9;" horiz-adv-x="966" d="M483 -66Q398 -66 323 -34T191 55T102 187T70 347Q70 433 102 507T191 639T323 728T483 760Q569 760 643 728T775 639T864 508T896 347Q896 262 864 187T775 55T644 -34T483 -66ZM482 78Q414 78 367 102T289 166T245
256Q238 280 236 302T234 346Q234 367 236 389T245 436Q260 485 289 524T366 588T479 612Q527 612 571 600T643 564L603 454Q581 471 552 480T489 489Q461 489 439 479T404 453T386 415Q379 377 379 346T386 276Q390 255 403 239T440 212T492 202Q518 202 548 209T606
234L644 127Q610 101 567 90T482 78ZM483 9Q553 9 614 35T722 107T795 215T822 347Q822 417 796 478T723 586T615 659T483 686Q413 686 352 660T245 587T172 479T145 347Q145 277 171 216T244 108T352 35T483 9Z" />
<glyph unicode="&#xaa;" horiz-adv-x="451" d="M325 350L298 386Q289 398 277 389Q258 374 233 364T173 354Q111 354 76 391T40 484Q40 546 84 578T192 611H259V649Q259 674 241 686T187 698Q160 698 134 689T81 665L43 768Q77 787 116 798T198 810Q293 810 338
765T384 649V476L426 407L325 350ZM205 450Q231 450 245 467T259 513V519Q259 529 244 524L218 515H193Q176 515 168 507T160 485Q160 471 173 461T205 450Z" />
<glyph unicode="&#xab;" horiz-adv-x="675" d="M461 50L320 185V285L461 420H625L480 278L424 243Q411 235 424 227L480 192L625 50H461ZM191 50L50 185V285L191 420H355L210 278L154 243Q141 235 154 227L210 192L355 50H191Z" />
<glyph unicode="&#xac;" horiz-adv-x="600" d="M394 100V282H70V418H530V100H394Z" />
<glyph unicode="&#xae;" horiz-adv-x="966" d="M483 -66Q398 -66 323 -34T191 55T102 187T70 347Q70 433 102 507T191 639T323 728T483 760Q569 760 643 728T775 639T864 508T896 347Q896 262 864 187T775 55T644 -34T483 -66ZM483 9Q553 9 614 35T722 107T795
215T822 347Q822 417 796 478T723 586T615 659T483 686Q413 686 352 660T245 587T172 479T145 347Q145 277 171 216T244 108T352 35T483 9ZM297 97V597H537Q619 597 659 550T700 429Q700 365 681 327T619 275Q611 272 617 262L636 231L693 97H531L462 258H437V97H297ZM436
383H510Q530 383 540 395T551 425Q551 443 541 455T510 468H436V383Z" />
<glyph unicode="&#xaf;" horiz-adv-x="401" d="M50 576V690H351V576H50Z" />
<glyph unicode="&#xb0;" horiz-adv-x="482" d="M242 393Q196 393 156 409T90 465T64 577Q64 649 90 689T157 744T242 760Q286 760 326 745T392 689T418 577Q418 504 392 465T326 409T242 393ZM240 491Q259 491 274 496T298 520T307 577Q307 615 298 633T274 656T240
662Q211 662 193 646T175 577Q175 539 184 521T208 497T240 491Z" />
<glyph unicode="&#xb1;" horiz-adv-x="640" d="M252 208V360H70V496H252V648H388V496H570V360H388V208H252ZM90 2V138H550V2H90Z" />
<glyph unicode="&#xb2;" horiz-adv-x="421" d="M45 350V451Q45 506 71 545T159 612L211 636Q237 648 243 656T249 673Q249 684 238 690T197 697Q176 697 149 693T86 676L49 778Q90 797 128 803T211 810Q251 810 291 797T359 754T386 674Q386 637 370 608T303 552L232
515Q212 505 200 498T182 484T177 472V471H377V350H45Z" />
<glyph unicode="&#xb3;" horiz-adv-x="414" d="M187 343Q141 343 101 352T20 390L60 500Q93 475 122 468T183 461Q212 461 229 468T246 492Q246 503 231 514T175 525H126V628H175Q213 628 226 637T239 659Q239 675 221 685T162 696Q143 696 118 692T64 675L28
776Q66 799 103 805T180 811Q224 811 267 797T338 753T367 674Q367 637 353 617T311 577Q340 561 357 541T374 483Q374 437 346 406T275 359T187 343Z" />
<glyph unicode="&#xb4;" horiz-adv-x="390" d="M303 578L443 750H593L453 578H303Z" />
<glyph unicode="&#xb5;" horiz-adv-x="572" d="M60 -164V511H210V197Q210 160 224 143T279 125Q320 125 336 142T352 197V511H502V0H350V23Q350 31 345 34T329 31L265 -6Q250 -10 231 -10Q226 -10 221 -10T210 -9V-164H60Z" />
<glyph unicode="&#xb6;" horiz-adv-x="817" d="M271 -250V255Q219 255 173 274T99 343T70 478Q70 543 87 586T133 654T198 689T271 700H751V564H671V-250H511V564H431V-250H271Z" />
<glyph unicode="&#xb7;" horiz-adv-x="297" d="M70 192V342H227V192H70Z" />
<glyph unicode="&#xb8;" horiz-adv-x="339" d="M50 -260L72 -178Q127 -178 158 -168T190 -140Q190 -124 167 -119T85 -114L122 35L201 6L188 -43Q235 -50 262 -75T289 -135Q289 -177 258 -205T174 -247T50 -260Z" />
<glyph unicode="&#xb9;" horiz-adv-x="414" d="M74 350V461H167V680H55V765L309 813L307 461H389V350H74Z" />
<glyph unicode="&#xba;" horiz-adv-x="474" d="M237 344Q155 344 105 388T49 499Q48 520 47 539T45 577Q45 597 46 616T49 657Q58 724 106 768T237 813Q319 813 370 769T425 657Q427 636 428 617T429 577Q429 559 429 540T425 499Q416 435 368 390T237 344ZM237
462Q262 462 274 480T289 523Q294 554 294 579T290 635Q288 661 275 679T237 698Q212 698 200 680T184 635Q181 604 182 579T185 524Q187 498 199 480T237 462Z" />
<glyph unicode="&#xbb;" horiz-adv-x="675" d="M320 50L465 192L521 227Q534 235 521 243L465 278L320 420H484L625 285V185L484 50H320ZM50 50L195 192L251 227Q264 235 251 243L195 278L50 420H214L355 285V185L214 50H50Z" />
<glyph unicode="&#xbc;" horiz-adv-x="1095" d="M74 501V612H167V831H55V916L309 964L307 612H389V501H74ZM354 0L619 700H779L516 0H354ZM900 0V101H679V160L822 455H959L834 206H900V325H1025V0H900Z" />
<glyph unicode="&#xbd;" horiz-adv-x="1100" d="M74 501V612H167V831H55V916L309 964L307 612H389V501H74ZM354 0L619 700H779L516 0H354ZM724 0V101Q724 156 750 195T838 262L890 286Q916 298 922 306T928 323Q928 334 917 340T876 347Q855 347 828 343T765 326L728
428Q769 447 807 453T890 460Q930 460 970 447T1038 404T1065 324Q1065 287 1049 258T982 202L911 165Q891 155 879 148T861 134T856 122V121H1056V0H724Z" />
<glyph unicode="&#xbe;" horiz-adv-x="1065" d="M187 494Q141 494 101 503T20 541L60 651Q93 626 122 619T183 612Q212 612 229 619T246 643Q246 654 231 665T175 676H126V779H175Q213 779 226 788T239 810Q239 826 221 836T162 847Q143 847 118 843T64 826L28
927Q66 950 103 956T180 962Q224 962 267 948T338 904T367 825Q367 788 353 768T311 728Q340 712 357 692T374 634Q374 588 346 557T275 510T187 494ZM324 0L589 700H749L486 0H324ZM870 0V101H649V160L792 455H929L804 206H870V325H995V0H870Z" />
<glyph unicode="&#xbf;" horiz-adv-x="497" d="M355 280Q358 255 358 247T359 233Q359 190 337 154T270 98L223 75Q207 67 193 54T179 10Q179 -18 193 -34T231 -58T279 -65Q308 -65 332 -61T378 -48T423 -26L467 -145Q428 -171 379 -186T275 -202Q204 -202 149
-178T62 -107T30 10Q30 58 47 90T90 144T145 179L178 196Q201 204 215 216T229 251V280H355ZM370 510V365H213V510H370Z" />
<glyph unicode="&#xc0;" horiz-adv-x="610" d="M30 0L200 700H420L590 0H431L326 497L319 560Q318 569 310 569T301 560L294 497L189 0H30ZM207 162L236 292H383L413 162H207ZM95 570V700H215L195 570H95ZM265 768L125 940H275L415 768H265Z" />
<glyph unicode="&#xc1;" horiz-adv-x="610" d="M30 0L200 700H420L590 0H431L326 497L319 560Q318 569 310 569T301 560L294 497L189 0H30ZM207 162L236 292H383L413 162H207ZM95 570V700H215L195 570H95ZM205 768L345 940H495L355 768H205Z" />
<glyph unicode="&#xc2;" horiz-adv-x="610" d="M30 0L200 700H420L590 0H431L326 497L319 560Q318 569 310 569T301 560L294 497L189 0H30ZM207 162L236 292H383L413 162H207ZM95 570V700H215L195 570H95ZM145 768L235 940H385L475 768H355L325 824L315 858Q312
865 309 865T303 858L293 824L265 768H145Z" />
<glyph unicode="&#xc3;" horiz-adv-x="610" d="M30 0L200 700H420L590 0H431L326 497L319 560Q318 569 310 569T301 560L294 497L189 0H30ZM207 162L236 292H383L413 162H207ZM95 570V700H215L195 570H95ZM170 754L130 846Q151 869 177 879T236 890Q274 890 296
882T336 865T378 856Q401 856 418 865T450 891L490 799Q469 777 443 766T384 755Q347 755 325 763T284 780T242 789Q220 789 202 780T170 754Z" />
<glyph unicode="&#xc4;" horiz-adv-x="610" d="M30 0L200 700H420L590 0H431L326 497L319 560Q318 569 310 569T301 560L294 497L189 0H30ZM207 162L236 292H383L413 162H207ZM95 570V700H215L195 570H95ZM345 768V890H479V768H345ZM141 768V890H275V768H141Z" />
<glyph unicode="&#xc5;" horiz-adv-x="610" d="M30 0L200 700H420L590 0H431L326 497L319 560Q318 569 310 569T301 560L294 497L189 0H30ZM207 162L236 292H383L413 162H207ZM95 570V700H215L195 570H95ZM311 751Q270 751 234 761T176 797T153 865Q153 909 176
933T235 968T311 978Q350 978 385 968T444 934T467 865Q467 821 444 796T386 761T311 751ZM309 824Q333 824 349 831T366 865Q366 891 350 898T309 905Q284 905 269 898T254 865Q254 839 270 832T309 824Z" />
<glyph unicode="&#xc6;" horiz-adv-x="870" d="M30 0L167 565H95V700H820V565H535V415H803V285H535V140H820V0H390V162H223L189 0H30ZM251 292H390V565H309L251 292Z" />
<glyph unicode="&#xc7;" horiz-adv-x="504" d="M320 -12Q245 -12 186 17T91 98T50 218Q48 247 47 283T45 350Q45 382 46 417T50 482Q55 550 89 602T181 683T310 712Q361 712 398 698T473 656L430 537Q403 557 381 564T327 572Q275 572 245 546T210 474Q208 439
207 410T205 350Q205 319 206 291T210 226Q215 180 243 154T320 129Q356 129 379 139T427 165L474 40Q438 15 403 2T320 -12ZM150 -260L172 -178Q227 -178 258 -168T290 -140Q290 -124 267 -119T185 -114L222 35L301 6L288 -43Q335 -50 362 -75T389 -135Q389 -177
358 -205T274 -247T150 -260Z" />
<glyph unicode="&#xc8;" horiz-adv-x="550" d="M70 0V700H500V560H215V415H483V285H215V140H500V0H70ZM250 768L110 940H260L400 768H250Z" />
<glyph unicode="&#xc9;" horiz-adv-x="550" d="M70 0V700H500V560H215V415H483V285H215V140H500V0H70ZM190 768L330 940H480L340 768H190Z" />
<glyph unicode="&#xca;" horiz-adv-x="550" d="M70 0V700H500V560H215V415H483V285H215V140H500V0H70ZM130 768L220 940H370L460 768H340L310 824L300 858Q297 865 294 865T288 858L278 824L250 768H130Z" />
<glyph unicode="&#xcb;" horiz-adv-x="550" d="M70 0V700H500V560H215V415H483V285H215V140H500V0H70ZM330 768V890H464V768H330ZM126 768V890H260V768H126Z" />
<glyph unicode="&#xcc;" horiz-adv-x="443" d="M50 0V130H142V570H50V700H393V570H301V130H393V0H50ZM177 768L37 940H187L327 768H177Z" />
<glyph unicode="&#xcd;" horiz-adv-x="443" d="M50 0V130H142V570H50V700H393V570H301V130H393V0H50ZM117 768L257 940H407L267 768H117Z" />
<glyph unicode="&#xce;" horiz-adv-x="443" d="M50 0V130H142V570H50V700H393V570H301V130H393V0H50ZM57 768L147 940H297L387 768H267L237 824L227 858Q224 865 221 865T215 858L205 824L177 768H57Z" />
<glyph unicode="&#xcf;" horiz-adv-x="443" d="M50 0V130H142V570H50V700H393V570H301V130H393V0H50ZM257 768V890H391V768H257ZM53 768V890H187V768H53Z" />
<glyph unicode="&#xd0;" horiz-adv-x="622" d="M0 293V407H340V293H0ZM90 0V700H294Q425 700 494 638T572 470Q574 443 575 411T577 350Q577 321 576 289T572 230Q564 124 495 62T294 0H90ZM250 130H294Q359 130 389 165T425 251Q428 281 428 302T429 350Q429
376 429 397T425 449Q421 500 390 535T294 570H250V130Z" />
<glyph unicode="&#xd1;" horiz-adv-x="640" d="M70 0V700H200L419 316Q424 309 430 312T435 322L420 410V700H570V0H440L222 384Q218 392 212 389T206 378L220 290V0H70ZM180 754L140 846Q161 869 187 879T246 890Q284 890 306 882T346 865T388 856Q411 856 428
865T460 891L500 799Q479 777 453 766T394 755Q357 755 335 763T294 780T252 789Q230 789 212 780T180 754Z" />
<glyph unicode="&#xd2;" horiz-adv-x="620" d="M310 -12Q258 -12 210 4T124 58Q101 82 83 114T55 202T45 350Q45 442 55 497T83 586T124 642Q161 679 209 695T310 712Q362 712 410 696T496 642Q520 619 537 586T565 498T575 350Q575 258 565 203T538 115T496 58Q459
21 411 5T310 -12ZM310 129Q352 129 379 155T409 227Q411 256 412 287T414 350Q414 382 413 413T409 473Q406 519 379 545T310 571Q268 571 241 545T211 473Q209 445 208 414T206 350Q206 318 207 287T211 227Q214 181 241 155T310 129ZM265 768L125 940H275L415
768H265Z" />
<glyph unicode="&#xd3;" horiz-adv-x="620" d="M310 -12Q258 -12 210 4T124 58Q101 82 83 114T55 202T45 350Q45 442 55 497T83 586T124 642Q161 679 209 695T310 712Q362 712 410 696T496 642Q520 619 537 586T565 498T575 350Q575 258 565 203T538 115T496 58Q459
21 411 5T310 -12ZM310 129Q352 129 379 155T409 227Q411 256 412 287T414 350Q414 382 413 413T409 473Q406 519 379 545T310 571Q268 571 241 545T211 473Q209 445 208 414T206 350Q206 318 207 287T211 227Q214 181 241 155T310 129ZM205 768L345 940H495L355
768H205Z" />
<glyph unicode="&#xd4;" horiz-adv-x="620" d="M310 -12Q258 -12 210 4T124 58Q101 82 83 114T55 202T45 350Q45 442 55 497T83 586T124 642Q161 679 209 695T310 712Q362 712 410 696T496 642Q520 619 537 586T565 498T575 350Q575 258 565 203T538 115T496 58Q459
21 411 5T310 -12ZM310 129Q352 129 379 155T409 227Q411 256 412 287T414 350Q414 382 413 413T409 473Q406 519 379 545T310 571Q268 571 241 545T211 473Q209 445 208 414T206 350Q206 318 207 287T211 227Q214 181 241 155T310 129ZM145 768L235 940H385L475
768H355L325 824L315 858Q312 865 309 865T303 858L293 824L265 768H145Z" />
<glyph unicode="&#xd5;" horiz-adv-x="620" d="M310 -12Q258 -12 210 4T124 58Q101 82 83 114T55 202T45 350Q45 442 55 497T83 586T124 642Q161 679 209 695T310 712Q362 712 410 696T496 642Q520 619 537 586T565 498T575 350Q575 258 565 203T538 115T496 58Q459
21 411 5T310 -12ZM310 129Q352 129 379 155T409 227Q411 256 412 287T414 350Q414 382 413 413T409 473Q406 519 379 545T310 571Q268 571 241 545T211 473Q209 445 208 414T206 350Q206 318 207 287T211 227Q214 181 241 155T310 129ZM170 754L130 846Q151 869
177 879T236 890Q274 890 296 882T336 865T378 856Q401 856 418 865T450 891L490 799Q469 777 443 766T384 755Q347 755 325 763T284 780T242 789Q220 789 202 780T170 754Z" />
<glyph unicode="&#xd6;" horiz-adv-x="620" d="M310 -12Q258 -12 210 4T124 58Q101 82 83 114T55 202T45 350Q45 442 55 497T83 586T124 642Q161 679 209 695T310 712Q362 712 410 696T496 642Q520 619 537 586T565 498T575 350Q575 258 565 203T538 115T496 58Q459
21 411 5T310 -12ZM310 129Q352 129 379 155T409 227Q411 256 412 287T414 350Q414 382 413 413T409 473Q406 519 379 545T310 571Q268 571 241 545T211 473Q209 445 208 414T206 350Q206 318 207 287T211 227Q214 181 241 155T310 129ZM345 768V890H479V768H345ZM141
768V890H275V768H141Z" />
<glyph unicode="&#xd7;" horiz-adv-x="600" d="M171 125L75 221L204 350L75 479L171 575L300 446L429 575L525 479L396 350L525 221L429 125L300 254L171 125Z" />
<glyph unicode="&#xd8;" horiz-adv-x="620" d="M310 -12Q258 -12 210 4T124 58Q101 82 83 114T55 202T45 350Q45 442 55 497T83 586T124 642Q161 679 209 695T310 712Q362 712 410 696T496 642Q520 619 537 586T565 498T575 350Q575 258 565 203T538 115T496 58Q459
21 411 5T310 -12ZM310 129Q352 129 379 155T409 227Q411 256 412 287T414 350Q414 382 413 413T409 473Q406 519 379 545T310 571Q268 571 241 545T211 473Q209 445 208 414T206 350Q206 318 207 287T211 227Q214 181 241 155T310 129ZM236 0L767 700H895L364
0H236Z" />
<glyph unicode="&#xd9;" horiz-adv-x="604" d="M302 -10Q231 -10 176 18T91 98T60 216V700H220V213Q220 176 242 154T302 131Q337 131 360 153T384 213V700H544L541 216Q541 149 511 98T427 19T302 -10ZM257 768L117 940H267L407 768H257Z" />
<glyph unicode="&#xda;" horiz-adv-x="604" d="M302 -10Q231 -10 176 18T91 98T60 216V700H220V213Q220 176 242 154T302 131Q337 131 360 153T384 213V700H544L541 216Q541 149 511 98T427 19T302 -10ZM197 768L337 940H487L347 768H197Z" />
<glyph unicode="&#xdb;" horiz-adv-x="604" d="M302 -10Q231 -10 176 18T91 98T60 216V700H220V213Q220 176 242 154T302 131Q337 131 360 153T384 213V700H544L541 216Q541 149 511 98T427 19T302 -10ZM137 768L227 940H377L467 768H347L317 824L307 858Q304
865 301 865T295 858L285 824L257 768H137Z" />
<glyph unicode="&#xdc;" horiz-adv-x="604" d="M302 -10Q231 -10 176 18T91 98T60 216V700H220V213Q220 176 242 154T302 131Q337 131 360 153T384 213V700H544L541 216Q541 149 511 98T427 19T302 -10ZM337 768V890H471V768H337ZM133 768V890H267V768H133Z" />
<glyph unicode="&#xdd;" horiz-adv-x="508" d="M174 0V255L0 700H161L235 500L246 422Q248 413 254 413T263 422L275 500L349 700H508L334 255V0H174ZM149 768L289 940H439L299 768H149Z" />
<glyph unicode="&#xde;" horiz-adv-x="580" d="M70 0V700H229V570H335Q435 570 492 513T550 356Q550 262 493 206T335 150H229V0H70ZM229 280H335Q368 280 386 302T405 359Q405 398 387 419T335 440H229V280Z" />
<glyph unicode="&#xdf;" horiz-adv-x="735" d="M493 -11Q434 -11 391 2T299 46L341 154Q375 133 398 124T441 112T488 109Q526 109 542 122T558 155Q558 171 548 182T512 195L464 198Q392 203 346 237T299 350Q299 415 333 454T429 511L464 521Q480 526 487 536T494
560Q494 575 481 588T441 609T368 617Q289 617 257 587T225 506V0H65V506Q65 584 102 639T206 724T364 753Q458 753 517 724T605 651T634 561Q634 498 599 461T502 406L468 396Q452 392 445 382T437 360Q437 344 447 335T478 324L530 321Q604 317 649 280T695 166Q695
78 640 34T493 -11Z" />
<glyph unicode="&#xe0;" horiz-adv-x="505" d="M370 -12L338 31Q327 45 315 34Q292 16 263 4T192 -8Q119 -8 77 34T35 142Q35 190 58 223T122 272T211 289H298V338Q298 369 276 385T209 401Q175 401 144 390T82 361L41 473Q80 496 125 509T220 522Q329 522 380
471T432 339V139L485 63L370 -12ZM224 97Q259 97 278 118T298 174V187Q298 200 280 195L244 184H213Q189 184 177 174T165 144Q165 125 182 111T224 97ZM208 578L68 750H218L358 578H208Z" />
<glyph unicode="&#xe1;" horiz-adv-x="505" d="M370 -12L338 31Q327 45 315 34Q292 16 263 4T192 -8Q119 -8 77 34T35 142Q35 190 58 223T122 272T211 289H298V338Q298 369 276 385T209 401Q175 401 144 390T82 361L41 473Q80 496 125 509T220 522Q329 522 380
471T432 339V139L485 63L370 -12ZM224 97Q259 97 278 118T298 174V187Q298 200 280 195L244 184H213Q189 184 177 174T165 144Q165 125 182 111T224 97ZM148 578L288 750H438L298 578H148Z" />
<glyph unicode="&#xe2;" horiz-adv-x="505" d="M370 -12L338 31Q327 45 315 34Q292 16 263 4T192 -8Q119 -8 77 34T35 142Q35 190 58 223T122 272T211 289H298V338Q298 369 276 385T209 401Q175 401 144 390T82 361L41 473Q80 496 125 509T220 522Q329 522 380
471T432 339V139L485 63L370 -12ZM224 97Q259 97 278 118T298 174V187Q298 200 280 195L244 184H213Q189 184 177 174T165 144Q165 125 182 111T224 97ZM88 578L178 750H328L418 578H298L268 634L258 668Q255 675 252 675T246 668L236 634L208 578H88Z" />
<glyph unicode="&#xe3;" horiz-adv-x="505" d="M370 -12L338 31Q327 45 315 34Q292 16 263 4T192 -8Q119 -8 77 34T35 142Q35 190 58 223T122 272T211 289H298V338Q298 369 276 385T209 401Q175 401 144 390T82 361L41 473Q80 496 125 509T220 522Q329 522 380
471T432 339V139L485 63L370 -12ZM224 97Q259 97 278 118T298 174V187Q298 200 280 195L244 184H213Q189 184 177 174T165 144Q165 125 182 111T224 97ZM113 564L73 656Q94 679 120 689T179 700Q217 700 239 692T279 675T321 666Q344 666 361 675T393 701L433 609Q412
587 386 576T327 565Q290 565 268 573T227 590T185 599Q163 599 145 590T113 564Z" />
<glyph unicode="&#xe4;" horiz-adv-x="505" d="M370 -12L338 31Q327 45 315 34Q292 16 263 4T192 -8Q119 -8 77 34T35 142Q35 190 58 223T122 272T211 289H298V338Q298 369 276 385T209 401Q175 401 144 390T82 361L41 473Q80 496 125 509T220 522Q329 522 380
471T432 339V139L485 63L370 -12ZM224 97Q259 97 278 118T298 174V187Q298 200 280 195L244 184H213Q189 184 177 174T165 144Q165 125 182 111T224 97ZM288 578V700H422V578H288ZM84 578V700H218V578H84Z" />
<glyph unicode="&#xe5;" horiz-adv-x="505" d="M370 -12L338 31Q327 45 315 34Q292 16 263 4T192 -8Q119 -8 77 34T35 142Q35 190 58 223T122 272T211 289H298V338Q298 369 276 385T209 401Q175 401 144 390T82 361L41 473Q80 496 125 509T220 522Q329 522 380
471T432 339V139L485 63L370 -12ZM224 97Q259 97 278 118T298 174V187Q298 200 280 195L244 184H213Q189 184 177 174T165 144Q165 125 182 111T224 97ZM254 561Q213 561 177 571T119 607T96 675Q96 719 119 743T178 778T254 788Q293 788 328 778T387 744T410 675Q410
631 387 606T329 571T254 561ZM252 634Q276 634 292 641T309 675Q309 701 293 708T252 715Q227 715 212 708T197 675Q197 649 213 642T252 634Z" />
<glyph unicode="&#xe6;" horiz-adv-x="767" d="M202 -9Q124 -9 80 34T35 142Q35 190 58 223T122 272T211 289H298V338Q298 369 276 385T209 401Q175 401 144 390T82 361L41 473Q80 496 125 509T220 522Q261 522 293 515T350 493L368 473Q376 463 384 473L401 492Q425
506 453 513T516 520Q571 520 611 504T679 456T719 378T732 271L711 219H437Q437 161 466 137T550 112Q579 112 606 119T664 141L702 34Q668 12 630 2T550 -9Q501 -9 461 2T390 33L371 54Q363 64 354 53L337 34Q309 14 275 3T202 -9ZM224 97Q259 97 278 118T298
174V187Q298 200 280 195L244 184H213Q189 184 177 174T165 144Q165 125 182 111T224 97ZM439 320H596Q594 341 587 360T564 391T518 403Q480 403 462 381T439 320Z" />
<glyph unicode="&#xe7;" horiz-adv-x="460" d="M278 -12Q176 -12 119 39T51 166Q45 214 45 256Q45 277 46 299T51 346Q62 423 118 472T275 522Q323 522 362 510T429 474L389 364Q367 381 343 390T285 399Q243 399 219 378T192 325Q189 287 189 256T192 186Q194
155 219 134T288 112Q314 112 339 119T392 144L430 37Q396 11 358 0T278 -12ZM122 -260L144 -178Q199 -178 230 -168T262 -140Q262 -124 239 -119T157 -114L194 35L273 6L260 -43Q307 -50 334 -75T361 -135Q361 -177 330 -205T246 -247T122 -260Z" />
<glyph unicode="&#xe8;" horiz-adv-x="514" d="M297 -10Q228 -10 176 12T91 74T51 163Q48 187 47 207T45 249Q45 289 51 338Q62 416 116 468T263 520Q318 520 358 504T426 456T466 378T479 271L458 219H76L74 320H343Q341 341 334 360T311 391T265 403Q224 403
206 377T185 306Q184 280 184 254T185 200Q190 149 221 131T297 112Q326 112 353 119T411 141L449 34Q415 12 377 1T297 -10ZM218 578L78 750H228L368 578H218Z" />
<glyph unicode="&#xe9;" horiz-adv-x="514" d="M297 -10Q228 -10 176 12T91 74T51 163Q48 187 47 207T45 249Q45 289 51 338Q62 416 116 468T263 520Q318 520 358 504T426 456T466 378T479 271L458 219H76L74 320H343Q341 341 334 360T311 391T265 403Q224 403
206 377T185 306Q184 280 184 254T185 200Q190 149 221 131T297 112Q326 112 353 119T411 141L449 34Q415 12 377 1T297 -10ZM158 578L298 750H448L308 578H158Z" />
<glyph unicode="&#xea;" horiz-adv-x="514" d="M297 -10Q228 -10 176 12T91 74T51 163Q48 187 47 207T45 249Q45 289 51 338Q62 416 116 468T263 520Q318 520 358 504T426 456T466 378T479 271L458 219H76L74 320H343Q341 341 334 360T311 391T265 403Q224 403
206 377T185 306Q184 280 184 254T185 200Q190 149 221 131T297 112Q326 112 353 119T411 141L449 34Q415 12 377 1T297 -10ZM98 578L188 750H338L428 578H308L278 634L268 668Q265 675 262 675T256 668L246 634L218 578H98Z" />
<glyph unicode="&#xeb;" horiz-adv-x="514" d="M297 -10Q228 -10 176 12T91 74T51 163Q48 187 47 207T45 249Q45 289 51 338Q62 416 116 468T263 520Q318 520 358 504T426 456T466 378T479 271L458 219H76L74 320H343Q341 341 334 360T311 391T265 403Q224 403
206 377T185 306Q184 280 184 254T185 200Q190 149 221 131T297 112Q326 112 353 119T411 141L449 34Q415 12 377 1T297 -10ZM298 578V700H432V578H298ZM94 578V700H228V578H94Z" />
<glyph unicode="&#xec;" horiz-adv-x="325" d="M110 0V386H20V510H260V0H110ZM376 578L236 750H386L526 578H376Z" />
<glyph unicode="&#xed;" horiz-adv-x="325" d="M110 0V386H20V510H260V0H110ZM60 578L200 750H350L210 578H60Z" />
<glyph unicode="&#xee;" horiz-adv-x="330" d="M15 578L90 750H243L318 578H200L178 634L169 668Q167 675 165 675T160 668L152 634L132 578H15ZM110 0V386H20V510H260V0H110Z" />
<glyph unicode="&#xef;" horiz-adv-x="330" d="M182 578V700H302V578H182ZM20 578V700H140V578H20ZM110 0V386H20V510H260V0H110Z" />
<glyph unicode="&#xf0;" horiz-adv-x="581" d="M187 489L140 570L394 700L443 623L187 489ZM290 -12Q212 -12 154 17T63 101T30 229Q30 296 58 346T134 425T235 454Q239 454 244 454T255 453L304 431Q316 426 319 431T316 447L137 700H309L458 474Q497 416 517
375T544 299T551 229Q551 155 520 101T431 18T290 -12ZM290 122Q347 122 377 149T405 229Q404 281 374 308T290 336Q236 336 207 309T176 229Q175 177 204 150T290 122Z" />
<glyph unicode="&#xf1;" horiz-adv-x="567" d="M65 0V510H215V482Q241 502 271 512T336 522Q381 522 420 506T483 455T507 366V0H357V314Q357 352 343 369T288 386Q248 386 232 369T215 314V0H65ZM144 564L104 656Q125 679 151 689T210 700Q248 700 270 692T310
675T352 666Q375 666 392 675T424 701L464 609Q443 587 417 576T358 565Q321 565 299 573T258 590T216 599Q194 599 176 590T144 564Z" />
<glyph unicode="&#xf2;" horiz-adv-x="549" d="M274 -12Q175 -12 118 38T51 165Q45 213 45 253Q45 276 46 298T51 345Q62 421 118 471T274 522Q373 522 430 472T498 345Q504 296 504 253Q504 213 498 165Q487 89 430 39T274 -12ZM274 112Q312 112 332 134T356
187Q361 224 361 254T357 322Q354 354 333 376T274 399Q237 399 216 377T192 322Q188 285 188 255T193 188Q196 157 216 135T274 112ZM230 578L90 750H240L380 578H230Z" />
<glyph unicode="&#xf3;" horiz-adv-x="549" d="M274 -12Q175 -12 118 38T51 165Q45 213 45 253Q45 276 46 298T51 345Q62 421 118 471T274 522Q373 522 430 472T498 345Q504 296 504 253Q504 213 498 165Q487 89 430 39T274 -12ZM274 112Q312 112 332 134T356
187Q361 224 361 254T357 322Q354 354 333 376T274 399Q237 399 216 377T192 322Q188 285 188 255T193 188Q196 157 216 135T274 112ZM170 578L310 750H460L320 578H170Z" />
<glyph unicode="&#xf4;" horiz-adv-x="549" d="M274 -12Q175 -12 118 38T51 165Q45 213 45 253Q45 276 46 298T51 345Q62 421 118 471T274 522Q373 522 430 472T498 345Q504 296 504 253Q504 213 498 165Q487 89 430 39T274 -12ZM274 112Q312 112 332 134T356
187Q361 224 361 254T357 322Q354 354 333 376T274 399Q237 399 216 377T192 322Q188 285 188 255T193 188Q196 157 216 135T274 112ZM110 578L200 750H350L440 578H320L290 634L280 668Q277 675 274 675T268 668L258 634L230 578H110Z" />
<glyph unicode="&#xf5;" horiz-adv-x="549" d="M274 -12Q175 -12 118 38T51 165Q45 213 45 253Q45 276 46 298T51 345Q62 421 118 471T274 522Q373 522 430 472T498 345Q504 296 504 253Q504 213 498 165Q487 89 430 39T274 -12ZM274 112Q312 112 332 134T356
187Q361 224 361 254T357 322Q354 354 333 376T274 399Q237 399 216 377T192 322Q188 285 188 255T193 188Q196 157 216 135T274 112ZM135 564L95 656Q116 679 142 689T201 700Q239 700 261 692T301 675T343 666Q366 666 383 675T415 701L455 609Q434 587 408 576T349
565Q312 565 290 573T249 590T207 599Q185 599 167 590T135 564Z" />
<glyph unicode="&#xf6;" horiz-adv-x="549" d="M274 -12Q175 -12 118 38T51 165Q45 213 45 253Q45 276 46 298T51 345Q62 421 118 471T274 522Q373 522 430 472T498 345Q504 296 504 253Q504 213 498 165Q487 89 430 39T274 -12ZM274 112Q312 112 332 134T356
187Q361 224 361 254T357 322Q354 354 333 376T274 399Q237 399 216 377T192 322Q188 285 188 255T193 188Q196 157 216 135T274 112ZM310 578V700H444V578H310ZM106 578V700H240V578H106Z" />
<glyph unicode="&#xf7;" horiz-adv-x="600" d="M50 282V418H510V282H50ZM202 55V205H359V55H202ZM202 495V645H359V495H202Z" />
<glyph unicode="&#xf8;" horiz-adv-x="549" d="M274 -12Q175 -12 118 38T51 165Q45 213 45 253Q45 276 46 298T51 345Q62 421 118 471T274 522Q373 522 430 472T498 345Q504 296 504 253Q504 213 498 165Q487 89 430 39T274 -12ZM274 112Q312 112 332 134T356
187Q361 224 361 254T357 322Q354 354 333 376T274 399Q237 399 216 377T192 322Q188 285 188 255T193 188Q196 157 216 135T274 112ZM273 0L660 510H788L401 0H273Z" />
<glyph unicode="&#xf9;" horiz-adv-x="567" d="M231 -10Q187 -10 148 7T84 58T60 145V511H210V197Q210 160 224 143T279 125Q320 125 336 142T352 197V511H502V0H350V23Q350 31 345 34T329 31L265 -6Q250 -10 231 -10ZM241 578L101 750H251L391 578H241Z" />
<glyph unicode="&#xfa;" horiz-adv-x="567" d="M231 -10Q187 -10 148 7T84 58T60 145V511H210V197Q210 160 224 143T279 125Q320 125 336 142T352 197V511H502V0H350V23Q350 31 345 34T329 31L265 -6Q250 -10 231 -10ZM181 578L321 750H471L331 578H181Z" />
<glyph unicode="&#xfb;" horiz-adv-x="567" d="M231 -10Q187 -10 148 7T84 58T60 145V511H210V197Q210 160 224 143T279 125Q320 125 336 142T352 197V511H502V0H350V23Q350 31 345 34T329 31L265 -6Q250 -10 231 -10ZM121 578L211 750H361L451 578H331L301 634L291
668Q288 675 285 675T279 668L269 634L241 578H121Z" />
<glyph unicode="&#xfc;" horiz-adv-x="567" d="M231 -10Q187 -10 148 7T84 58T60 145V511H210V197Q210 160 224 143T279 125Q320 125 336 142T352 197V511H502V0H350V23Q350 31 345 34T329 31L265 -6Q250 -10 231 -10ZM321 578V700H455V578H321ZM117 578V700H251V578H117Z"
/>
<glyph unicode="&#xfd;" horiz-adv-x="483" d="M68 -214L32 -87Q85 -82 118 -58T162 2L177 56L10 510H163L225 293L235 200Q236 191 243 191T252 200L263 293L313 510H463L298 -43Q277 -117 216 -164T68 -214ZM137 578L277 750H427L287 578H137Z" />
<glyph unicode="&#xfe;" horiz-adv-x="565" d="M65 -200V700H215V481Q233 498 262 510T324 522Q416 522 461 480T515 358Q518 329 519 305T520 257Q520 234 519 210T515 154Q508 76 465 33T334 -10Q325 -10 317 -9T300 -6L236 31Q226 37 221 34T215 23V-200H65ZM292
114Q329 114 346 130T365 170Q369 212 369 255T365 341Q363 364 345 380T292 397Q252 397 234 379T215 328V184Q215 153 235 134T292 114Z" />
<glyph unicode="&#xff;" horiz-adv-x="483" d="M68 -214L32 -87Q85 -82 118 -58T162 2L177 56L10 510H163L225 293L235 200Q236 191 243 191T252 200L263 293L313 510H463L298 -43Q277 -117 216 -164T68 -214ZM277 578V700H411V578H277ZM73 578V700H207V578H73Z" />
<glyph unicode="&#x2013;" horiz-adv-x="600" d="M50 199V335H550V199H50Z" />
<glyph unicode="&#x2014;" horiz-adv-x="772" d="M50 199V335H722V199H50Z" />
<glyph unicode="&#x2018;" horiz-adv-x="262" d="M232 755L218 679Q159 674 128 639T97 545H185V400H10V514Q10 598 42 650T124 727T232 755Z" />
<glyph unicode="&#x2019;" horiz-adv-x="342" d="M60 395L74 471Q133 476 164 511T195 605H107V750H282V636Q282 552 251 500T168 423T60 395Z" />
<glyph unicode="&#x201a;" horiz-adv-x="312" d="M-10 -210L4 -134Q77 -132 116 -95T155 0H67V145H242V31Q242 -53 206 -106T113 -184T-10 -210Z" />
<glyph unicode="&#x201c;" horiz-adv-x="592" d="M282 755L268 679Q209 674 178 639T147 545H235V400H60V514Q60 598 92 650T174 727T282 755ZM532 755L518 679Q459 674 428 639T397 545H485V400H310V514Q310 598 342 650T424 727T532 755Z" />
<glyph unicode="&#x201d;" horiz-adv-x="592" d="M310 395L324 471Q383 476 414 511T445 605H357V750H532V636Q532 552 501 500T418 423T310 395ZM60 395L74 471Q133 476 164 511T195 605H107V750H282V636Q282 552 251 500T168 423T60 395Z" />
<glyph unicode="&#x201e;" horiz-adv-x="532" d="M240 -210L254 -134Q313 -129 344 -94T375 0H287V145H462V31Q462 -53 431 -105T348 -182T240 -210ZM-10 -210L4 -134Q63 -129 94 -94T125 0H37V145H212V31Q212 -53 181 -105T98 -182T-10 -210Z" />
<glyph unicode="&#x2022;" horiz-adv-x="392" d="M195 198Q144 198 117 220T80 278T70 356Q70 396 80 430T117 485T195 506Q247 506 274 485T311 429T322 353Q322 312 312 277T274 220T195 198Z" />
<glyph unicode="&#x2039;" horiz-adv-x="405" d="M191 50L50 185V285L191 420H355L210 278L154 243Q141 235 154 227L210 192L355 50H191Z" />
<glyph unicode="&#x203a;" horiz-adv-x="405" d="M50 50L195 192L251 227Q264 235 251 243L195 278L50 420H214L355 285V185L214 50H50Z" />
</font>
</defs>
</svg>
